<svg
  xmlns="http://www.w3.org/2000/svg"
  xmlns:xlink="http://www.w3.org/1999/xlink"
  width="755"
  zoomAndPan="magnify"
  viewBox="0 0 567 261.000006"
  height="347"
  preserveAspectRatio="xMidYMid meet"
  version="1.0"
>
  <defs>
    <g />
    <clipPath id="id1">
      <path
        d="M 1.082031 18 L 565.917969 18 L 565.917969 221 L 1.082031 221 Z M 1.082031 18 "
        clip-rule="nonzero"
      />
    </clipPath>
    <clipPath id="id2">
      <path
        d="M 1.082031 210 L 565.917969 210 L 565.917969 233 L 1.082031 233 Z M 1.082031 210 "
        clip-rule="nonzero"
      />
    </clipPath>
  </defs>
  <g fill="#000000" fill-opacity="1">
    <g transform="translate(18.444088, 196.99787)">
      <g>
        <path
          d="M 76.640625 0 L 70.109375 -35.953125 L 39.328125 -35.953125 L 33.265625 0 L 1.125 0 L 31.6875 -155.734375 L 78.65625 -155.734375 L 108.765625 0 Z M 44.046875 -64.5 L 65.171875 -64.5 L 54.390625 -124.734375 Z M 44.046875 -64.5 "
        />
      </g>
    </g>
  </g>
  <g fill="#000000" fill-opacity="1">
    <g transform="translate(128.339568, 196.99787)">
      <g>
        <path
          d="M 72.8125 -155.734375 L 107.875 -155.734375 L 78.203125 0 L 31.234375 0 L 1.125 -155.734375 L 35.515625 -155.734375 C 44.203125 -106.148438 49.21875 -76.1875 50.5625 -65.84375 C 51.914062 -55.507812 53.414062 -43.300781 55.0625 -29.21875 C 57.90625 -56.03125 60.375 -76.101562 62.46875 -89.4375 Z M 72.8125 -155.734375 "
        />
      </g>
    </g>
  </g>
  <g fill="#000000" fill-opacity="1">
    <g transform="translate(237.33611, 196.99787)">
      <g>
        <path
          d="M 10.109375 -155.734375 L 89 -155.734375 L 89 -126.53125 L 43.828125 -126.53125 L 43.828125 -93.484375 L 82.921875 -93.484375 L 82.921875 -64.28125 L 43.828125 -64.28125 L 43.828125 -29.21875 L 89 -29.21875 L 89 0 L 10.109375 0 Z M 10.109375 -155.734375 "
        />
      </g>
    </g>
  </g>
  <g fill="#000000" fill-opacity="1">
    <g transform="translate(331.949605, 196.99787)">
      <g>
        <path
          d="M 43.828125 -56.1875 L 43.828125 0 L 10.109375 0 L 10.109375 -155.734375 L 60.90625 -155.734375 C 73.1875 -155.734375 82.769531 -152.8125 89.65625 -146.96875 C 96.550781 -141.132812 100 -132.597656 100 -121.359375 L 100 -92.59375 C 100 -74.613281 93.859375 -63.375 81.578125 -58.875 L 106.078125 0 L 69 0 L 48.09375 -56.1875 Z M 43.828125 -126.96875 L 43.828125 -82.921875 L 57.078125 -82.921875 C 60.523438 -82.921875 62.921875 -83.671875 64.265625 -85.171875 C 65.617188 -86.671875 66.296875 -89.296875 66.296875 -93.046875 L 66.296875 -118.4375 C 66.296875 -121.726562 65.546875 -123.972656 64.046875 -125.171875 C 62.546875 -126.367188 60.222656 -126.96875 57.078125 -126.96875 Z M 43.828125 -126.96875 "
        />
      </g>
    </g>
  </g>
  <g fill="#000000" fill-opacity="1">
    <g transform="translate(440.271945, 196.99787)">
      <g>
        <path
          d="M 71.234375 0 L 37.078125 0 L 37.078125 -48.3125 L 0 -155.734375 L 34.609375 -155.734375 L 42.03125 -132.140625 C 47.875 -113.710938 52.066406 -97.382812 54.609375 -83.15625 C 57.453125 -97.6875 61.722656 -114.164062 67.421875 -132.59375 L 74.609375 -155.734375 L 108.328125 -155.734375 L 71.234375 -48.3125 Z M 71.234375 0 "
        />
      </g>
    </g>
  </g>
  <g clip-path="url(#id1)">
    <path
      stroke-linecap="butt"
      transform="matrix(1.561676, 0, 0, 1.561676, 1.192447, 22.090138)"
      fill="none"
      stroke-linejoin="miter"
      d="M 60.128537 111.998862 L 55.948833 88.986729 L 36.238441 88.986729 L 32.338885 111.998862 L 11.75053 111.998862 L 31.353365 12.253773 L 61.429222 12.253773 L 80.681873 111.998862 Z M 39.260034 70.682079 L 52.787166 70.682079 L 45.866017 32.139257 Z M 128.039342 12.253773 L 150.491179 12.253773 L 131.483658 111.998862 L 101.407801 111.998862 L 82.120131 12.253773 L 104.149246 12.253773 C 109.724686 44.015519 112.931376 63.210639 113.776822 69.839134 C 114.642278 76.445117 115.615291 84.266741 116.690859 93.309008 C 118.494309 76.114943 120.077644 63.258164 121.43586 54.731169 Z M 157.677468 12.253773 L 208.199105 12.253773 L 208.199105 30.981147 L 179.28386 30.981147 L 179.28386 52.132298 L 204.299549 52.132298 L 204.299549 70.857171 L 179.28386 70.857171 L 179.28386 93.309008 L 208.199105 93.309008 L 208.199105 111.998862 L 157.677468 111.998862 Z M 239.868303 76.022394 L 239.868303 111.998862 L 218.261911 111.998862 L 218.261911 12.253773 L 250.794063 12.253773 C 258.665714 12.253773 264.801449 14.12726 269.206271 17.874236 C 273.633605 21.623713 275.847272 27.091596 275.847272 34.282887 L 275.847272 52.692594 C 275.847272 64.216169 271.910197 71.419968 264.041048 74.301487 L 279.71181 111.998862 L 255.959287 111.998862 L 242.609748 76.022394 Z M 239.868303 30.698498 L 239.868303 58.910872 L 248.335267 58.910872 C 250.561441 58.910872 252.094749 58.43312 252.937694 57.472614 C 253.805651 56.512108 254.238379 54.823717 254.238379 52.412446 L 254.238379 36.143869 C 254.238379 34.037758 253.758126 32.607004 252.79762 31.859109 C 251.837113 31.086202 250.35133 30.698498 248.335267 30.698498 Z M 326.764118 111.998862 L 304.910096 111.998862 L 304.910096 81.047544 L 281.160074 12.253773 L 303.329262 12.253773 L 308.071762 27.396757 C 311.818738 39.177968 314.502653 49.625977 316.118505 58.73578 C 317.944468 49.438378 320.685913 38.885314 324.34034 27.081591 L 328.942767 12.253773 L 350.51414 12.253773 L 326.764118 81.047544 Z M 326.764118 111.998862 "
      stroke="#000000"
      stroke-width="2.608441"
      stroke-opacity="1"
      stroke-miterlimit="4"
    />
  </g>
  <g fill="#000000" fill-opacity="1">
    <g transform="translate(11.509272, 249.917296)">
      <g>
        <path
          d="M 1 0 L 4.535156 0 C 5.984375 0 7.171875 -1.1875 7.171875 -2.6875 C 7.171875 -3.386719 6.832031 -4.074219 6.246094 -4.472656 C 6.808594 -4.859375 7.046875 -5.558594 7.070312 -6.234375 C 7.109375 -7.808594 6.121094 -8.945312 4.535156 -8.945312 L 1 -8.945312 Z M 2.796875 -7.160156 L 4.386719 -7.160156 C 4.898438 -7.160156 5.210938 -6.757812 5.210938 -6.257812 C 5.210938 -5.773438 4.898438 -5.359375 4.386719 -5.359375 L 2.796875 -5.359375 Z M 2.796875 -3.574219 L 4.386719 -3.574219 C 4.898438 -3.574219 5.285156 -3.1875 5.285156 -2.6875 C 5.285156 -2.1875 4.898438 -1.785156 4.386719 -1.785156 L 2.796875 -1.785156 Z M 2.796875 -3.574219 "
        />
      </g>
    </g>
  </g>
  <g fill="#000000" fill-opacity="1">
    <g transform="translate(19.267739, 249.917296)">
      <g>
        <path
          d="M 3.1875 0 L 4.960938 0 L 4.960938 -4.023438 L 8.082031 -8.933594 L 5.898438 -8.933594 L 4.074219 -5.859375 L 2.25 -8.933594 L 0.0742188 -8.933594 L 3.1875 -4.023438 Z M 3.1875 0 "
        />
      </g>
    </g>
  </g>
  <g fill="#000000" fill-opacity="1">
    <g transform="translate(27.37602, 249.917296)"><g /></g>
  </g>
  <g fill="#000000" fill-opacity="1">
    <g transform="translate(30.924169, 249.917296)">
      <g>
        <path
          d="M 6.683594 -6.859375 L 6.894531 -8.695312 C 6.359375 -8.933594 5.757812 -9.046875 5.136719 -9.046875 C -0.910156 -9.046875 -0.925781 0.0234375 5.136719 0.0234375 C 5.757812 0.0234375 6.546875 -0.125 7.097656 -0.351562 L 6.859375 -2.199219 C 6.523438 -2.023438 5.910156 -1.800781 5.136719 -1.800781 C 1.597656 -1.800781 1.597656 -7.246094 5.136719 -7.246094 C 5.910156 -7.246094 6.347656 -7.035156 6.683594 -6.859375 Z M 6.683594 -6.859375 "
        />
      </g>
    </g>
  </g>
  <g fill="#000000" fill-opacity="1">
    <g transform="translate(38.445249, 249.917296)">
      <g>
        <path
          d="M 1 -8.933594 L 1 0 L 5.621094 0 L 5.621094 -1.785156 L 2.785156 -1.785156 L 2.785156 -8.933594 Z M 1 -8.933594 "
        />
      </g>
    </g>
  </g>
  <g fill="#000000" fill-opacity="1">
    <g transform="translate(44.604548, 249.917296)">
      <g>
        <path
          d="M 5.621094 0 L 5.621094 -1.785156 L 2.785156 -1.785156 L 2.785156 -3.574219 L 5.136719 -3.574219 L 5.136719 -5.359375 L 2.785156 -5.359375 L 2.785156 -7.144531 L 5.472656 -7.144531 L 5.472656 -8.933594 L 1 -8.933594 L 1 0 Z M 5.621094 0 "
        />
      </g>
    </g>
  </g>
  <g fill="#000000" fill-opacity="1">
    <g transform="translate(50.901279, 249.917296)">
      <g>
        <path
          d="M 0.199219 0 L 2.222656 0 L 2.574219 -0.960938 L 5.535156 -0.960938 L 5.898438 0 L 7.910156 0 L 4.148438 -9.257812 L 3.960938 -9.257812 Z M 3.222656 -2.636719 L 4.058594 -4.960938 L 4.871094 -2.636719 Z M 3.222656 -2.636719 "
        />
      </g>
    </g>
  </g>
  <g fill="#000000" fill-opacity="1">
    <g transform="translate(59.059538, 249.917296)">
      <g>
        <path
          d="M 2.785156 -4.859375 L 7.308594 0.1875 L 7.785156 0.1875 L 7.785156 -8.921875 L 5.984375 -8.921875 L 5.984375 -3.871094 L 1.472656 -9.121094 L 1 -9.121094 L 1 0 L 2.785156 0 Z M 2.785156 -4.859375 "
        />
      </g>
    </g>
  </g>
  <g fill="#000000" fill-opacity="1">
    <g transform="translate(67.85496, 249.917296)"><g /></g>
  </g>
  <g fill="#000000" fill-opacity="1">
    <g transform="translate(71.40311, 249.917296)">
      <g>
        <path
          d="M 5.160156 -10.980469 L 2.960938 -10.980469 L 2.347656 -9.546875 L 3.960938 -9.546875 Z M 5.621094 0 L 5.621094 -1.785156 L 2.785156 -1.785156 L 2.785156 -3.574219 L 5.136719 -3.574219 L 5.136719 -5.359375 L 2.785156 -5.359375 L 2.785156 -7.144531 L 5.472656 -7.144531 L 5.472656 -8.933594 L 1 -8.933594 L 1 0 Z M 5.621094 0 "
        />
      </g>
    </g>
  </g>
  <g fill="#000000" fill-opacity="1">
    <g transform="translate(77.69984, 249.917296)">
      <g>
        <path
          d="M 1 -8.933594 L 1 0 L 5.621094 0 L 5.621094 -1.785156 L 2.785156 -1.785156 L 2.785156 -8.933594 Z M 1 -8.933594 "
        />
      </g>
    </g>
  </g>
  <g fill="#000000" fill-opacity="1">
    <g transform="translate(83.85914, 249.917296)">
      <g>
        <path
          d="M 2.785156 0 L 2.785156 -8.933594 L 1 -8.933594 L 1 0 Z M 2.785156 0 "
        />
      </g>
    </g>
  </g>
  <g fill="#000000" fill-opacity="1">
    <g transform="translate(87.657163, 249.917296)">
      <g>
        <path
          d="M 4.261719 0 L 4.261719 -7.144531 L 6.484375 -7.144531 L 6.484375 -8.921875 L 0.25 -8.921875 L 0.25 -7.144531 L 2.472656 -7.144531 L 2.472656 0 Z M 4.261719 0 "
        />
      </g>
    </g>
  </g>
  <g fill="#000000" fill-opacity="1">
    <g transform="translate(94.491101, 249.917296)">
      <g>
        <path
          d="M 5.621094 0 L 5.621094 -1.785156 L 2.785156 -1.785156 L 2.785156 -3.574219 L 5.136719 -3.574219 L 5.136719 -5.359375 L 2.785156 -5.359375 L 2.785156 -7.144531 L 5.472656 -7.144531 L 5.472656 -8.933594 L 1 -8.933594 L 1 0 Z M 5.621094 0 "
        />
      </g>
    </g>
  </g>
  <g fill="#000000" fill-opacity="1">
    <g transform="translate(100.787833, 249.917296)">
      <g>
        <path
          d="M 5.203125 0.125 C 4.535156 0.125 3.921875 0.015625 3.359375 -0.203125 C 2.804688 -0.429688 2.320312 -0.75 1.90625 -1.15625 C 1.488281 -1.570312 1.164062 -2.0625 0.9375 -2.625 C 0.71875 -3.1875 0.609375 -3.800781 0.609375 -4.46875 C 0.609375 -5.132812 0.71875 -5.742188 0.9375 -6.296875 C 1.164062 -6.859375 1.488281 -7.34375 1.90625 -7.75 C 2.320312 -8.164062 2.804688 -8.484375 3.359375 -8.703125 C 3.921875 -8.929688 4.535156 -9.046875 5.203125 -9.046875 C 5.835938 -9.046875 6.429688 -8.929688 6.984375 -8.703125 C 7.535156 -8.484375 8.019531 -8.164062 8.4375 -7.75 C 8.863281 -7.34375 9.191406 -6.859375 9.421875 -6.296875 C 9.660156 -5.742188 9.78125 -5.132812 9.78125 -4.46875 C 9.78125 -3.800781 9.664062 -3.1875 9.4375 -2.625 C 9.21875 -2.0625 8.898438 -1.570312 8.484375 -1.15625 C 8.078125 -0.75 7.59375 -0.429688 7.03125 -0.203125 C 6.476562 0.015625 5.867188 0.125 5.203125 0.125 Z M 5.203125 -0.53125 C 5.734375 -0.53125 6.234375 -0.625 6.703125 -0.8125 C 7.171875 -1.007812 7.582031 -1.285156 7.9375 -1.640625 C 8.289062 -1.992188 8.566406 -2.40625 8.765625 -2.875 C 8.972656 -3.351562 9.078125 -3.882812 9.078125 -4.46875 C 9.078125 -5.007812 8.976562 -5.515625 8.78125 -5.984375 C 8.59375 -6.460938 8.328125 -6.878906 7.984375 -7.234375 C 7.640625 -7.597656 7.226562 -7.878906 6.75 -8.078125 C 6.28125 -8.285156 5.765625 -8.390625 5.203125 -8.390625 C 4.453125 -8.390625 3.78125 -8.21875 3.1875 -7.875 C 2.601562 -7.539062 2.144531 -7.078125 1.8125 -6.484375 C 1.476562 -5.890625 1.3125 -5.21875 1.3125 -4.46875 C 1.3125 -3.925781 1.40625 -3.414062 1.59375 -2.9375 C 1.789062 -2.457031 2.0625 -2.039062 2.40625 -1.6875 C 2.75 -1.332031 3.15625 -1.050781 3.625 -0.84375 C 4.101562 -0.632812 4.628906 -0.53125 5.203125 -0.53125 Z M 3.484375 -1.71875 L 3.484375 -7.1875 L 5.09375 -7.1875 C 5.769531 -7.1875 6.265625 -7.050781 6.578125 -6.78125 C 6.898438 -6.507812 7.0625 -6.109375 7.0625 -5.578125 C 7.0625 -5.179688 6.960938 -4.867188 6.765625 -4.640625 C 6.566406 -4.410156 6.34375 -4.25 6.09375 -4.15625 L 7.53125 -1.71875 L 6.46875 -1.71875 L 5.21875 -3.890625 L 4.4375 -3.890625 L 4.4375 -1.71875 Z M 4.4375 -4.65625 L 5.0625 -4.65625 C 5.382812 -4.65625 5.632812 -4.738281 5.8125 -4.90625 C 6 -5.070312 6.09375 -5.285156 6.09375 -5.546875 C 6.09375 -5.835938 6.007812 -6.050781 5.84375 -6.1875 C 5.675781 -6.320312 5.410156 -6.390625 5.046875 -6.390625 L 4.4375 -6.390625 Z M 4.4375 -4.65625 "
        />
      </g>
    </g>
  </g>
  <g clip-path="url(#id2)">
    <path
      stroke-linecap="butt"
      transform="matrix(22.418381, 0, 0, 22.03422, 13.062306, 221.019768)"
      fill="none"
      stroke-linejoin="miter"
      d="M 0.0000086516 -0.0000107637 L 24.662388 -0.0000107637 "
      stroke="#ffd428"
      stroke-width="1"
      stroke-opacity="1"
      stroke-miterlimit="4"
    />
  </g>
  <g fill="#000000" fill-opacity="1">
    <g transform="translate(201.8304, 226.30964)">
      <g>
        <path
          d="M 10.28125 -11.089844 L 8.808594 -11.089844 C 8.683594 -11.089844 8.585938 -10.980469 8.585938 -10.851562 C 8.585938 -10.726562 8.683594 -10.632812 8.808594 -10.632812 C 9.09375 -10.632812 9.316406 -10.394531 9.316406 -10.125 C 9.316406 -10.125 9.316406 -10.109375 9.316406 -10.109375 L 9.316406 -2.125 L 3.707031 -10.980469 C 3.675781 -11.042969 3.597656 -11.074219 3.515625 -11.074219 C 3.515625 -11.074219 1.332031 -11.074219 1.332031 -11.074219 L 0.601562 -11.074219 C 0.476562 -11.074219 0.378906 -10.980469 0.378906 -10.851562 C 0.378906 -10.726562 0.476562 -10.632812 0.601562 -10.632812 C 0.761719 -10.632812 0.933594 -10.566406 1.109375 -10.457031 L 1.109375 -0.949219 C 1.109375 -0.679688 0.886719 -0.445312 0.601562 -0.445312 C 0.476562 -0.445312 0.378906 -0.347656 0.378906 -0.222656 C 0.378906 -0.09375 0.476562 0.015625 0.601562 0.015625 L 2.074219 0.015625 C 2.203125 0.015625 2.296875 -0.09375 2.296875 -0.222656 C 2.296875 -0.347656 2.203125 -0.445312 2.074219 -0.445312 C 1.789062 -0.445312 1.570312 -0.679688 1.570312 -0.949219 L 1.570312 -10.0625 C 1.585938 -10.046875 1.601562 -10.03125 1.617188 -9.996094 L 7.875 -0.09375 C 7.921875 -0.03125 7.984375 0.015625 8.066406 0.015625 L 9.539062 0.015625 C 9.664062 0.015625 9.777344 -0.09375 9.777344 -0.222656 L 9.777344 -10.125 C 9.777344 -10.410156 9.996094 -10.632812 10.28125 -10.632812 C 10.410156 -10.632812 10.503906 -10.726562 10.503906 -10.851562 C 10.503906 -10.980469 10.410156 -11.089844 10.28125 -11.089844 Z M 10.28125 -11.089844 "
        />
      </g>
    </g>
  </g>
  <g fill="#000000" fill-opacity="1">
    <g transform="translate(212.747177, 226.30964)">
      <g>
        <path
          d="M 5.417969 -6.289062 C 5.417969 -6.003906 5.195312 -5.78125 4.910156 -5.78125 C 4.785156 -5.78125 4.691406 -5.671875 4.691406 -5.546875 C 4.691406 -5.417969 4.785156 -5.324219 4.910156 -5.324219 C 5.195312 -5.324219 5.417969 -5.085938 5.417969 -4.816406 C 5.417969 -4.691406 5.515625 -4.578125 5.640625 -4.578125 C 5.765625 -4.578125 5.878906 -4.691406 5.878906 -4.816406 L 5.878906 -6.289062 C 5.878906 -6.417969 5.765625 -6.511719 5.640625 -6.511719 C 5.515625 -6.511719 5.417969 -6.417969 5.417969 -6.289062 Z M 8.523438 -8.300781 C 8.523438 -8.175781 8.621094 -8.082031 8.746094 -8.082031 C 8.871094 -8.082031 8.96875 -8.175781 8.96875 -8.300781 L 8.96875 -10.851562 C 8.96875 -10.980469 8.871094 -11.074219 8.746094 -11.074219 L 0.601562 -11.074219 C 0.476562 -11.074219 0.378906 -10.980469 0.378906 -10.851562 C 0.378906 -10.726562 0.476562 -10.632812 0.601562 -10.632812 C 0.886719 -10.632812 1.109375 -10.394531 1.109375 -10.125 L 1.109375 -0.949219 C 1.109375 -0.679688 0.886719 -0.445312 0.601562 -0.445312 C 0.476562 -0.445312 0.378906 -0.347656 0.378906 -0.222656 C 0.378906 -0.09375 0.476562 0.015625 0.601562 0.015625 L 8.746094 0.015625 C 8.871094 0.015625 8.96875 -0.09375 8.96875 -0.222656 L 8.96875 -2.773438 C 8.96875 -2.898438 8.871094 -2.996094 8.746094 -2.996094 C 8.621094 -2.996094 8.523438 -2.898438 8.523438 -2.773438 C 8.523438 -1.488281 7.476562 -0.445312 6.195312 -0.445312 L 3.40625 -0.445312 L 3.40625 -10.632812 L 6.195312 -10.632812 C 7.476562 -10.632812 8.523438 -9.585938 8.523438 -8.300781 Z M 8.523438 -8.300781 "
        />
      </g>
    </g>
  </g>
  <g fill="#000000" fill-opacity="1">
    <g transform="translate(222.142892, 226.30964)">
      <g>
        <path
          d="M 9.523438 -11.074219 L 0.601562 -11.074219 C 0.476562 -11.074219 0.378906 -10.980469 0.378906 -10.851562 L 0.378906 -8.300781 C 0.378906 -8.175781 0.476562 -8.082031 0.601562 -8.082031 C 0.730469 -8.082031 0.824219 -8.175781 0.824219 -8.300781 C 0.824219 -9.585938 1.871094 -10.632812 3.152344 -10.632812 L 3.914062 -10.632812 L 3.914062 -0.949219 C 3.914062 -0.679688 3.675781 -0.445312 3.390625 -0.445312 C 3.28125 -0.445312 3.167969 -0.347656 3.167969 -0.222656 C 3.167969 -0.09375 3.28125 0.015625 3.390625 0.015625 L 6.71875 0.015625 C 6.84375 0.015625 6.941406 -0.09375 6.941406 -0.222656 C 6.941406 -0.347656 6.84375 -0.445312 6.71875 -0.445312 C 6.433594 -0.445312 6.210938 -0.679688 6.210938 -0.949219 L 6.210938 -10.632812 L 6.957031 -10.632812 C 8.238281 -10.632812 9.285156 -9.585938 9.285156 -8.300781 C 9.285156 -8.175781 9.394531 -8.082031 9.523438 -8.082031 C 9.648438 -8.082031 9.746094 -8.175781 9.746094 -8.300781 L 9.746094 -10.851562 C 9.746094 -10.980469 9.632812 -11.074219 9.523438 -11.074219 Z M 9.523438 -11.074219 "
        />
      </g>
    </g>
  </g>
  <g fill="#000000" fill-opacity="1">
    <g transform="translate(232.314994, 226.30964)">
      <g>
        <path
          d="M 9.523438 -11.074219 L 0.601562 -11.074219 C 0.476562 -11.074219 0.378906 -10.980469 0.378906 -10.851562 L 0.378906 -8.300781 C 0.378906 -8.175781 0.476562 -8.082031 0.601562 -8.082031 C 0.730469 -8.082031 0.824219 -8.175781 0.824219 -8.300781 C 0.824219 -9.585938 1.871094 -10.632812 3.152344 -10.632812 L 3.914062 -10.632812 L 3.914062 -0.949219 C 3.914062 -0.679688 3.675781 -0.445312 3.390625 -0.445312 C 3.28125 -0.445312 3.167969 -0.347656 3.167969 -0.222656 C 3.167969 -0.09375 3.28125 0.015625 3.390625 0.015625 L 6.71875 0.015625 C 6.84375 0.015625 6.941406 -0.09375 6.941406 -0.222656 C 6.941406 -0.347656 6.84375 -0.445312 6.71875 -0.445312 C 6.433594 -0.445312 6.210938 -0.679688 6.210938 -0.949219 L 6.210938 -10.632812 L 6.957031 -10.632812 C 8.238281 -10.632812 9.285156 -9.585938 9.285156 -8.300781 C 9.285156 -8.175781 9.394531 -8.082031 9.523438 -8.082031 C 9.648438 -8.082031 9.746094 -8.175781 9.746094 -8.300781 L 9.746094 -10.851562 C 9.746094 -10.980469 9.632812 -11.074219 9.523438 -11.074219 Z M 9.523438 -11.074219 "
        />
      </g>
    </g>
  </g>
  <g fill="#000000" fill-opacity="1">
    <g transform="translate(242.487096, 226.30964)">
      <g>
        <path
          d="M 6.019531 -11.1875 C 2.898438 -11.1875 0.378906 -8.652344 0.378906 -5.53125 C 0.378906 -2.425781 2.898438 0.109375 6.019531 0.109375 C 9.140625 0.109375 11.675781 -2.425781 11.675781 -5.53125 C 11.675781 -8.652344 9.140625 -11.1875 6.019531 -11.1875 Z M 6.019531 -0.347656 C 4.261719 -0.347656 2.820312 -2.675781 2.820312 -5.53125 C 2.820312 -8.398438 4.261719 -10.726562 6.019531 -10.726562 C 7.796875 -10.726562 9.222656 -8.398438 9.222656 -5.53125 C 9.222656 -2.675781 7.796875 -0.347656 6.019531 -0.347656 Z M 6.019531 -0.347656 "
        />
      </g>
    </g>
  </g>
  <g fill="#000000" fill-opacity="1">
    <g transform="translate(254.57637, 226.30964)">
      <g>
        <path
          d="M 8.871094 -7.558594 C 8.761719 -7.605469 8.621094 -7.558594 8.570312 -7.445312 L 6.796875 -3.183594 L 3.851562 -10.203125 C 3.800781 -10.347656 3.800781 -10.457031 3.851562 -10.535156 C 3.898438 -10.617188 3.992188 -10.632812 4.070312 -10.632812 C 4.199219 -10.632812 4.292969 -10.726562 4.292969 -10.851562 C 4.292969 -10.980469 4.199219 -11.089844 4.070312 -11.089844 L 0.601562 -11.089844 C 0.476562 -11.089844 0.378906 -10.980469 0.378906 -10.851562 C 0.378906 -10.726562 0.476562 -10.632812 0.601562 -10.632812 C 0.917969 -10.632812 1.300781 -10.363281 1.441406 -10.03125 L 4.640625 -2.375 L 4.640625 -0.949219 C 4.640625 -0.664062 4.421875 -0.445312 4.136719 -0.445312 C 4.007812 -0.445312 3.914062 -0.347656 3.914062 -0.222656 C 3.914062 -0.09375 4.007812 0.015625 4.136719 0.015625 L 7.445312 0.015625 C 7.574219 0.015625 7.683594 -0.09375 7.683594 -0.222656 C 7.683594 -0.347656 7.574219 -0.445312 7.445312 -0.445312 C 7.175781 -0.445312 6.941406 -0.679688 6.941406 -0.949219 L 6.941406 -2.375 L 7.003906 -2.519531 L 9 -7.257812 C 9.046875 -7.382812 8.984375 -7.511719 8.871094 -7.558594 Z M 10.996094 -11.089844 L 9.523438 -11.089844 C 9.394531 -11.089844 9.285156 -10.980469 9.285156 -10.851562 C 9.285156 -10.726562 9.394531 -10.632812 9.523438 -10.632812 C 9.585938 -10.632812 9.695312 -10.617188 9.746094 -10.535156 C 9.792969 -10.457031 9.792969 -10.347656 9.726562 -10.203125 C 9.679688 -10.09375 9.746094 -9.964844 9.855469 -9.902344 C 9.886719 -9.902344 9.917969 -9.886719 9.949219 -9.886719 C 10.03125 -9.886719 10.125 -9.949219 10.15625 -10.03125 C 10.28125 -10.363281 10.679688 -10.632812 10.996094 -10.632812 C 11.105469 -10.632812 11.21875 -10.726562 11.21875 -10.851562 C 11.21875 -10.980469 11.105469 -11.089844 10.996094 -11.089844 Z M 10.996094 -11.089844 "
        />
      </g>
    </g>
  </g>
  <g fill="#000000" fill-opacity="1">
    <g transform="translate(266.206151, 226.30964)">
      <g>
        <path
          d="M 10.996094 -0.445312 C 10.679688 -0.445312 10.28125 -0.714844 10.15625 -1.046875 L 6.019531 -10.917969 L 6.003906 -10.949219 C 5.972656 -11.027344 5.878906 -11.089844 5.800781 -11.089844 C 5.703125 -11.089844 5.625 -11.027344 5.59375 -10.949219 L 4.578125 -8.554688 C 4.5625 -8.507812 4.5625 -8.445312 4.578125 -8.382812 L 6.117188 -4.738281 C 4.863281 -4.609375 3.722656 -4.054688 2.835938 -3.214844 L 3.914062 -5.765625 C 3.960938 -5.894531 3.898438 -6.019531 3.785156 -6.070312 C 3.675781 -6.117188 3.535156 -6.070312 3.484375 -5.941406 L 1.441406 -1.046875 C 1.300781 -0.714844 0.917969 -0.445312 0.601562 -0.445312 C 0.476562 -0.445312 0.378906 -0.347656 0.378906 -0.222656 C 0.378906 -0.09375 0.476562 0.015625 0.601562 0.015625 L 2.074219 0.015625 C 2.203125 0.015625 2.296875 -0.09375 2.296875 -0.222656 C 2.296875 -0.347656 2.203125 -0.445312 2.074219 -0.445312 C 1.996094 -0.445312 1.902344 -0.460938 1.839844 -0.539062 C 1.789062 -0.617188 1.789062 -0.730469 1.855469 -0.871094 L 2.058594 -1.363281 C 2.851562 -3.042969 4.46875 -4.152344 6.289062 -4.292969 L 7.730469 -0.871094 C 7.796875 -0.730469 7.796875 -0.617188 7.746094 -0.539062 C 7.683594 -0.460938 7.589844 -0.445312 7.511719 -0.445312 C 7.382812 -0.445312 7.289062 -0.347656 7.289062 -0.222656 C 7.289062 -0.09375 7.382812 0.015625 7.511719 0.015625 L 10.996094 0.015625 C 11.105469 0.015625 11.21875 -0.09375 11.21875 -0.222656 C 11.21875 -0.347656 11.105469 -0.445312 10.996094 -0.445312 Z M 10.996094 -0.445312 "
        />
      </g>
    </g>
  </g>
  <g fill="#000000" fill-opacity="1">
    <g transform="translate(277.851787, 226.30964)">
      <g>
        <path
          d="M 9.855469 -5.765625 L 7.273438 -5.765625 C 7.144531 -5.765625 7.050781 -5.65625 7.050781 -5.53125 C 7.050781 -5.417969 7.144531 -5.308594 7.273438 -5.308594 C 7.558594 -5.308594 7.78125 -5.085938 7.78125 -4.800781 L 7.78125 -0.648438 C 7.210938 -0.445312 6.605469 -0.332031 5.972656 -0.347656 C 4.230469 -0.378906 2.820312 -2.695312 2.820312 -5.546875 C 2.820312 -8.398438 4.246094 -10.726562 6.003906 -10.726562 C 6.019531 -10.726562 6.019531 -10.726562 6.019531 -10.726562 C 6.148438 -10.726562 6.242188 -10.835938 6.242188 -10.964844 C 6.242188 -11.089844 6.148438 -11.1875 6.019531 -11.1875 C 6.019531 -11.1875 6.019531 -11.1875 6.003906 -11.1875 C 4.5 -11.1875 3.089844 -10.601562 2.027344 -9.539062 C 0.964844 -8.460938 0.378906 -7.050781 0.378906 -5.546875 C 0.378906 -4.023438 0.964844 -2.613281 2.027344 -1.535156 C 3.074219 -0.507812 4.453125 0.078125 5.925781 0.109375 C 5.925781 0.109375 5.941406 0.109375 5.941406 0.109375 C 5.957031 0.109375 5.957031 0.109375 5.957031 0.109375 C 5.972656 0.109375 5.972656 0.109375 5.972656 0.109375 C 5.988281 0.109375 6.003906 0.109375 6.019531 0.109375 C 6.035156 0.109375 6.035156 0.109375 6.050781 0.109375 C 7.242188 0.109375 8.382812 -0.269531 9.316406 -0.949219 C 9.332031 -0.964844 9.347656 -0.964844 9.363281 -0.980469 C 9.394531 -1.015625 9.441406 -1.046875 9.492188 -1.078125 C 9.523438 -1.109375 9.554688 -1.125 9.601562 -1.15625 C 9.601562 -1.15625 9.601562 -1.171875 9.601562 -1.171875 C 9.746094 -1.285156 9.886719 -1.410156 10.011719 -1.535156 C 10.046875 -1.570312 10.078125 -1.617188 10.078125 -1.664062 C 10.078125 -1.664062 10.078125 -1.679688 10.078125 -1.679688 C 10.078125 -1.695312 10.078125 -1.695312 10.078125 -1.695312 L 10.078125 -5.53125 C 10.078125 -5.65625 9.980469 -5.765625 9.855469 -5.765625 Z M 9.855469 -10.871094 C 9.726562 -10.871094 9.632812 -10.757812 9.632812 -10.632812 C 9.632812 -10.425781 9.460938 -10.25 9.253906 -10.25 C 9.175781 -10.25 9.109375 -10.265625 9.046875 -10.316406 C 9.046875 -10.316406 9.03125 -10.316406 9.03125 -10.316406 C 9 -10.332031 8.96875 -10.347656 8.921875 -10.347656 C 8.792969 -10.347656 8.699219 -10.25 8.699219 -10.125 C 8.699219 -10.09375 8.699219 -10.0625 8.714844 -10.03125 C 8.714844 -10.011719 8.730469 -10.011719 8.730469 -9.996094 C 8.730469 -9.996094 8.746094 -9.980469 8.746094 -9.980469 C 8.746094 -9.980469 8.746094 -9.964844 8.746094 -9.964844 C 8.761719 -9.964844 8.761719 -9.964844 8.761719 -9.964844 C 8.761719 -9.964844 8.761719 -9.949219 8.777344 -9.949219 C 8.777344 -9.949219 8.792969 -9.933594 8.792969 -9.933594 C 9.125 -9.726562 9.425781 -9.492188 9.695312 -9.207031 C 9.746094 -9.175781 9.792969 -9.140625 9.855469 -9.140625 C 9.886719 -9.140625 9.917969 -9.15625 9.949219 -9.15625 C 10.03125 -9.191406 10.078125 -9.285156 10.078125 -9.378906 L 10.078125 -10.632812 C 10.078125 -10.757812 9.980469 -10.871094 9.855469 -10.871094 Z M 9.855469 -10.871094 "
        />
      </g>
    </g>
  </g>
  <g fill="#000000" fill-opacity="1">
    <g transform="translate(288.324926, 226.30964)">
      <g>
        <path
          d="M 5.417969 -6.289062 C 5.417969 -6.003906 5.195312 -5.78125 4.910156 -5.78125 C 4.785156 -5.78125 4.691406 -5.671875 4.691406 -5.546875 C 4.691406 -5.417969 4.785156 -5.324219 4.910156 -5.324219 C 5.195312 -5.324219 5.417969 -5.085938 5.417969 -4.816406 C 5.417969 -4.691406 5.515625 -4.578125 5.640625 -4.578125 C 5.765625 -4.578125 5.878906 -4.691406 5.878906 -4.816406 L 5.878906 -6.289062 C 5.878906 -6.417969 5.765625 -6.511719 5.640625 -6.511719 C 5.515625 -6.511719 5.417969 -6.417969 5.417969 -6.289062 Z M 8.523438 -8.300781 C 8.523438 -8.175781 8.621094 -8.082031 8.746094 -8.082031 C 8.871094 -8.082031 8.96875 -8.175781 8.96875 -8.300781 L 8.96875 -10.851562 C 8.96875 -10.980469 8.871094 -11.074219 8.746094 -11.074219 L 0.601562 -11.074219 C 0.476562 -11.074219 0.378906 -10.980469 0.378906 -10.851562 C 0.378906 -10.726562 0.476562 -10.632812 0.601562 -10.632812 C 0.886719 -10.632812 1.109375 -10.394531 1.109375 -10.125 L 1.109375 -0.949219 C 1.109375 -0.679688 0.886719 -0.445312 0.601562 -0.445312 C 0.476562 -0.445312 0.378906 -0.347656 0.378906 -0.222656 C 0.378906 -0.09375 0.476562 0.015625 0.601562 0.015625 L 8.746094 0.015625 C 8.871094 0.015625 8.96875 -0.09375 8.96875 -0.222656 L 8.96875 -2.773438 C 8.96875 -2.898438 8.871094 -2.996094 8.746094 -2.996094 C 8.621094 -2.996094 8.523438 -2.898438 8.523438 -2.773438 C 8.523438 -1.488281 7.476562 -0.445312 6.195312 -0.445312 L 3.40625 -0.445312 L 3.40625 -10.632812 L 6.195312 -10.632812 C 7.476562 -10.632812 8.523438 -9.585938 8.523438 -8.300781 Z M 8.523438 -8.300781 "
        />
      </g>
    </g>
  </g>
  <g fill="#000000" fill-opacity="1">
    <g transform="translate(297.720642, 226.30964)"><g /></g>
  </g>
  <g fill="#000000" fill-opacity="1">
    <g transform="translate(303.424632, 226.30964)">
      <g>
        <path
          d="M 4.121094 -5.765625 L 0.601562 -5.765625 C 0.476562 -5.765625 0.378906 -5.65625 0.378906 -5.53125 C 0.378906 -5.417969 0.476562 -5.308594 0.601562 -5.308594 L 4.121094 -5.308594 C 4.246094 -5.308594 4.355469 -5.417969 4.355469 -5.53125 C 4.355469 -5.65625 4.246094 -5.765625 4.121094 -5.765625 Z M 4.121094 -5.765625 "
        />
      </g>
    </g>
  </g>
  <g fill="#000000" fill-opacity="1">
    <g transform="translate(308.177945, 226.30964)"><g /></g>
  </g>
  <g fill="#000000" fill-opacity="1">
    <g transform="translate(313.881936, 226.30964)">
      <g>
        <path
          d="M 0.601562 -0.445312 C 0.476562 -0.445312 0.378906 -0.347656 0.378906 -0.222656 C 0.378906 -0.09375 0.476562 0 0.601562 0 L 3.914062 0 C 4.039062 0 4.152344 -0.09375 4.152344 -0.222656 C 4.152344 -0.347656 4.039062 -0.445312 3.914062 -0.445312 C 3.644531 -0.445312 3.40625 -0.679688 3.40625 -0.949219 L 3.40625 -3.042969 L 6.003906 -3.042969 C 8.222656 -3.042969 10.03125 -4.847656 10.03125 -7.066406 C 10.03125 -9.285156 8.222656 -11.074219 6.003906 -11.074219 L 3.183594 -11.074219 C 3.183594 -11.074219 3.183594 -11.089844 3.183594 -11.089844 L 0.601562 -11.089844 C 0.476562 -11.089844 0.378906 -10.980469 0.378906 -10.851562 C 0.378906 -10.726562 0.476562 -10.632812 0.601562 -10.632812 C 0.886719 -10.632812 1.109375 -10.394531 1.109375 -10.125 L 1.109375 -0.949219 C 1.109375 -0.679688 0.886719 -0.445312 0.601562 -0.445312 Z M 3.40625 -10.632812 L 6.003906 -10.632812 C 6.941406 -10.632812 7.730469 -9 7.730469 -7.066406 C 7.730469 -5.132812 6.941406 -3.5 6.003906 -3.5 L 3.40625 -3.5 Z M 3.40625 -10.632812 "
        />
      </g>
    </g>
  </g>
  <g fill="#000000" fill-opacity="1">
    <g transform="translate(324.323383, 226.30964)">
      <g>
        <path
          d="M 10.835938 -0.445312 C 10.503906 -0.445312 10.0625 -0.714844 9.839844 -1.046875 L 8.175781 -3.675781 C 9.316406 -4.421875 10.03125 -5.6875 10.03125 -7.066406 C 10.03125 -9.253906 8.238281 -11.058594 6.050781 -11.074219 C 6.035156 -11.074219 6.019531 -11.089844 6.003906 -11.089844 L 0.601562 -11.089844 C 0.476562 -11.089844 0.378906 -10.980469 0.378906 -10.851562 C 0.378906 -10.726562 0.476562 -10.632812 0.601562 -10.632812 C 0.886719 -10.632812 1.109375 -10.394531 1.109375 -10.125 L 1.109375 -0.949219 C 1.109375 -0.679688 0.886719 -0.445312 0.601562 -0.445312 C 0.476562 -0.445312 0.378906 -0.347656 0.378906 -0.222656 C 0.378906 -0.09375 0.476562 0 0.601562 0 L 3.914062 0 C 4.039062 0 4.152344 -0.09375 4.152344 -0.222656 C 4.152344 -0.347656 4.039062 -0.445312 3.914062 -0.445312 C 3.644531 -0.445312 3.40625 -0.679688 3.40625 -0.949219 L 3.40625 -10.632812 L 6.003906 -10.632812 C 6.019531 -10.632812 6.035156 -10.632812 6.035156 -10.632812 C 6.035156 -10.632812 6.035156 -10.632812 6.050781 -10.632812 C 6.957031 -10.582031 7.730469 -8.953125 7.730469 -7.066406 C 7.730469 -6.117188 7.542969 -5.230469 7.210938 -4.5625 C 7.210938 -4.5625 7.210938 -4.546875 7.210938 -4.546875 C 6.890625 -3.898438 6.464844 -3.515625 6.035156 -3.5 C 6.035156 -3.5 6.019531 -3.5 6.003906 -3.5 L 4.753906 -3.5 C 4.640625 -3.5 4.53125 -3.390625 4.53125 -3.28125 C 4.53125 -3.152344 4.640625 -3.042969 4.753906 -3.042969 L 5.863281 -3.042969 L 7.714844 -0.09375 C 7.765625 -0.03125 7.828125 0.015625 7.90625 0.015625 L 10.835938 0.015625 C 10.964844 0.015625 11.058594 -0.09375 11.058594 -0.222656 C 11.058594 -0.347656 10.964844 -0.445312 10.835938 -0.445312 Z M 10.835938 -0.445312 "
        />
      </g>
    </g>
  </g>
  <g fill="#000000" fill-opacity="1">
    <g transform="translate(335.810563, 226.30964)">
      <g>
        <path
          d="M 6.019531 -11.1875 C 2.898438 -11.1875 0.378906 -8.652344 0.378906 -5.53125 C 0.378906 -2.425781 2.898438 0.109375 6.019531 0.109375 C 9.140625 0.109375 11.675781 -2.425781 11.675781 -5.53125 C 11.675781 -8.652344 9.140625 -11.1875 6.019531 -11.1875 Z M 6.019531 -0.347656 C 4.261719 -0.347656 2.820312 -2.675781 2.820312 -5.53125 C 2.820312 -8.398438 4.261719 -10.726562 6.019531 -10.726562 C 7.796875 -10.726562 9.222656 -8.398438 9.222656 -5.53125 C 9.222656 -2.675781 7.796875 -0.347656 6.019531 -0.347656 Z M 6.019531 -0.347656 "
        />
      </g>
    </g>
  </g>
  <g fill="#000000" fill-opacity="1">
    <g transform="translate(347.899838, 226.30964)">
      <g>
        <path
          d="M 6.003906 -11.074219 L 3.183594 -11.074219 C 3.183594 -11.074219 3.183594 -11.089844 3.183594 -11.089844 L 0.601562 -11.089844 C 0.476562 -11.089844 0.378906 -10.980469 0.378906 -10.851562 C 0.378906 -10.726562 0.476562 -10.632812 0.601562 -10.632812 C 0.886719 -10.632812 1.109375 -10.394531 1.109375 -10.125 L 1.109375 -0.949219 C 1.109375 -0.679688 0.886719 -0.445312 0.601562 -0.445312 C 0.476562 -0.445312 0.378906 -0.347656 0.378906 -0.222656 C 0.378906 -0.09375 0.476562 0 0.601562 0 L 3.914062 0 C 4.039062 0 4.152344 -0.09375 4.152344 -0.222656 C 4.152344 -0.347656 4.039062 -0.445312 3.914062 -0.445312 C 3.644531 -0.445312 3.40625 -0.679688 3.40625 -0.949219 L 3.40625 -10.632812 L 6.003906 -10.632812 C 6.941406 -10.632812 7.730469 -9 7.730469 -7.066406 C 7.730469 -5.132812 6.941406 -3.5 6.003906 -3.5 L 4.785156 -3.5 C 4.660156 -3.5 4.5625 -3.390625 4.5625 -3.28125 C 4.5625 -3.152344 4.660156 -3.042969 4.785156 -3.042969 L 6.003906 -3.042969 C 8.222656 -3.042969 10.03125 -4.847656 10.03125 -7.066406 C 10.03125 -9.285156 8.222656 -11.074219 6.003906 -11.074219 Z M 6.003906 -11.074219 "
        />
      </g>
    </g>
  </g>
  <g fill="#000000" fill-opacity="1">
    <g transform="translate(358.32545, 226.30964)">
      <g>
        <path
          d="M 10.835938 -0.445312 C 10.503906 -0.445312 10.0625 -0.714844 9.839844 -1.046875 L 8.175781 -3.675781 C 9.316406 -4.421875 10.03125 -5.6875 10.03125 -7.066406 C 10.03125 -9.253906 8.238281 -11.058594 6.050781 -11.074219 C 6.035156 -11.074219 6.019531 -11.089844 6.003906 -11.089844 L 0.601562 -11.089844 C 0.476562 -11.089844 0.378906 -10.980469 0.378906 -10.851562 C 0.378906 -10.726562 0.476562 -10.632812 0.601562 -10.632812 C 0.886719 -10.632812 1.109375 -10.394531 1.109375 -10.125 L 1.109375 -0.949219 C 1.109375 -0.679688 0.886719 -0.445312 0.601562 -0.445312 C 0.476562 -0.445312 0.378906 -0.347656 0.378906 -0.222656 C 0.378906 -0.09375 0.476562 0 0.601562 0 L 3.914062 0 C 4.039062 0 4.152344 -0.09375 4.152344 -0.222656 C 4.152344 -0.347656 4.039062 -0.445312 3.914062 -0.445312 C 3.644531 -0.445312 3.40625 -0.679688 3.40625 -0.949219 L 3.40625 -10.632812 L 6.003906 -10.632812 C 6.019531 -10.632812 6.035156 -10.632812 6.035156 -10.632812 C 6.035156 -10.632812 6.035156 -10.632812 6.050781 -10.632812 C 6.957031 -10.582031 7.730469 -8.953125 7.730469 -7.066406 C 7.730469 -6.117188 7.542969 -5.230469 7.210938 -4.5625 C 7.210938 -4.5625 7.210938 -4.546875 7.210938 -4.546875 C 6.890625 -3.898438 6.464844 -3.515625 6.035156 -3.5 C 6.035156 -3.5 6.019531 -3.5 6.003906 -3.5 L 4.753906 -3.5 C 4.640625 -3.5 4.53125 -3.390625 4.53125 -3.28125 C 4.53125 -3.152344 4.640625 -3.042969 4.753906 -3.042969 L 5.863281 -3.042969 L 7.714844 -0.09375 C 7.765625 -0.03125 7.828125 0.015625 7.90625 0.015625 L 10.835938 0.015625 C 10.964844 0.015625 11.058594 -0.09375 11.058594 -0.222656 C 11.058594 -0.347656 10.964844 -0.445312 10.835938 -0.445312 Z M 10.835938 -0.445312 "
        />
      </g>
    </g>
  </g>
  <g fill="#000000" fill-opacity="1">
    <g transform="translate(369.81263, 226.30964)">
      <g>
        <path
          d="M 5.417969 -6.289062 C 5.417969 -6.003906 5.195312 -5.78125 4.910156 -5.78125 C 4.785156 -5.78125 4.691406 -5.671875 4.691406 -5.546875 C 4.691406 -5.417969 4.785156 -5.324219 4.910156 -5.324219 C 5.195312 -5.324219 5.417969 -5.085938 5.417969 -4.816406 C 5.417969 -4.691406 5.515625 -4.578125 5.640625 -4.578125 C 5.765625 -4.578125 5.878906 -4.691406 5.878906 -4.816406 L 5.878906 -6.289062 C 5.878906 -6.417969 5.765625 -6.511719 5.640625 -6.511719 C 5.515625 -6.511719 5.417969 -6.417969 5.417969 -6.289062 Z M 8.523438 -8.300781 C 8.523438 -8.175781 8.621094 -8.082031 8.746094 -8.082031 C 8.871094 -8.082031 8.96875 -8.175781 8.96875 -8.300781 L 8.96875 -10.851562 C 8.96875 -10.980469 8.871094 -11.074219 8.746094 -11.074219 L 0.601562 -11.074219 C 0.476562 -11.074219 0.378906 -10.980469 0.378906 -10.851562 C 0.378906 -10.726562 0.476562 -10.632812 0.601562 -10.632812 C 0.886719 -10.632812 1.109375 -10.394531 1.109375 -10.125 L 1.109375 -0.949219 C 1.109375 -0.679688 0.886719 -0.445312 0.601562 -0.445312 C 0.476562 -0.445312 0.378906 -0.347656 0.378906 -0.222656 C 0.378906 -0.09375 0.476562 0.015625 0.601562 0.015625 L 8.746094 0.015625 C 8.871094 0.015625 8.96875 -0.09375 8.96875 -0.222656 L 8.96875 -2.773438 C 8.96875 -2.898438 8.871094 -2.996094 8.746094 -2.996094 C 8.621094 -2.996094 8.523438 -2.898438 8.523438 -2.773438 C 8.523438 -1.488281 7.476562 -0.445312 6.195312 -0.445312 L 3.40625 -0.445312 L 3.40625 -10.632812 L 6.195312 -10.632812 C 7.476562 -10.632812 8.523438 -9.585938 8.523438 -8.300781 Z M 8.523438 -8.300781 "
        />
      </g>
    </g>
  </g>
  <g fill="#000000" fill-opacity="1">
    <g transform="translate(379.208345, 226.30964)">
      <g>
        <path
          d="M 9.523438 -11.074219 L 0.601562 -11.074219 C 0.476562 -11.074219 0.378906 -10.980469 0.378906 -10.851562 L 0.378906 -8.300781 C 0.378906 -8.175781 0.476562 -8.082031 0.601562 -8.082031 C 0.730469 -8.082031 0.824219 -8.175781 0.824219 -8.300781 C 0.824219 -9.585938 1.871094 -10.632812 3.152344 -10.632812 L 3.914062 -10.632812 L 3.914062 -0.949219 C 3.914062 -0.679688 3.675781 -0.445312 3.390625 -0.445312 C 3.28125 -0.445312 3.167969 -0.347656 3.167969 -0.222656 C 3.167969 -0.09375 3.28125 0.015625 3.390625 0.015625 L 6.71875 0.015625 C 6.84375 0.015625 6.941406 -0.09375 6.941406 -0.222656 C 6.941406 -0.347656 6.84375 -0.445312 6.71875 -0.445312 C 6.433594 -0.445312 6.210938 -0.679688 6.210938 -0.949219 L 6.210938 -10.632812 L 6.957031 -10.632812 C 8.238281 -10.632812 9.285156 -9.585938 9.285156 -8.300781 C 9.285156 -8.175781 9.394531 -8.082031 9.523438 -8.082031 C 9.648438 -8.082031 9.746094 -8.175781 9.746094 -8.300781 L 9.746094 -10.851562 C 9.746094 -10.980469 9.632812 -11.074219 9.523438 -11.074219 Z M 9.523438 -11.074219 "
        />
      </g>
    </g>
  </g>
  <g fill="#000000" fill-opacity="1">
    <g transform="translate(389.380447, 226.30964)">
      <g>
        <path
          d="M 4.515625 -12.515625 L 4.167969 -12.152344 C 4.070312 -12.074219 4.070312 -11.929688 4.167969 -11.835938 C 4.214844 -11.789062 4.261719 -11.773438 4.324219 -11.773438 C 4.390625 -11.773438 4.4375 -11.789062 4.484375 -11.835938 L 5.480469 -12.832031 C 5.941406 -13.277344 5.941406 -14.007812 5.480469 -14.464844 C 5.277344 -14.671875 4.976562 -14.796875 4.675781 -14.796875 C 4.371094 -14.796875 4.070312 -14.671875 3.867188 -14.464844 C 3.40625 -14.007812 3.40625 -13.277344 3.867188 -12.832031 C 4.039062 -12.644531 4.277344 -12.546875 4.515625 -12.515625 Z M 5.417969 -6.289062 C 5.417969 -6.003906 5.195312 -5.78125 4.910156 -5.78125 C 4.785156 -5.78125 4.691406 -5.671875 4.691406 -5.546875 C 4.691406 -5.417969 4.785156 -5.324219 4.910156 -5.324219 C 5.195312 -5.324219 5.417969 -5.101562 5.417969 -4.816406 C 5.417969 -4.691406 5.515625 -4.578125 5.640625 -4.578125 C 5.765625 -4.578125 5.878906 -4.691406 5.878906 -4.816406 L 5.878906 -6.289062 C 5.878906 -6.417969 5.765625 -6.511719 5.640625 -6.511719 C 5.515625 -6.511719 5.417969 -6.417969 5.417969 -6.289062 Z M 8.523438 -8.300781 C 8.523438 -8.175781 8.621094 -8.082031 8.746094 -8.082031 C 8.871094 -8.082031 8.96875 -8.175781 8.96875 -8.300781 L 8.96875 -10.851562 C 8.96875 -10.980469 8.871094 -11.074219 8.746094 -11.074219 L 0.601562 -11.074219 C 0.476562 -11.074219 0.378906 -10.980469 0.378906 -10.851562 C 0.378906 -10.726562 0.476562 -10.632812 0.601562 -10.632812 C 0.886719 -10.632812 1.109375 -10.394531 1.109375 -10.125 L 1.109375 -0.949219 C 1.109375 -0.679688 0.886719 -0.445312 0.601562 -0.445312 C 0.476562 -0.445312 0.378906 -0.347656 0.378906 -0.222656 C 0.378906 -0.09375 0.476562 0.015625 0.601562 0.015625 L 8.746094 0.015625 C 8.871094 0.015625 8.96875 -0.09375 8.96875 -0.222656 L 8.96875 -2.773438 C 8.96875 -2.898438 8.871094 -2.996094 8.746094 -2.996094 C 8.621094 -2.996094 8.523438 -2.898438 8.523438 -2.773438 C 8.523438 -1.488281 7.476562 -0.445312 6.195312 -0.445312 L 3.40625 -0.445312 L 3.40625 -10.632812 L 6.195312 -10.632812 C 7.476562 -10.632812 8.523438 -9.585938 8.523438 -8.300781 Z M 8.523438 -8.300781 "
        />
      </g>
    </g>
  </g>
  <g fill="#000000" fill-opacity="1">
    <g transform="translate(398.769856, 226.30964)"><g /></g>
  </g>
</svg>
