<svg xmlns="http://www.w3.org/2000/svg" xmlns:xlink="http://www.w3.org/1999/xlink" width="793" zoomAndPan="magnify" viewBox="0 0 594.95996 842.24997" height="1122" preserveAspectRatio="xMidYMid meet" version="1.0"><defs><g/><clipPath id="id1"><path d="M 0.246094 93.648438 L 594.675781 93.648438 L 594.675781 688 L 0.246094 688 Z M 0.246094 93.648438 " clip-rule="nonzero"/></clipPath><clipPath id="id2"><path d="M 124 522 L 471 522 L 471 745.769531 L 124 745.769531 Z M 124 522 " clip-rule="nonzero"/></clipPath></defs><g clip-path="url(#id1)"><path fill="#000000" d="M 594.746094 390.6875 C 594.746094 554.691406 461.703125 687.628906 297.574219 687.628906 C 133.445312 687.628906 0.402344 554.691406 0.402344 390.6875 C 0.398438 226.683594 133.445312 93.746094 297.574219 93.746094 C 461.703125 93.738281 594.746094 226.683594 594.746094 390.6875 " fill-opacity="1" fill-rule="nonzero"/></g><path fill="#efb054" d="M 422.859375 373.800781 C 422.859375 373.800781 437.199219 282.402344 429.082031 254.683594 C 429.082031 254.683594 410.253906 218.117188 383.121094 206.148438 L 395.988281 232.621094 C 395.988281 232.621094 355.382812 184.726562 265.179688 196.070312 L 280.941406 209.308594 C 280.941406 209.308594 218.007812 210.859375 182 194.332031 C 182 194.332031 190.757812 219.386719 197.683594 223.167969 C 204.628906 226.949219 181.296875 213.089844 177.515625 201.101562 C 177.515625 201.101562 161.582031 238.953125 171.210938 303.84375 L 164.269531 288.71875 C 164.269531 288.71875 164.269531 347.898438 174.976562 368.734375 C 185.707031 389.550781 223.550781 407.308594 223.550781 407.308594 L 422.859375 373.800781 " fill-opacity="1" fill-rule="nonzero"/><g clip-path="url(#id2)"><path fill="#ffde59" d="M 470.9375 688.441406 C 456.253906 699.410156 440.472656 709.015625 423.804688 717.050781 C 421.269531 718.277344 418.714844 719.449219 416.160156 720.605469 C 379.941406 736.828125 339.828125 745.847656 297.574219 745.847656 C 255.320312 745.847656 215.207031 736.828125 179.007812 720.605469 C 176.417969 719.449219 173.863281 718.277344 171.34375 717.050781 C 154.675781 708.996094 138.894531 699.410156 124.210938 688.441406 C 126.785156 631.039062 157.304688 580.898438 202.511719 551.289062 C 229.816406 533.382812 262.472656 522.984375 297.574219 522.984375 C 302.929688 522.984375 308.226562 523.230469 313.429688 523.703125 C 342.515625 526.328125 369.496094 536.105469 392.640625 551.289062 C 413.453125 564.917969 431.144531 582.902344 444.429688 603.925781 C 460.019531 628.601562 469.539062 657.472656 470.9375 688.441406 " fill-opacity="1" fill-rule="nonzero"/></g><path fill="#fbd5c0" d="M 392.640625 551.289062 C 389.988281 571.3125 381.152344 589.40625 368.078125 603.546875 C 350.554688 622.511719 325.464844 634.40625 297.574219 634.40625 C 252.898438 634.40625 215.359375 603.871094 204.703125 562.539062 C 203.757812 558.871094 203.019531 555.105469 202.511719 551.289062 C 229.816406 533.382812 262.472656 522.984375 297.574219 522.984375 C 302.929688 522.984375 308.226562 523.210938 313.449219 523.703125 C 314.359375 523.777344 315.265625 523.871094 316.15625 523.964844 C 316.722656 524.023438 317.292969 524.078125 317.839844 524.15625 C 318.464844 524.210938 319.089844 524.304688 319.695312 524.382812 C 320.074219 524.421875 320.46875 524.476562 320.847656 524.535156 C 321.398438 524.589844 321.964844 524.683594 322.53125 524.761719 C 322.96875 524.816406 323.402344 524.894531 323.855469 524.949219 C 324.234375 525.007812 324.613281 525.0625 324.992188 525.136719 C 325.636719 525.234375 326.261719 525.347656 326.902344 525.441406 C 329.667969 525.914062 332.410156 526.441406 335.117188 527.046875 L 336.933594 527.445312 C 337.273438 527.539062 337.632812 527.617188 337.972656 527.710938 C 338.617188 527.859375 339.277344 528.011719 339.902344 528.183594 C 340.015625 528.203125 340.113281 528.21875 340.1875 528.238281 C 341 528.445312 341.8125 528.65625 342.609375 528.882812 C 343.480469 529.089844 344.332031 529.335938 345.164062 529.582031 C 346.128906 529.847656 347.074219 530.128906 348.039062 530.414062 C 348.777344 530.640625 349.515625 530.867188 350.253906 531.113281 C 350.726562 531.265625 351.21875 531.414062 351.671875 531.566406 C 352.449219 531.8125 353.222656 532.078125 353.980469 532.34375 C 354.925781 532.664062 355.855469 532.984375 356.78125 533.324219 C 356.859375 533.363281 356.914062 533.382812 356.972656 533.402344 C 357.9375 533.742188 358.882812 534.101562 359.828125 534.460938 C 360.527344 534.742188 361.246094 535.007812 361.964844 535.3125 C 363.839844 536.046875 365.675781 536.824219 367.492188 537.617188 L 369.875 538.695312 C 370.59375 539.015625 371.3125 539.355469 372.03125 539.695312 C 372.695312 540.019531 373.339844 540.320312 373.980469 540.644531 C 374.585938 540.925781 375.175781 541.230469 375.761719 541.53125 C 376.140625 541.71875 376.535156 541.910156 376.914062 542.117188 C 378.484375 542.910156 380.019531 543.742188 381.53125 544.574219 C 382.082031 544.878906 382.648438 545.199219 383.179688 545.5 C 383.539062 545.710938 383.878906 545.898438 384.21875 546.089844 L 385.503906 546.84375 L 386.8125 547.636719 L 387.664062 548.148438 C 388.476562 548.621094 389.269531 549.113281 390.066406 549.625 C 390.9375 550.171875 391.789062 550.71875 392.640625 551.289062 " fill-opacity="1" fill-rule="nonzero"/><path fill="#fbd5c0" d="M 339.828125 475.429688 L 339.828125 558.492188 C 339.828125 579.496094 322.628906 596.703125 301.605469 596.703125 L 293.542969 596.703125 C 272.523438 596.703125 255.339844 579.496094 255.339844 558.492188 L 255.339844 475.429688 C 255.339844 454.425781 272.523438 437.257812 293.542969 437.257812 L 301.605469 437.257812 C 322.628906 437.257812 339.828125 454.425781 339.828125 475.429688 " fill-opacity="1" fill-rule="nonzero"/><path fill="#f8a29e" d="M 339.828125 475.429688 L 339.828125 519.390625 C 327.261719 526.367188 313.941406 530.414062 300.414062 530.414062 C 284.460938 530.414062 269.25 525.988281 255.339844 518.257812 L 255.339844 475.429688 C 255.339844 454.425781 272.523438 437.257812 293.542969 437.257812 L 301.605469 437.257812 C 322.628906 437.257812 339.828125 454.425781 339.828125 475.429688 " fill-opacity="1" fill-rule="nonzero"/><path fill="#fbd5c0" d="M 400.605469 443.402344 C 400.605469 443.402344 420.398438 436.671875 433.039062 414.625 C 446.773438 390.6875 438.148438 375.769531 435.421875 372.535156 C 427.984375 363.707031 416.5 369.378906 414.609375 372.535156 C 412.714844 375.691406 385.316406 425.421875 400.605469 443.402344 " fill-opacity="1" fill-rule="nonzero"/><path fill="#f8a29e" d="M 420 380.382812 C 420 380.382812 432.566406 381.988281 428.15625 399.628906 C 423.726562 417.289062 412.128906 424.265625 396.347656 433.285156 C 380.585938 442.304688 404.238281 383.976562 420 380.382812 " fill-opacity="1" fill-rule="nonzero"/><path fill="#fbd5c0" d="M 199.691406 443.402344 C 199.691406 443.402344 179.898438 436.671875 167.257812 414.625 C 153.5 390.6875 162.128906 375.769531 164.855469 372.535156 C 172.292969 363.707031 183.777344 369.378906 185.667969 372.535156 C 187.5625 375.691406 214.980469 425.421875 199.691406 443.402344 " fill-opacity="1" fill-rule="nonzero"/><path fill="#f8a29e" d="M 180.277344 380.382812 C 180.277344 380.382812 167.730469 381.988281 172.140625 399.628906 C 176.546875 417.289062 188.167969 424.265625 203.929688 433.285156 C 219.710938 442.304688 196.058594 383.976562 180.277344 380.382812 " fill-opacity="1" fill-rule="nonzero"/><path fill="#fbd5c0" d="M 420 368.734375 C 420 296.261719 366.46875 237.5 300.414062 237.5 C 234.375 237.5 180.804688 296.261719 180.804688 368.734375 C 180.804688 441.207031 234.375 516.96875 300.414062 516.96875 C 362.476562 516.96875 420 440.601562 420 368.734375 " fill-opacity="1" fill-rule="nonzero"/><path fill="#efb054" d="M 418.296875 258.144531 L 313.714844 223.167969 L 286.863281 223.167969 L 182.28125 258.144531 L 180.578125 368.734375 C 183.078125 344.117188 204.554688 279.890625 225.367188 290.289062 C 242.265625 298.722656 282.890625 302.179688 297.59375 303.183594 L 297.59375 303.523438 C 297.59375 303.523438 298.558594 303.464844 300.300781 303.371094 C 302.019531 303.464844 303.003906 303.523438 303.003906 303.523438 L 303.003906 303.183594 C 317.6875 302.179688 358.3125 298.722656 375.210938 290.289062 C 396.027344 279.890625 417.503906 344.117188 420 368.734375 L 418.296875 258.144531 " fill-opacity="1" fill-rule="nonzero"/><g fill="#ffde59" fill-opacity="1"><g transform="translate(223.388236, 691.891691)"><g><path d="M 14.042969 -14.410156 L 14.488281 -18.269531 C 13.363281 -18.769531 12.101562 -19.003906 10.789062 -19.003906 C -1.917969 -19.003906 -1.941406 0.0507812 10.789062 0.0507812 C 12.101562 0.0507812 13.753906 -0.261719 14.910156 -0.734375 L 14.410156 -4.621094 C 13.703125 -4.253906 12.417969 -3.78125 10.789062 -3.78125 C 3.359375 -3.78125 3.359375 -15.226562 10.789062 -15.226562 C 12.417969 -15.226562 13.335938 -14.777344 14.042969 -14.410156 Z M 14.042969 -14.410156 "/></g></g></g><g fill="#ffde59" fill-opacity="1"><g transform="translate(239.188263, 691.891691)"><g><path d="M 2.101562 -18.769531 L 2.101562 0 L 11.8125 0 L 11.8125 -3.753906 L 5.855469 -3.753906 L 5.855469 -18.769531 Z M 2.101562 -18.769531 "/></g></g></g><g fill="#ffde59" fill-opacity="1"><g transform="translate(252.127484, 691.891691)"><g><path d="M 11.8125 0 L 11.8125 -3.753906 L 5.855469 -3.753906 L 5.855469 -7.507812 L 10.789062 -7.507812 L 10.789062 -11.261719 L 5.855469 -11.261719 L 5.855469 -15.015625 L 11.496094 -15.015625 L 11.496094 -18.769531 L 2.101562 -18.769531 L 2.101562 0 Z M 11.8125 0 "/></g></g></g><g fill="#ffde59" fill-opacity="1"><g transform="translate(265.355415, 691.891691)"><g><path d="M 0.421875 0 L 4.671875 0 L 5.40625 -2.019531 L 11.628906 -2.019531 L 12.390625 0 L 16.617188 0 L 8.714844 -19.453125 L 8.320312 -19.453125 Z M 6.773438 -5.539062 L 8.53125 -10.421875 L 10.238281 -5.539062 Z M 6.773438 -5.539062 "/></g></g></g><g fill="#ffde59" fill-opacity="1"><g transform="translate(282.493978, 691.891691)"><g><path d="M 5.855469 -10.210938 L 15.355469 0.394531 L 16.355469 0.394531 L 16.355469 -18.742188 L 12.574219 -18.742188 L 12.574219 -8.136719 L 3.097656 -19.164062 L 2.101562 -19.164062 L 2.101562 0 L 5.855469 0 Z M 5.855469 -10.210938 "/></g></g></g><path stroke-linecap="butt" transform="matrix(0.400892, 0, 0, 0.400892, 198.274799, 665.876228)" fill="none" stroke-linejoin="miter" d="M 94.775573 26.042395 L 95.896123 16.425161 C 93.080134 15.177941 89.932852 14.60305 86.6589 14.60305 C 54.971719 14.60305 54.903512 62.124077 86.6589 62.124077 C 89.932852 62.124077 94.054524 61.344565 96.948464 60.165552 L 95.701244 50.470366 C 93.927854 51.386294 90.712365 52.565306 86.6589 52.565306 C 68.125992 52.565306 68.125992 24.015663 86.6589 24.015663 C 90.712365 24.015663 93.02167 25.136212 94.775573 26.042395 Z M 104.402552 15.177941 L 104.402552 61.997407 L 128.625901 61.997407 L 128.625901 52.633513 L 113.756701 52.633513 L 113.756701 15.177941 Z M 160.897716 61.997407 L 160.897716 52.633513 L 146.03826 52.633513 L 146.03826 43.279364 L 158.344813 43.279364 L 158.344813 33.915471 L 146.03826 33.915471 L 146.03826 24.541834 L 160.118204 24.541834 L 160.118204 15.177941 L 136.684111 15.177941 L 136.684111 61.997407 Z M 165.487096 61.997407 L 176.088465 61.997407 L 177.930063 56.959807 L 193.452104 56.959807 L 195.332678 61.997407 L 205.885328 61.997407 L 186.173407 13.482501 L 185.189273 13.482501 Z M 181.330686 48.190292 L 185.715444 36.010411 L 189.963786 48.190292 Z M 221.777638 36.536582 L 245.48456 62.971797 L 247.979 62.971797 L 247.979 15.236404 L 238.546899 15.236404 L 238.546899 41.700851 L 214.908184 14.20355 L 212.433232 14.20355 L 212.433232 61.997407 L 221.777638 61.997407 Z M 221.777638 36.536582 " stroke="#000000" stroke-width="2.455612" stroke-opacity="1" stroke-miterlimit="4"/><g fill="#000000" fill-opacity="1"><g transform="translate(301.622654, 690.596247)"><g><path d="M 6.078125 -1.296875 L 11.109375 -1.296875 C 11.515625 -1.296875 11.863281 -1.351562 12.15625 -1.46875 C 12.445312 -1.582031 12.691406 -1.734375 12.890625 -1.921875 C 13.085938 -2.117188 13.238281 -2.347656 13.34375 -2.609375 C 13.457031 -2.867188 13.535156 -3.144531 13.578125 -3.4375 L 13.75 -4.546875 L 15.109375 -4.546875 L 14.9375 0 L 0.984375 0 L 0.984375 -1.09375 L 1.328125 -1.09375 C 1.609375 -1.09375 1.878906 -1.109375 2.140625 -1.140625 C 2.398438 -1.179688 2.625 -1.257812 2.8125 -1.375 C 3.007812 -1.5 3.164062 -1.675781 3.28125 -1.90625 C 3.394531 -2.144531 3.453125 -2.453125 3.453125 -2.828125 L 3.453125 -15.609375 C 3.453125 -16.015625 3.394531 -16.335938 3.28125 -16.578125 C 3.175781 -16.828125 3.023438 -17.019531 2.828125 -17.15625 C 2.640625 -17.289062 2.414062 -17.378906 2.15625 -17.421875 C 1.894531 -17.460938 1.617188 -17.484375 1.328125 -17.484375 L 0.984375 -17.484375 L 0.984375 -18.578125 L 14.09375 -18.578125 L 14.234375 -14.03125 L 12.875 -14.03125 L 12.75 -15.140625 C 12.71875 -15.429688 12.648438 -15.703125 12.546875 -15.953125 C 12.453125 -16.210938 12.3125 -16.441406 12.125 -16.640625 C 11.945312 -16.835938 11.71875 -16.992188 11.4375 -17.109375 C 11.164062 -17.222656 10.835938 -17.28125 10.453125 -17.28125 L 6.078125 -17.28125 L 6.078125 -10.359375 L 12.359375 -10.359375 L 12.359375 -9.078125 L 6.078125 -9.078125 Z M 6.96875 -20.109375 C 7.164062 -20.347656 7.363281 -20.628906 7.5625 -20.953125 C 7.769531 -21.273438 7.972656 -21.609375 8.171875 -21.953125 C 8.378906 -22.296875 8.570312 -22.640625 8.75 -22.984375 C 8.9375 -23.328125 9.097656 -23.644531 9.234375 -23.9375 L 12.015625 -23.9375 L 12.015625 -23.671875 C 11.847656 -23.441406 11.609375 -23.15625 11.296875 -22.8125 C 10.984375 -22.46875 10.632812 -22.109375 10.25 -21.734375 C 9.875 -21.359375 9.484375 -20.992188 9.078125 -20.640625 C 8.679688 -20.296875 8.304688 -20.003906 7.953125 -19.765625 L 6.96875 -19.765625 Z M 6.96875 -20.109375 "/></g></g></g><g fill="#000000" fill-opacity="1"><g transform="translate(317.830684, 690.596247)"><g><path d="M 0.984375 0 L 0.984375 -1.09375 L 1.328125 -1.09375 C 1.617188 -1.09375 1.894531 -1.113281 2.15625 -1.15625 C 2.414062 -1.195312 2.640625 -1.28125 2.828125 -1.40625 C 3.023438 -1.539062 3.175781 -1.726562 3.28125 -1.96875 C 3.394531 -2.21875 3.453125 -2.546875 3.453125 -2.953125 L 3.453125 -15.609375 C 3.453125 -16.015625 3.394531 -16.335938 3.28125 -16.578125 C 3.175781 -16.828125 3.023438 -17.019531 2.828125 -17.15625 C 2.640625 -17.289062 2.414062 -17.378906 2.15625 -17.421875 C 1.894531 -17.460938 1.617188 -17.484375 1.328125 -17.484375 L 0.984375 -17.484375 L 0.984375 -18.578125 L 8.5625 -18.578125 L 8.5625 -17.484375 L 8.21875 -17.484375 C 7.925781 -17.484375 7.648438 -17.460938 7.390625 -17.421875 C 7.140625 -17.378906 6.914062 -17.296875 6.71875 -17.171875 C 6.519531 -17.046875 6.363281 -16.863281 6.25 -16.625 C 6.132812 -16.394531 6.078125 -16.09375 6.078125 -15.71875 L 6.078125 -1.296875 L 11.21875 -1.296875 C 11.601562 -1.296875 11.929688 -1.363281 12.203125 -1.5 C 12.484375 -1.644531 12.710938 -1.828125 12.890625 -2.046875 C 13.066406 -2.273438 13.203125 -2.523438 13.296875 -2.796875 C 13.398438 -3.078125 13.46875 -3.359375 13.5 -3.640625 L 13.75 -5.59375 L 15.109375 -5.59375 L 14.9375 0 Z M 0.984375 0 "/></g></g></g><g fill="#000000" fill-opacity="1"><g transform="translate(334.038714, 690.596247)"><g><path d="M 0.984375 0 L 0.984375 -1.09375 L 1.328125 -1.09375 C 1.617188 -1.09375 1.894531 -1.113281 2.15625 -1.15625 C 2.414062 -1.195312 2.640625 -1.28125 2.828125 -1.40625 C 3.023438 -1.539062 3.175781 -1.726562 3.28125 -1.96875 C 3.394531 -2.21875 3.453125 -2.546875 3.453125 -2.953125 L 3.453125 -15.609375 C 3.453125 -16.015625 3.394531 -16.335938 3.28125 -16.578125 C 3.175781 -16.828125 3.023438 -17.019531 2.828125 -17.15625 C 2.640625 -17.289062 2.414062 -17.378906 2.15625 -17.421875 C 1.894531 -17.460938 1.617188 -17.484375 1.328125 -17.484375 L 0.984375 -17.484375 L 0.984375 -18.578125 L 8.5625 -18.578125 L 8.5625 -17.484375 L 8.21875 -17.484375 C 7.925781 -17.484375 7.648438 -17.460938 7.390625 -17.421875 C 7.128906 -17.378906 6.898438 -17.289062 6.703125 -17.15625 C 6.515625 -17.019531 6.363281 -16.828125 6.25 -16.578125 C 6.132812 -16.335938 6.078125 -16.015625 6.078125 -15.609375 L 6.078125 -2.953125 C 6.078125 -2.546875 6.132812 -2.21875 6.25 -1.96875 C 6.363281 -1.726562 6.515625 -1.539062 6.703125 -1.40625 C 6.898438 -1.28125 7.128906 -1.195312 7.390625 -1.15625 C 7.648438 -1.113281 7.925781 -1.09375 8.21875 -1.09375 L 8.5625 -1.09375 L 8.5625 0 Z M 0.984375 0 "/></g></g></g><g fill="#000000" fill-opacity="1"><g transform="translate(343.590781, 690.596247)"><g><path d="M 9.265625 -2.953125 C 9.265625 -2.546875 9.320312 -2.21875 9.4375 -1.96875 C 9.550781 -1.726562 9.703125 -1.539062 9.890625 -1.40625 C 10.078125 -1.28125 10.300781 -1.195312 10.5625 -1.15625 C 10.832031 -1.113281 11.109375 -1.09375 11.390625 -1.09375 L 11.984375 -1.09375 L 11.984375 0 L 3.90625 0 L 3.90625 -1.09375 L 4.5 -1.09375 C 4.78125 -1.09375 5.050781 -1.109375 5.3125 -1.140625 C 5.570312 -1.179688 5.796875 -1.257812 5.984375 -1.375 C 6.179688 -1.5 6.335938 -1.675781 6.453125 -1.90625 C 6.566406 -2.144531 6.625 -2.453125 6.625 -2.828125 L 6.625 -17.28125 L 4.140625 -17.28125 C 3.753906 -17.28125 3.429688 -17.222656 3.171875 -17.109375 C 2.921875 -16.992188 2.710938 -16.835938 2.546875 -16.640625 C 2.378906 -16.441406 2.253906 -16.210938 2.171875 -15.953125 C 2.097656 -15.703125 2.039062 -15.429688 2 -15.140625 L 1.875 -14.03125 L 0.515625 -14.03125 L 0.640625 -18.578125 L 15.296875 -18.578125 L 15.421875 -14.03125 L 14.078125 -14.03125 L 13.953125 -15.140625 C 13.910156 -15.429688 13.847656 -15.703125 13.765625 -15.953125 C 13.679688 -16.210938 13.554688 -16.441406 13.390625 -16.640625 C 13.234375 -16.835938 13.023438 -16.992188 12.765625 -17.109375 C 12.503906 -17.222656 12.175781 -17.28125 11.78125 -17.28125 L 9.265625 -17.28125 Z M 9.265625 -2.953125 "/></g></g></g><g fill="#000000" fill-opacity="1"><g transform="translate(359.53207, 690.596247)"><g><path d="M 6.078125 -1.296875 L 11.109375 -1.296875 C 11.515625 -1.296875 11.863281 -1.351562 12.15625 -1.46875 C 12.445312 -1.582031 12.691406 -1.734375 12.890625 -1.921875 C 13.085938 -2.117188 13.238281 -2.347656 13.34375 -2.609375 C 13.457031 -2.867188 13.535156 -3.144531 13.578125 -3.4375 L 13.75 -4.546875 L 15.109375 -4.546875 L 14.9375 0 L 0.984375 0 L 0.984375 -1.09375 L 1.328125 -1.09375 C 1.609375 -1.09375 1.878906 -1.109375 2.140625 -1.140625 C 2.398438 -1.179688 2.625 -1.257812 2.8125 -1.375 C 3.007812 -1.5 3.164062 -1.675781 3.28125 -1.90625 C 3.394531 -2.144531 3.453125 -2.453125 3.453125 -2.828125 L 3.453125 -15.609375 C 3.453125 -16.015625 3.394531 -16.335938 3.28125 -16.578125 C 3.175781 -16.828125 3.023438 -17.019531 2.828125 -17.15625 C 2.640625 -17.289062 2.414062 -17.378906 2.15625 -17.421875 C 1.894531 -17.460938 1.617188 -17.484375 1.328125 -17.484375 L 0.984375 -17.484375 L 0.984375 -18.578125 L 14.09375 -18.578125 L 14.234375 -14.03125 L 12.875 -14.03125 L 12.75 -15.140625 C 12.71875 -15.429688 12.648438 -15.703125 12.546875 -15.953125 C 12.453125 -16.210938 12.3125 -16.441406 12.125 -16.640625 C 11.945312 -16.835938 11.71875 -16.992188 11.4375 -17.109375 C 11.164062 -17.222656 10.835938 -17.28125 10.453125 -17.28125 L 6.078125 -17.28125 L 6.078125 -10.359375 L 12.359375 -10.359375 L 12.359375 -9.078125 L 6.078125 -9.078125 Z M 6.078125 -1.296875 "/></g></g></g><g fill="#000000" fill-opacity="1"><g transform="translate(349.744344, 698.452646)"><g><path d="M 4.554688 -6.144531 C 3.570312 -6.144531 2.707031 -5.84375 2.097656 -5.375 C 1.9375 -5.640625 1.867188 -5.886719 1.84375 -5.992188 C 1.78125 -6.117188 1.304688 -6.011719 1.25 -5.773438 C 1.285156 -5.527344 1.332031 -5.253906 1.558594 -4.855469 C 0.925781 -4.097656 0.597656 -3.109375 0.609375 -2.300781 C 0.632812 -1.121094 1.339844 -0.167969 2.574219 -0.210938 C 3.121094 -0.230469 3.5625 -0.398438 3.808594 -0.652344 C 3.753906 -0.503906 3.621094 0.0625 3.585938 0.195312 C 2.652344 0.28125 1.585938 0.582031 1.445312 1.5 C 1.320312 2.292969 1.964844 2.625 2.792969 2.625 C 4.230469 2.625 4.671875 1.65625 4.933594 0.703125 C 5.753906 0.398438 6.371094 -0.449219 6.960938 -1.464844 C 6.972656 -1.542969 6.644531 -1.808594 6.546875 -1.699219 C 6.109375 -0.941406 5.695312 -0.378906 5.171875 -0.0625 C 5.359375 -0.679688 5.613281 -1.65625 5.808594 -2.46875 C 5.667969 -2.855469 4.554688 -2.792969 4.292969 -2.609375 C 3.914062 -1.488281 3.445312 -1.164062 3.023438 -1.144531 C 2.539062 -1.128906 2.246094 -1.71875 2.246094 -2.363281 C 2.246094 -2.820312 2.34375 -3.304688 2.511719 -3.710938 C 3.65625 -2.925781 5.578125 -2.800781 6.230469 -4.167969 C 6.671875 -5.085938 6.054688 -6.144531 4.554688 -6.144531 Z M 4.285156 -5.199219 C 4.636719 -5.191406 4.839844 -5.007812 4.792969 -4.769531 C 4.671875 -4.132812 3.675781 -4.035156 2.917969 -4.449219 C 3.242188 -4.890625 3.738281 -5.207031 4.285156 -5.199219 Z M 2.757812 1.3125 C 2.910156 1.03125 3.289062 0.90625 3.453125 0.863281 C 3.367188 1.179688 3.277344 1.542969 3.085938 1.664062 C 2.820312 1.832031 2.609375 1.59375 2.757812 1.3125 Z M 2.757812 1.3125 "/></g></g></g><g fill="#000000" fill-opacity="1"><g transform="translate(356.195734, 698.452646)"><g><path d="M 0.40625 -1.296875 C 0.714844 -1.769531 1.046875 -2.457031 1.226562 -3.023438 C 1.4375 -2.917969 1.570312 -2.765625 1.402344 -2.476562 C 0.519531 -0.953125 0.828125 0.0703125 2.105469 0.0976562 C 3.640625 0.132812 4.210938 -0.800781 4.628906 -1.464844 C 4.671875 -1.542969 4.285156 -1.816406 4.210938 -1.710938 C 3.78125 -0.953125 3.128906 -0.644531 2.757812 -0.757812 C 2.476562 -0.847656 2.644531 -1.523438 3.066406 -2.152344 C 3.585938 -2.917969 2.652344 -3.4375 2 -3.976562 C 2.1875 -5.515625 -0.125 -4.742188 0.820312 -3.324219 C 0.589844 -2.574219 0.28125 -2.007812 -0.0195312 -1.515625 C -0.105469 -1.347656 0.308594 -1.128906 0.40625 -1.296875 Z M 0.40625 -1.296875 "/></g></g></g><g fill="#000000" fill-opacity="1"><g transform="translate(360.311578, 698.452646)"><g><path d="M 2.617188 -3.808594 C 1.507812 -3.84375 0.441406 -3.3125 0.125 -1.972656 C -0.210938 -0.546875 0.632812 0.0898438 1.710938 0.0898438 C 2.308594 0.0898438 2.898438 -0.0625 3.367188 -0.40625 C 3.984375 -0.371094 4.785156 -0.289062 5.4375 -1.464844 C 5.480469 -1.542969 5.101562 -1.816406 5.03125 -1.710938 C 4.722656 -1.234375 4.320312 -0.882812 3.878906 -0.933594 C 4.722656 -2.300781 4.167969 -3.761719 2.617188 -3.808594 Z M 2.414062 -2.855469 C 2.707031 -2.847656 2.714844 -2.257812 2.546875 -1.59375 C 2.230469 -1.578125 2.0625 -1.109375 2.257812 -0.960938 C 2.210938 -0.917969 2.078125 -0.847656 1.972656 -0.847656 C 1.648438 -0.847656 1.621094 -1.523438 1.761719 -2.027344 C 1.921875 -2.601562 2.230469 -2.855469 2.414062 -2.855469 Z M 2.414062 -2.855469 "/></g></g></g><g fill="#000000" fill-opacity="1"><g transform="translate(365.238261, 698.452646)"><g><path d="M 2.96875 -3.691406 C 2.847656 -3.179688 2.707031 -2.625 2.539062 -2.078125 C 2.40625 -1.640625 2.035156 -0.890625 1.753906 -0.882812 C 1.5 -0.871094 1.691406 -1.472656 2.257812 -3.488281 C 2.070312 -3.832031 0.882812 -3.90625 0.625 -3.691406 C 0.40625 -2.910156 0.195312 -2.132812 0.0273438 -1.390625 C -0.113281 -0.757812 -0.132812 0.0976562 0.96875 0.0898438 C 1.710938 0.078125 2.230469 -0.253906 2.695312 -0.988281 C 2.539062 -0.210938 2.835938 0.0898438 3.304688 0.0898438 C 4.335938 0.0898438 5.113281 -0.742188 5.507812 -1.464844 C 5.542969 -1.542969 5.191406 -1.816406 5.101562 -1.710938 C 4.792969 -1.191406 4.40625 -0.871094 4.125 -0.882812 C 3.789062 -0.890625 4.378906 -2.511719 4.589844 -3.515625 C 4.335938 -3.886719 3.171875 -3.867188 2.96875 -3.691406 Z M 2.96875 -3.691406 "/></g></g></g><g fill="#000000" fill-opacity="1"><g transform="translate(370.235446, 698.452646)"><g><path d="M 3.5625 -3.808594 C 2.898438 -3.867188 2.449219 -3.507812 2.0625 -3.179688 L 2.175781 -3.515625 C 1.921875 -3.894531 0.765625 -3.859375 0.597656 -3.683594 C -0.0195312 -1.347656 -0.582031 0.828125 -0.976562 2.371094 C -1.058594 2.707031 0.625 2.714844 0.703125 2.398438 C 0.988281 1.285156 1.164062 0.519531 1.347656 -0.132812 C 2.125 0.246094 3.050781 0.0351562 3.550781 -0.398438 C 4.1875 -0.34375 4.996094 -0.433594 5.527344 -1.464844 C 5.570312 -1.542969 5.164062 -1.832031 5.101562 -1.699219 C 4.917969 -1.355469 4.496094 -0.890625 3.929688 -0.917969 C 4.792969 -2.125 4.644531 -3.710938 3.5625 -3.808594 Z M 2.617188 -2.636719 C 2.730469 -2.554688 2.777344 -2.230469 2.546875 -1.578125 C 2.292969 -1.605469 2.089844 -1.199219 2.300781 -0.960938 C 2.019531 -0.75 1.71875 -0.855469 1.570312 -0.960938 C 1.699219 -1.472656 1.84375 -2.019531 1.972656 -2.496094 C 2.300781 -2.742188 2.53125 -2.695312 2.617188 -2.636719 Z M 2.617188 -2.636719 "/></g></g></g></svg>