<svg xmlns="http://www.w3.org/2000/svg" xmlns:xlink="http://www.w3.org/1999/xlink" width="793" zoomAndPan="magnify" viewBox="0 0 594.95996 141.750002" height="188" preserveAspectRatio="xMidYMid meet" version="1.0"><defs><g/></defs><g fill="#ffd428" fill-opacity="1"><g transform="translate(80.876591, 94.897273)"><g><path d="M 40.769531 -41.835938 L 42.0625 -53.035156 C 38.785156 -54.484375 35.128906 -55.171875 31.320312 -55.171875 C -5.5625 -55.171875 -5.640625 0.152344 31.320312 0.152344 C 35.128906 0.152344 39.929688 -0.761719 43.28125 -2.132812 L 41.835938 -13.410156 C 39.777344 -12.34375 36.042969 -10.972656 31.320312 -10.972656 C 9.753906 -10.972656 9.753906 -44.195312 31.320312 -44.195312 C 36.042969 -44.195312 38.710938 -42.902344 40.769531 -41.835938 Z M 40.769531 -41.835938 "/></g></g></g><g fill="#ffd428" fill-opacity="1"><g transform="translate(126.734055, 94.897273)"><g><path d="M 6.097656 -54.484375 L 6.097656 0 L 34.289062 0 L 34.289062 -10.898438 L 16.992188 -10.898438 L 16.992188 -54.484375 Z M 6.097656 -54.484375 "/></g></g></g><g fill="#ffd428" fill-opacity="1"><g transform="translate(164.288382, 94.897273)"><g><path d="M 34.289062 0 L 34.289062 -10.898438 L 16.992188 -10.898438 L 16.992188 -21.792969 L 31.320312 -21.792969 L 31.320312 -32.691406 L 16.992188 -32.691406 L 16.992188 -43.585938 L 33.375 -43.585938 L 33.375 -54.484375 L 6.097656 -54.484375 L 6.097656 0 Z M 34.289062 0 "/></g></g></g><g fill="#ffd428" fill-opacity="1"><g transform="translate(202.680671, 94.897273)"><g><path d="M 1.21875 0 L 13.5625 0 L 15.699219 -5.867188 L 33.757812 -5.867188 L 35.96875 0 L 48.234375 0 L 25.300781 -56.464844 L 24.15625 -56.464844 Z M 19.660156 -16.078125 L 24.765625 -30.253906 L 29.71875 -16.078125 Z M 19.660156 -16.078125 "/></g></g></g><g fill="#ffd428" fill-opacity="1"><g transform="translate(252.42302, 94.897273)"><g><path d="M 16.992188 -29.640625 L 44.578125 1.144531 L 47.472656 1.144531 L 47.472656 -54.40625 L 36.5 -54.40625 L 36.5 -23.621094 L 8.992188 -55.628906 L 6.097656 -55.628906 L 6.097656 0 L 16.992188 0 Z M 16.992188 -29.640625 "/></g></g></g><g fill="#000000" fill-opacity="1"><g transform="translate(306.466299, 91.461207)"><g><path d="M 17.671875 -3.765625 L 32.25 -3.765625 C 33.457031 -3.765625 34.484375 -3.929688 35.328125 -4.265625 C 36.171875 -4.597656 36.875 -5.046875 37.4375 -5.609375 C 38.007812 -6.171875 38.453125 -6.828125 38.765625 -7.578125 C 39.085938 -8.328125 39.3125 -9.125 39.4375 -9.96875 L 39.953125 -13.203125 L 43.90625 -13.203125 L 43.390625 0 L 2.875 0 L 2.875 -3.171875 L 3.84375 -3.171875 C 4.675781 -3.171875 5.46875 -3.222656 6.21875 -3.328125 C 6.96875 -3.441406 7.625 -3.671875 8.1875 -4.015625 C 8.757812 -4.359375 9.207031 -4.867188 9.53125 -5.546875 C 9.863281 -6.222656 10.03125 -7.117188 10.03125 -8.234375 L 10.03125 -45.34375 C 10.03125 -46.519531 9.867188 -47.460938 9.546875 -48.171875 C 9.234375 -48.890625 8.789062 -49.441406 8.21875 -49.828125 C 7.65625 -50.210938 7 -50.460938 6.25 -50.578125 C 5.5 -50.703125 4.695312 -50.765625 3.84375 -50.765625 L 2.875 -50.765625 L 2.875 -53.9375 L 40.953125 -53.9375 L 41.328125 -40.734375 L 37.40625 -40.734375 L 37.046875 -43.984375 C 36.941406 -44.816406 36.75 -45.609375 36.46875 -46.359375 C 36.1875 -47.109375 35.78125 -47.765625 35.25 -48.328125 C 34.71875 -48.898438 34.050781 -49.347656 33.25 -49.671875 C 32.457031 -50.003906 31.492188 -50.171875 30.359375 -50.171875 L 17.671875 -50.171875 L 17.671875 -30.0625 L 35.90625 -30.0625 L 35.90625 -26.375 L 17.671875 -26.375 Z M 20.421875 -58.78125 C 20.992188 -59.5 21.578125 -60.320312 22.171875 -61.25 C 22.773438 -62.1875 23.363281 -63.148438 23.9375 -64.140625 C 24.519531 -65.140625 25.078125 -66.140625 25.609375 -67.140625 C 26.140625 -68.140625 26.601562 -69.054688 27 -69.890625 L 35.078125 -69.890625 L 35.078125 -69.109375 C 34.609375 -68.453125 33.914062 -67.625 33 -66.625 C 32.09375 -65.625 31.085938 -64.582031 29.984375 -63.5 C 28.878906 -62.425781 27.738281 -61.378906 26.5625 -60.359375 C 25.394531 -59.335938 24.304688 -58.476562 23.296875 -57.78125 L 20.421875 -57.78125 Z M 20.421875 -58.78125 "/></g></g></g><g fill="#000000" fill-opacity="1"><g transform="translate(353.536669, 91.461207)"><g><path d="M 2.875 0 L 2.875 -3.171875 L 3.84375 -3.171875 C 4.695312 -3.171875 5.5 -3.234375 6.25 -3.359375 C 7 -3.484375 7.65625 -3.734375 8.21875 -4.109375 C 8.789062 -4.492188 9.234375 -5.039062 9.546875 -5.75 C 9.867188 -6.46875 10.03125 -7.414062 10.03125 -8.59375 L 10.03125 -45.34375 C 10.03125 -46.519531 9.867188 -47.460938 9.546875 -48.171875 C 9.234375 -48.890625 8.789062 -49.441406 8.21875 -49.828125 C 7.65625 -50.210938 7 -50.460938 6.25 -50.578125 C 5.5 -50.703125 4.695312 -50.765625 3.84375 -50.765625 L 2.875 -50.765625 L 2.875 -53.9375 L 24.875 -53.9375 L 24.875 -50.765625 L 23.875 -50.765625 C 23.03125 -50.765625 22.234375 -50.707031 21.484375 -50.59375 C 20.734375 -50.488281 20.078125 -50.25 19.515625 -49.875 C 18.953125 -49.507812 18.503906 -48.988281 18.171875 -48.3125 C 17.835938 -47.632812 17.671875 -46.742188 17.671875 -45.640625 L 17.671875 -3.765625 L 32.578125 -3.765625 C 33.710938 -3.765625 34.675781 -3.96875 35.46875 -4.375 C 36.269531 -4.78125 36.925781 -5.304688 37.4375 -5.953125 C 37.957031 -6.609375 38.359375 -7.34375 38.640625 -8.15625 C 38.929688 -8.96875 39.125 -9.78125 39.21875 -10.59375 L 39.953125 -16.234375 L 43.90625 -16.234375 L 43.390625 0 Z M 2.875 0 "/></g></g></g><g fill="#000000" fill-opacity="1"><g transform="translate(400.607039, 91.461207)"><g><path d="M 2.875 0 L 2.875 -3.171875 L 3.84375 -3.171875 C 4.695312 -3.171875 5.5 -3.234375 6.25 -3.359375 C 7 -3.484375 7.65625 -3.734375 8.21875 -4.109375 C 8.789062 -4.492188 9.234375 -5.039062 9.546875 -5.75 C 9.867188 -6.46875 10.03125 -7.414062 10.03125 -8.59375 L 10.03125 -45.34375 C 10.03125 -46.519531 9.867188 -47.460938 9.546875 -48.171875 C 9.234375 -48.890625 8.789062 -49.441406 8.21875 -49.828125 C 7.65625 -50.210938 7 -50.460938 6.25 -50.578125 C 5.5 -50.703125 4.695312 -50.765625 3.84375 -50.765625 L 2.875 -50.765625 L 2.875 -53.9375 L 24.875 -53.9375 L 24.875 -50.765625 L 23.875 -50.765625 C 23.03125 -50.765625 22.226562 -50.703125 21.46875 -50.578125 C 20.707031 -50.460938 20.050781 -50.210938 19.5 -49.828125 C 18.945312 -49.441406 18.503906 -48.890625 18.171875 -48.171875 C 17.835938 -47.460938 17.671875 -46.519531 17.671875 -45.34375 L 17.671875 -8.59375 C 17.671875 -7.414062 17.835938 -6.46875 18.171875 -5.75 C 18.503906 -5.039062 18.945312 -4.492188 19.5 -4.109375 C 20.050781 -3.734375 20.707031 -3.484375 21.46875 -3.359375 C 22.226562 -3.234375 23.03125 -3.171875 23.875 -3.171875 L 24.875 -3.171875 L 24.875 0 Z M 2.875 0 "/></g></g></g><g fill="#000000" fill-opacity="1"><g transform="translate(428.347571, 91.461207)"><g><path d="M 26.890625 -8.59375 C 26.890625 -7.414062 27.054688 -6.46875 27.390625 -5.75 C 27.722656 -5.039062 28.164062 -4.492188 28.71875 -4.109375 C 29.269531 -3.734375 29.925781 -3.484375 30.6875 -3.359375 C 31.457031 -3.234375 32.257812 -3.171875 33.09375 -3.171875 L 34.828125 -3.171875 L 34.828125 0 L 11.328125 0 L 11.328125 -3.171875 L 13.0625 -3.171875 C 13.894531 -3.171875 14.6875 -3.222656 15.4375 -3.328125 C 16.1875 -3.441406 16.84375 -3.671875 17.40625 -4.015625 C 17.976562 -4.359375 18.429688 -4.867188 18.765625 -5.546875 C 19.097656 -6.222656 19.265625 -7.117188 19.265625 -8.234375 L 19.265625 -50.171875 L 12.03125 -50.171875 C 10.925781 -50.171875 9.992188 -50.003906 9.234375 -49.671875 C 8.484375 -49.347656 7.867188 -48.898438 7.390625 -48.328125 C 6.910156 -47.765625 6.554688 -47.109375 6.328125 -46.359375 C 6.097656 -45.609375 5.929688 -44.816406 5.828125 -43.984375 L 5.421875 -40.734375 L 1.515625 -40.734375 L 1.875 -53.9375 L 44.421875 -53.9375 L 44.796875 -40.734375 L 40.875 -40.734375 L 40.515625 -43.984375 C 40.410156 -44.816406 40.234375 -45.609375 39.984375 -46.359375 C 39.742188 -47.109375 39.390625 -47.765625 38.921875 -48.328125 C 38.453125 -48.898438 37.835938 -49.347656 37.078125 -49.671875 C 36.316406 -50.003906 35.367188 -50.171875 34.234375 -50.171875 L 26.890625 -50.171875 Z M 26.890625 -8.59375 "/></g></g></g><g fill="#000000" fill-opacity="1"><g transform="translate(474.643288, 91.461207)"><g><path d="M 17.671875 -3.765625 L 32.25 -3.765625 C 33.457031 -3.765625 34.484375 -3.929688 35.328125 -4.265625 C 36.171875 -4.597656 36.875 -5.046875 37.4375 -5.609375 C 38.007812 -6.171875 38.453125 -6.828125 38.765625 -7.578125 C 39.085938 -8.328125 39.3125 -9.125 39.4375 -9.96875 L 39.953125 -13.203125 L 43.90625 -13.203125 L 43.390625 0 L 2.875 0 L 2.875 -3.171875 L 3.84375 -3.171875 C 4.675781 -3.171875 5.46875 -3.222656 6.21875 -3.328125 C 6.96875 -3.441406 7.625 -3.671875 8.1875 -4.015625 C 8.757812 -4.359375 9.207031 -4.867188 9.53125 -5.546875 C 9.863281 -6.222656 10.03125 -7.117188 10.03125 -8.234375 L 10.03125 -45.34375 C 10.03125 -46.519531 9.867188 -47.460938 9.546875 -48.171875 C 9.234375 -48.890625 8.789062 -49.441406 8.21875 -49.828125 C 7.65625 -50.210938 7 -50.460938 6.25 -50.578125 C 5.5 -50.703125 4.695312 -50.765625 3.84375 -50.765625 L 2.875 -50.765625 L 2.875 -53.9375 L 40.953125 -53.9375 L 41.328125 -40.734375 L 37.40625 -40.734375 L 37.046875 -43.984375 C 36.941406 -44.816406 36.75 -45.609375 36.46875 -46.359375 C 36.1875 -47.109375 35.78125 -47.765625 35.25 -48.328125 C 34.71875 -48.898438 34.050781 -49.347656 33.25 -49.671875 C 32.457031 -50.003906 31.492188 -50.171875 30.359375 -50.171875 L 17.671875 -50.171875 L 17.671875 -30.0625 L 35.90625 -30.0625 L 35.90625 -26.375 L 17.671875 -26.375 Z M 17.671875 -3.765625 "/></g></g></g><g fill="#000000" fill-opacity="1"><g transform="translate(446.237513, 114.367747)"><g><path d="M 13.234375 -17.839844 C 10.367188 -17.839844 7.859375 -16.96875 6.089844 -15.613281 C 5.632812 -16.382812 5.425781 -17.097656 5.347656 -17.40625 C 5.171875 -17.761719 3.789062 -17.457031 3.632812 -16.765625 C 3.738281 -16.046875 3.863281 -15.253906 4.53125 -14.101562 C 2.6875 -11.902344 1.742188 -9.035156 1.765625 -6.679688 C 1.84375 -3.25 3.890625 -0.484375 7.472656 -0.613281 C 9.0625 -0.664062 10.339844 -1.152344 11.058594 -1.894531 C 10.902344 -1.457031 10.519531 0.179688 10.417969 0.5625 C 7.703125 0.820312 4.605469 1.6875 4.199219 4.351562 C 3.839844 6.65625 5.707031 7.628906 8.113281 7.628906 C 12.285156 7.628906 13.566406 4.8125 14.332031 2.046875 C 16.714844 1.152344 18.503906 -1.304688 20.21875 -4.25 C 20.246094 -4.480469 19.296875 -5.246094 19.015625 -4.941406 C 17.738281 -2.738281 16.535156 -1.101562 15.023438 -0.179688 C 15.5625 -1.972656 16.304688 -4.8125 16.867188 -7.167969 C 16.457031 -8.292969 13.234375 -8.113281 12.464844 -7.574219 C 11.363281 -4.324219 10.007812 -3.378906 8.777344 -3.328125 C 7.371094 -3.277344 6.527344 -4.992188 6.527344 -6.859375 C 6.527344 -8.191406 6.808594 -9.597656 7.292969 -10.777344 C 10.621094 -8.496094 16.203125 -8.140625 18.097656 -12.105469 C 19.375 -14.769531 17.582031 -17.839844 13.234375 -17.839844 Z M 12.4375 -15.101562 C 13.464844 -15.074219 14.050781 -14.539062 13.921875 -13.847656 C 13.566406 -12.003906 10.671875 -11.722656 8.472656 -12.925781 C 9.417969 -14.207031 10.851562 -15.125 12.4375 -15.101562 Z M 8.011719 3.8125 C 8.445312 2.996094 9.546875 2.636719 10.035156 2.507812 C 9.777344 3.429688 9.519531 4.480469 8.957031 4.835938 C 8.191406 5.324219 7.574219 4.632812 8.011719 3.8125 Z M 8.011719 3.8125 "/></g></g></g><g fill="#000000" fill-opacity="1"><g transform="translate(464.973245, 114.367747)"><g><path d="M 1.175781 -3.761719 C 2.074219 -5.144531 3.046875 -7.140625 3.558594 -8.777344 C 4.171875 -8.472656 4.554688 -8.035156 4.070312 -7.191406 C 1.511719 -2.765625 2.40625 0.203125 6.117188 0.28125 C 10.570312 0.382812 12.234375 -2.328125 13.4375 -4.25 C 13.566406 -4.480469 12.4375 -5.273438 12.234375 -4.964844 C 10.980469 -2.765625 9.085938 -1.867188 8.011719 -2.203125 C 7.191406 -2.457031 7.679688 -4.429688 8.90625 -6.246094 C 10.417969 -8.472656 7.703125 -9.980469 5.808594 -11.542969 C 6.347656 -16.023438 -0.359375 -13.769531 2.378906 -9.648438 C 1.714844 -7.472656 0.820312 -5.835938 -0.0507812 -4.402344 C -0.308594 -3.917969 0.894531 -3.277344 1.175781 -3.761719 Z M 1.175781 -3.761719 "/></g></g></g><g fill="#000000" fill-opacity="1"><g transform="translate(476.926227, 114.367747)"><g><path d="M 7.601562 -11.058594 C 4.375 -11.160156 1.28125 -9.625 0.359375 -5.734375 C -0.613281 -1.585938 1.84375 0.257812 4.964844 0.257812 C 6.707031 0.257812 8.421875 -0.179688 9.777344 -1.175781 C 11.570312 -1.074219 13.898438 -0.84375 15.792969 -4.25 C 15.921875 -4.480469 14.820312 -5.273438 14.613281 -4.964844 C 13.71875 -3.582031 12.542969 -2.558594 11.261719 -2.714844 C 13.71875 -6.679688 12.105469 -10.929688 7.601562 -11.058594 Z M 7.011719 -8.292969 C 7.859375 -8.265625 7.882812 -6.550781 7.398438 -4.632812 C 6.476562 -4.582031 5.988281 -3.226562 6.550781 -2.789062 C 6.425781 -2.660156 6.039062 -2.457031 5.734375 -2.457031 C 4.785156 -2.457031 4.710938 -4.429688 5.117188 -5.886719 C 5.578125 -7.550781 6.476562 -8.292969 7.011719 -8.292969 Z M 7.011719 -8.292969 "/></g></g></g><g fill="#000000" fill-opacity="1"><g transform="translate(491.233999, 114.367747)"><g><path d="M 8.625 -10.722656 C 8.265625 -9.238281 7.859375 -7.628906 7.371094 -6.039062 C 6.988281 -4.761719 5.914062 -2.585938 5.09375 -2.558594 C 4.351562 -2.535156 4.914062 -4.273438 6.550781 -10.136719 C 6.015625 -11.132812 2.558594 -11.339844 1.816406 -10.722656 C 1.175781 -8.445312 0.5625 -6.195312 0.078125 -4.042969 C -0.332031 -2.203125 -0.382812 0.28125 2.816406 0.257812 C 4.964844 0.230469 6.476562 -0.742188 7.832031 -2.867188 C 7.371094 -0.613281 8.242188 0.257812 9.597656 0.257812 C 12.59375 0.257812 14.84375 -2.148438 15.996094 -4.25 C 16.097656 -4.480469 15.074219 -5.273438 14.820312 -4.964844 C 13.921875 -3.457031 12.796875 -2.535156 11.976562 -2.558594 C 11.007812 -2.585938 12.722656 -7.292969 13.335938 -10.210938 C 12.59375 -11.289062 9.214844 -11.234375 8.625 -10.722656 Z M 8.625 -10.722656 "/></g></g></g><g fill="#000000" fill-opacity="1"><g transform="translate(505.746517, 114.367747)"><g><path d="M 10.339844 -11.058594 C 8.421875 -11.234375 7.117188 -10.1875 5.988281 -9.238281 L 6.320312 -10.210938 C 5.578125 -11.3125 2.226562 -11.210938 1.742188 -10.699219 C -0.0507812 -3.917969 -1.6875 2.40625 -2.839844 6.886719 C -3.070312 7.859375 1.816406 7.882812 2.046875 6.960938 C 2.867188 3.738281 3.378906 1.511719 3.917969 -0.382812 C 6.167969 0.714844 8.855469 0.101562 10.316406 -1.152344 C 12.15625 -1 14.511719 -1.253906 16.046875 -4.25 C 16.175781 -4.480469 15 -5.324219 14.820312 -4.941406 C 14.28125 -3.941406 13.054688 -2.585938 11.414062 -2.660156 C 13.921875 -6.167969 13.488281 -10.777344 10.339844 -11.058594 Z M 7.601562 -7.652344 C 7.933594 -7.421875 8.0625 -6.476562 7.398438 -4.582031 C 6.65625 -4.660156 6.066406 -3.480469 6.679688 -2.789062 C 5.859375 -2.175781 4.992188 -2.484375 4.554688 -2.789062 C 4.941406 -4.273438 5.347656 -5.859375 5.734375 -7.242188 C 6.679688 -7.960938 7.347656 -7.832031 7.601562 -7.652344 Z M 7.601562 -7.652344 "/></g></g></g></svg>