<svg xmlns="http://www.w3.org/2000/svg" xmlns:xlink="http://www.w3.org/1999/xlink" width="793" zoomAndPan="magnify" viewBox="0 0 594.95996 842.24997" height="1122" preserveAspectRatio="xMidYMid meet" version="1.0"><defs><clipPath id="id1"><path d="M 29.957031 152.804688 L 564.53125 152.804688 L 564.53125 687.378906 L 29.957031 687.378906 Z M 29.957031 152.804688 " clip-rule="nonzero"/></clipPath><clipPath id="id2"><path d="M 4 361.078125 L 594.675781 361.078125 L 594.675781 479.371094 L 4 479.371094 Z M 4 361.078125 " clip-rule="nonzero"/></clipPath><clipPath id="id3"><path d="M 4 361.078125 L 594.675781 361.078125 L 594.675781 479.371094 L 4 479.371094 Z M 4 361.078125 " clip-rule="nonzero"/></clipPath></defs><g clip-path="url(#id1)"><path fill="#000000" d="M 297.242188 152.804688 C 149.625 152.804688 29.957031 272.476562 29.957031 420.09375 C 29.957031 567.710938 149.625 687.378906 297.242188 687.378906 C 444.863281 687.378906 564.53125 567.710938 564.53125 420.09375 C 564.53125 272.476562 444.863281 152.804688 297.242188 152.804688 " fill-opacity="1" fill-rule="nonzero"/></g><g clip-path="url(#id2)"><path fill="#000000" d="M 599.0625 387.878906 L 599.0625 452.546875 C 599.0625 467.328125 587.03125 479.347656 572.25 479.347656 L 31.007812 479.347656 C 16.222656 479.347656 4.195312 467.328125 4.195312 452.546875 L 4.195312 387.878906 C 4.195312 373.101562 16.222656 361.078125 31.007812 361.078125 L 572.25 361.078125 C 587.035156 361.078125 599.0625 373.101562 599.0625 387.878906 Z M 599.0625 387.878906 " fill-opacity="1" fill-rule="nonzero"/></g><path fill="#ffde59" d="M 148.097656 410.558594 C 149.761719 415.0625 150.535156 419.589844 150.378906 424.039062 C 150.238281 428.390625 149.203125 431.96875 147.234375 434.898438 C 147.175781 434.707031 147.113281 434.503906 147.058594 434.292969 C 145.707031 429.5 145.519531 423.882812 146.5 417.585938 C 146.945312 414.65625 147.503906 412.359375 148.097656 410.558594 Z M 254.710938 408.21875 C 252.335938 407.644531 249.613281 407.355469 246.613281 407.355469 C 246.484375 407.355469 246.363281 407.355469 246.242188 407.355469 C 246.238281 407.386719 246.234375 407.417969 246.230469 407.449219 C 246.03125 409.179688 245.882812 411.203125 245.785156 413.507812 C 247.082031 413.433594 248.378906 413.398438 249.675781 413.398438 C 251.730469 413.398438 253.824219 413.488281 255.898438 413.667969 L 256 413.675781 L 256.101562 413.6875 C 259.207031 414.054688 261.9375 415.34375 264.101562 417.429688 C 264.226562 413.777344 264.394531 410.308594 264.609375 407.03125 C 262.601562 408.125 260.476562 408.699219 258.265625 408.699219 C 257.085938 408.699219 255.890625 408.539062 254.710938 408.21875 Z M 307.382812 429.523438 C 308.949219 431.425781 310.398438 433.164062 311.742188 434.757812 C 311.601562 431.628906 311.550781 428.316406 311.597656 424.808594 C 310.339844 426.417969 308.941406 427.996094 307.382812 429.523438 Z M 99.285156 424.515625 C 97.5 421.820312 96.730469 418.789062 97.035156 415.675781 C 96.140625 418.34375 95.523438 420.847656 95.1875 423.171875 C 94.792969 425.761719 94.71875 428.273438 94.960938 430.640625 C 95.214844 433.140625 95.71875 434.648438 96.117188 435.496094 C 96.421875 435.457031 96.84375 435.382812 97.382812 435.242188 C 97.871094 435.109375 98.210938 434.988281 98.441406 434.890625 C 99.753906 432.347656 101.765625 430.363281 104.328125 429.082031 C 102.304688 428.042969 100.59375 426.5 99.285156 424.515625 Z M 62.695312 407.8125 C 62.402344 407.8125 62.101562 407.804688 61.761719 407.78125 C 61.109375 407.738281 60.332031 407.71875 59.449219 407.71875 C 57.222656 407.71875 54.328125 407.855469 50.847656 408.132812 L 50.804688 408.136719 L 50.765625 408.140625 C 49.574219 408.21875 48.476562 408.316406 47.480469 408.433594 C 47.355469 409.621094 47.25 410.914062 47.171875 412.3125 C 49.3125 411.957031 51.320312 411.695312 53.136719 411.53125 C 53.566406 411.492188 53.996094 411.472656 54.425781 411.472656 C 57.613281 411.472656 60.625 412.59375 63.132812 414.71875 C 65.617188 416.816406 67.195312 419.527344 67.75 422.632812 C 67.851562 421.503906 67.964844 420.367188 68.125 419.207031 C 68.859375 414.332031 70.265625 409.167969 72.316406 403.8125 C 72.113281 404.011719 71.914062 404.21875 71.695312 404.410156 C 69.167969 406.636719 66.054688 407.8125 62.695312 407.8125 Z M 118.214844 428.328125 C 117.753906 428.632812 117.285156 428.90625 116.804688 429.152344 C 117.53125 429.53125 118.210938 429.960938 118.84375 430.445312 C 118.777344 429.632812 118.710938 428.820312 118.675781 427.992188 C 118.519531 428.101562 118.375 428.222656 118.214844 428.328125 Z M 441.484375 425.839844 C 441.304688 431.820312 441.511719 435.53125 441.796875 437.828125 C 441.675781 434.804688 441.589844 431.609375 441.539062 428.238281 C 441.519531 427.523438 441.503906 426.714844 441.484375 425.839844 Z M 589.898438 387.878906 L 589.898438 452.546875 C 589.898438 462.277344 581.980469 470.191406 572.25 470.191406 L 31.007812 470.191406 C 21.277344 470.191406 13.355469 462.277344 13.355469 452.546875 L 13.355469 387.878906 C 13.355469 378.148438 21.277344 370.234375 31.007812 370.234375 L 572.25 370.234375 C 581.980469 370.234375 589.898438 378.152344 589.898438 387.878906 Z M 582.707031 385.5 C 581.429688 382.015625 578.980469 379.359375 575.617188 377.808594 C 573.765625 376.960938 571.847656 376.535156 569.910156 376.535156 C 568.328125 376.535156 566.742188 376.820312 565.195312 377.382812 C 561.71875 378.652344 559.0625 381.078125 557.515625 384.402344 C 556.707031 386.113281 555.570312 388.097656 554.140625 390.265625 C 553.15625 391.769531 551.585938 394.035156 549.460938 397.019531 L 549.195312 397.394531 L 549.160156 397.457031 C 549.152344 397.472656 549.140625 397.488281 549.128906 397.503906 C 548.480469 395.148438 548.109375 393.050781 548.03125 391.246094 C 547.90625 387.492188 546.375 384.183594 543.59375 381.675781 C 541.023438 379.367188 537.859375 378.144531 534.441406 378.144531 C 534.226562 378.144531 534.007812 378.148438 533.789062 378.160156 C 530.105469 378.324219 526.84375 379.839844 524.355469 382.546875 C 524.085938 382.839844 523.835938 383.144531 523.597656 383.453125 C 523.089844 382.359375 522.441406 381.320312 521.625 380.351562 C 519.246094 377.539062 516.050781 375.882812 512.382812 375.550781 C 511.945312 375.511719 511.511719 375.496094 511.085938 375.496094 C 507.882812 375.496094 504.878906 376.597656 502.402344 378.691406 C 499.59375 381.058594 497.933594 384.269531 497.601562 387.972656 L 497.046875 394.273438 C 495.480469 391.671875 493.53125 389.3125 491.179688 387.222656 C 484.726562 381.578125 476.226562 378.738281 465.875 378.738281 C 462.699219 378.738281 459.78125 378.984375 457.199219 379.472656 C 454.574219 379.957031 452.132812 380.667969 449.964844 381.589844 C 448.464844 382.148438 447.101562 382.945312 445.890625 383.949219 C 445.226562 382.359375 444.253906 380.894531 442.984375 379.597656 C 440.375 376.933594 437.03125 375.527344 433.316406 375.527344 C 429.625 375.527344 426.28125 376.917969 423.648438 379.542969 C 421.132812 382.058594 419.75 385.203125 419.632812 388.675781 C 419.582031 388.847656 419.480469 389.171875 419.289062 389.6875 C 419.164062 389.976562 419.042969 390.304688 418.917969 390.691406 C 418.65625 391.390625 418.414062 392.058594 418.199219 392.691406 C 417.972656 391.25 417.832031 389.898438 417.777344 388.636719 C 417.664062 385.039062 416.179688 381.765625 413.484375 379.230469 C 410.894531 376.804688 407.652344 375.523438 404.109375 375.523438 C 403.96875 375.523438 403.824219 375.523438 403.679688 375.527344 C 400.800781 375.644531 398.242188 376.554688 396 378.234375 C 394.078125 379.671875 392.632812 381.480469 391.691406 383.621094 C 391.152344 384.414062 390.726562 385.25 390.367188 386.113281 C 390.132812 385.796875 389.890625 385.484375 389.628906 385.1875 C 387.242188 382.476562 384.078125 380.867188 380.484375 380.539062 L 380.417969 380.535156 L 380.355469 380.53125 C 379.082031 380.441406 377.648438 380.394531 376.085938 380.394531 C 373.097656 380.394531 369.472656 380.5625 365.320312 380.890625 C 362.0625 381.140625 359.171875 381.496094 356.738281 381.9375 C 353.007812 382.519531 350.113281 383.355469 347.890625 384.488281 C 345.644531 385.585938 343.746094 387.238281 342.183594 389.347656 C 340.9375 386.035156 338.601562 383.464844 335.394531 381.914062 C 333.503906 381 331.519531 380.535156 329.496094 380.535156 C 327.988281 380.535156 326.46875 380.796875 324.976562 381.308594 C 321.441406 382.523438 318.742188 384.933594 317.167969 388.277344 C 316.734375 389.175781 316.332031 390.167969 315.949219 391.207031 C 315.882812 391.078125 315.820312 390.949219 315.75 390.824219 C 313.65625 387.015625 310.722656 383.730469 307.0625 381.125 C 303.394531 378.523438 299.316406 376.820312 294.933594 376.0625 C 293.269531 375.769531 291.5625 375.617188 289.882812 375.617188 C 286.890625 375.617188 283.90625 376.097656 281.007812 377.046875 C 276.46875 378.535156 272.445312 381.117188 269.046875 384.734375 C 268.71875 385.070312 268.429688 385.425781 268.144531 385.777344 C 266.40625 383.875 264.199219 382.542969 261.621094 381.882812 C 257.203125 380.675781 252.394531 380.0625 247.320312 380.0625 C 247.0625 380.0625 246.800781 380.066406 246.539062 380.066406 L 246.535156 380.066406 C 243.238281 380.066406 240.117188 380.390625 237.335938 381.03125 C 233.152344 381.964844 229.578125 383.65625 226.761719 386.058594 C 225.074219 387.460938 223.625 389.324219 222.511719 391.546875 C 221.882812 392.804688 221.324219 394.210938 220.800781 395.851562 L 220.785156 395.894531 L 220.769531 395.941406 C 220.054688 398.304688 219.542969 401.03125 219.203125 404.273438 C 219.03125 405.609375 218.886719 407.042969 218.769531 408.558594 C 216.40625 406.683594 213.578125 405.683594 210.535156 405.683594 C 210.113281 405.683594 209.683594 405.703125 209.257812 405.742188 C 207.890625 405.847656 205.550781 405.964844 202.375 406.078125 C 199.003906 406.203125 196.59375 406.324219 194.988281 406.449219 C 190.601562 406.757812 186.652344 407.234375 183.28125 407.867188 C 180.765625 408.308594 178.371094 408.898438 176.097656 409.613281 C 175.917969 408.824219 175.765625 408.039062 175.554688 407.253906 C 175.71875 406.226562 175.765625 405.191406 175.699219 404.160156 C 175.300781 399 173.558594 394.363281 170.507812 390.300781 L 170.46875 390.25 L 170.433594 390.203125 C 168.074219 387.179688 164.984375 384.480469 161.253906 382.183594 L 161.15625 382.121094 L 161.0625 382.066406 C 156.875 379.6875 152.632812 378.480469 148.449219 378.480469 C 147.023438 378.480469 145.589844 378.621094 144.191406 378.902344 C 138.722656 379.996094 133.910156 382.992188 129.878906 387.800781 C 127.078125 391.121094 124.792969 395.171875 123.007812 399.875 C 122.742188 398.800781 122.453125 397.75 122.128906 396.730469 C 120.371094 391.457031 117.871094 387.195312 114.675781 384 C 110.367188 379.765625 105.339844 377.636719 99.683594 377.636719 C 98.546875 377.636719 97.371094 377.730469 96.191406 377.910156 C 92.976562 378.355469 89.9375 379.601562 87.15625 381.613281 C 85.160156 383.003906 83.28125 384.765625 81.570312 386.84375 C 79.695312 389.070312 77.941406 391.757812 76.320312 394.839844 C 76.511719 391.226562 75.371094 387.894531 72.984375 385.1875 C 70.601562 382.476562 67.4375 380.867188 63.84375 380.542969 L 63.777344 380.535156 L 63.710938 380.53125 C 62.4375 380.441406 61.003906 380.398438 59.441406 380.398438 C 56.453125 380.398438 52.832031 380.566406 48.679688 380.890625 C 45.421875 381.144531 42.53125 381.5 40.09375 381.941406 C 36.363281 382.523438 33.46875 383.355469 31.25 384.488281 C 28.585938 385.792969 26.378906 387.828125 24.6875 390.535156 C 23.746094 391.996094 22.972656 393.652344 22.324219 395.597656 C 21.527344 398.046875 20.917969 400.953125 20.441406 404.53125 L 20.433594 404.582031 L 20.429688 404.632812 C 19.804688 410.003906 19.578125 416.65625 19.765625 424.414062 C 19.945312 431.234375 20.378906 437.546875 21.054688 443.191406 C 21.371094 446.121094 21.761719 448.539062 22.234375 450.519531 C 22.539062 451.949219 22.890625 453.175781 23.308594 454.265625 C 24.632812 457.625 26.742188 460.160156 29.597656 461.851562 C 30.972656 462.675781 32.554688 463.332031 34.265625 463.785156 L 34.554688 463.859375 L 34.84375 463.910156 C 35.726562 464.058594 36.648438 464.167969 37.648438 464.242188 C 38.378906 464.316406 39.160156 464.355469 39.980469 464.355469 C 40.714844 464.355469 41.5 464.324219 42.320312 464.265625 C 42.9375 464.253906 43.671875 464.222656 44.546875 464.160156 L 44.605469 464.15625 L 44.660156 464.152344 C 45.617188 464.070312 46.246094 464.015625 46.550781 463.996094 C 49.664062 463.992188 52.257812 463.828125 54.46875 463.488281 C 59.042969 462.867188 62.960938 461.40625 66.117188 459.140625 L 66.15625 459.113281 L 66.199219 459.082031 C 69.128906 456.90625 71 453.859375 71.605469 450.265625 C 71.742188 449.445312 71.792969 448.632812 71.789062 447.835938 C 71.816406 447.894531 71.839844 447.957031 71.871094 448.015625 C 75.03125 454.105469 79.5625 458.394531 85.363281 460.824219 C 88.578125 462.171875 92.050781 462.851562 95.695312 462.851562 C 98.496094 462.851562 101.449219 462.445312 104.46875 461.644531 C 108.292969 460.613281 111.640625 459.09375 114.441406 457.132812 C 118.121094 454.578125 120.925781 451.25 122.777344 447.273438 C 123.980469 450.074219 125.417969 452.632812 127.148438 454.84375 C 130.957031 459.667969 135.679688 462.820312 141.214844 464.242188 C 142.9375 464.699219 144.742188 464.941406 146.539062 464.941406 C 149.839844 464.941406 153.132812 464.132812 156.332031 462.546875 C 159.363281 461.097656 162.238281 458.984375 164.890625 456.269531 C 170.023438 450.960938 173.609375 444.730469 175.664062 437.671875 C 175.90625 437.683594 176.144531 437.707031 176.386719 437.707031 C 178.203125 437.707031 180.003906 437.335938 181.75 436.601562 L 181.839844 436.566406 L 181.921875 436.527344 C 184.113281 435.53125 188.46875 434.238281 196.773438 433.707031 L 196.882812 433.699219 C 198.242188 433.589844 200.464844 433.476562 203.476562 433.359375 L 203.523438 433.355469 L 203.566406 433.355469 C 206.957031 433.175781 209.597656 433.023438 211.410156 432.902344 L 211.488281 432.898438 L 211.5625 432.894531 C 214.167969 432.65625 216.539062 431.742188 218.558594 430.226562 C 218.664062 433.136719 218.808594 436.085938 218.996094 439.054688 C 219.371094 444.996094 219.769531 449.257812 220.222656 452.082031 L 220.230469 452.148438 L 220.246094 452.214844 C 220.894531 455.804688 222.796875 458.828125 225.746094 460.957031 C 228.074219 462.640625 230.796875 463.527344 233.617188 463.527344 C 234.382812 463.527344 235.164062 463.464844 235.941406 463.335938 C 239.636719 462.726562 242.722656 460.804688 244.871094 457.769531 C 247.007812 454.757812 247.804688 451.253906 247.175781 447.625 C 246.964844 446.214844 246.730469 443.929688 246.476562 440.808594 C 247.421875 440.742188 248.375 440.707031 249.328125 440.707031 C 250.664062 440.707031 252.03125 440.773438 253.398438 440.902344 C 253.863281 440.945312 254.296875 440.964844 254.722656 440.964844 C 257.886719 440.964844 260.875 439.875 263.371094 437.808594 C 263.59375 437.625 263.796875 437.425781 264.007812 437.234375 C 264.199219 443.265625 264.632812 448.191406 265.332031 452.039062 C 265.992188 455.679688 267.949219 458.714844 270.988281 460.8125 C 273.316406 462.421875 275.894531 463.234375 278.652344 463.234375 C 279.484375 463.234375 280.335938 463.15625 281.179688 463.003906 C 284.820312 462.339844 287.851562 460.390625 289.957031 457.355469 C 290.792969 456.136719 291.421875 454.84375 291.828125 453.496094 C 293.136719 455.03125 294.351562 456.425781 295.46875 457.671875 C 297.894531 460.429688 301.175781 462 304.917969 462.164062 C 305.140625 462.175781 305.359375 462.179688 305.578125 462.179688 C 308.96875 462.179688 312.109375 460.992188 314.664062 458.738281 C 316.21875 457.375 317.382812 455.746094 318.160156 453.929688 C 320.492188 455.632812 323.214844 456.542969 326.058594 456.542969 C 326.691406 456.542969 327.335938 456.5 327.976562 456.414062 C 331.664062 455.921875 334.792969 454.101562 337.019531 451.15625 C 337.609375 450.375 338.097656 449.554688 338.503906 448.703125 C 338.625 449.339844 338.75 449.953125 338.886719 450.519531 C 339.1875 451.953125 339.542969 453.179688 339.960938 454.269531 C 341.285156 457.625 343.390625 460.160156 346.246094 461.851562 C 347.625 462.675781 349.207031 463.332031 350.917969 463.785156 L 351.199219 463.859375 L 351.492188 463.90625 C 352.375 464.054688 353.296875 464.164062 354.296875 464.238281 C 355.023438 464.3125 355.808594 464.351562 356.628906 464.351562 C 357.359375 464.351562 358.148438 464.320312 358.96875 464.261719 C 359.582031 464.253906 360.316406 464.21875 361.195312 464.160156 L 361.3125 464.152344 C 362.265625 464.066406 362.894531 464.015625 363.199219 463.996094 C 366.316406 463.992188 368.90625 463.824219 371.113281 463.488281 C 375.6875 462.867188 379.605469 461.402344 382.765625 459.140625 L 382.804688 459.109375 L 382.847656 459.078125 C 385.777344 456.90625 387.644531 453.855469 388.253906 450.265625 C 388.863281 446.601562 388.042969 443.089844 385.878906 440.09375 C 384.328125 437.949219 382.308594 436.367188 379.949219 435.425781 C 380.472656 434.957031 380.964844 434.441406 381.429688 433.882812 C 383.761719 431.0625 384.851562 427.664062 384.582031 424.054688 C 384.296875 420.355469 382.636719 417.136719 379.78125 414.722656 C 377.269531 412.597656 374.257812 411.476562 371.070312 411.476562 C 370.644531 411.476562 370.210938 411.5 369.785156 411.539062 C 367.964844 411.703125 365.960938 411.964844 363.820312 412.316406 C 363.898438 410.917969 364 409.625 364.128906 408.4375 C 365.125 408.324219 366.222656 408.222656 367.414062 408.144531 L 367.453125 408.144531 L 367.496094 408.140625 C 370.976562 407.863281 373.871094 407.722656 376.097656 407.722656 C 376.976562 407.722656 377.757812 407.746094 378.410156 407.789062 C 378.75 407.808594 379.046875 407.816406 379.34375 407.816406 C 382.703125 407.816406 385.816406 406.640625 388.34375 404.417969 C 388.371094 404.394531 388.390625 404.367188 388.421875 404.34375 C 388.089844 410.269531 387.886719 415.605469 387.816406 420.25 C 387.574219 431.636719 387.945312 442.011719 388.925781 451.050781 C 389.363281 454.816406 391.117188 457.980469 394.007812 460.257812 C 396.453125 462.183594 399.363281 463.199219 402.433594 463.199219 C 402.9375 463.199219 403.449219 463.171875 403.960938 463.121094 C 407.652344 462.734375 410.832031 461.007812 413.152344 458.140625 C 414.582031 456.371094 415.511719 454.375 415.917969 452.230469 C 417.117188 453.683594 418.328125 455.019531 419.550781 456.242188 C 422.179688 458.871094 425.523438 460.261719 429.21875 460.261719 C 432.917969 460.261719 436.261719 458.871094 438.894531 456.238281 C 439.164062 455.972656 439.414062 455.691406 439.648438 455.398438 C 441.039062 453.96875 442.042969 452.304688 442.675781 450.453125 C 443.234375 453.417969 444.742188 456.03125 447.117188 458.078125 C 449.613281 460.230469 452.648438 461.363281 455.902344 461.363281 C 456.289062 461.363281 456.679688 461.347656 457.070312 461.316406 C 458.617188 461.222656 460.097656 460.867188 461.488281 460.25 C 465.714844 459.859375 470.066406 458.421875 474.453125 455.972656 C 477.867188 454.101562 481.226562 451.671875 484.390625 448.78125 C 488.4375 445.074219 491.851562 440.8125 494.609375 436.074219 C 494.617188 436.90625 494.625 437.71875 494.644531 438.492188 L 494.644531 438.535156 L 494.648438 438.578125 C 494.777344 442.105469 495 444.972656 495.328125 447.332031 C 495.558594 448.984375 495.855469 450.425781 496.242188 451.734375 C 496.949219 454.035156 497.910156 455.976562 499.113281 457.574219 C 501.328125 460.621094 504.292969 462.699219 507.925781 463.75 C 509.554688 464.230469 511.300781 464.480469 513.085938 464.480469 C 513.945312 464.480469 514.828125 464.421875 515.707031 464.308594 C 518.898438 463.929688 522.339844 462.800781 525.875 460.964844 C 528.683594 459.488281 531.273438 457.71875 533.59375 455.695312 C 534.808594 454.675781 535.859375 453.613281 536.761719 452.542969 C 537.0625 453.8125 537.453125 455.027344 537.949219 456.152344 C 539.515625 459.609375 542.152344 462.089844 545.605469 463.40625 C 547.21875 464.019531 548.867188 464.328125 550.515625 464.328125 C 552.390625 464.328125 554.242188 463.929688 556.019531 463.144531 C 559.398438 461.652344 561.886719 459.023438 563.210938 455.550781 C 564.417969 452.371094 564.453125 449.089844 563.324219 446 C 563.324219 445.820312 563.332031 445.570312 563.355469 445.234375 L 563.367188 445.039062 L 563.367188 444.84375 C 563.367188 444.832031 563.367188 444.558594 563.433594 443.796875 L 563.441406 443.648438 C 563.570312 441.632812 563.605469 440.0625 563.542969 438.859375 C 563.527344 437.527344 563.375 435.679688 563.058594 433.089844 C 562.949219 432.003906 562.867188 431.152344 562.8125 430.535156 C 562.691406 428.796875 562.753906 428.007812 562.785156 427.765625 C 563.46875 425.804688 564.574219 423.570312 566.070312 421.128906 L 566.117188 421.050781 C 567.140625 419.320312 568.953125 416.671875 571.492188 413.175781 L 572.71875 411.484375 L 572.71875 411.421875 C 574.597656 408.761719 576.007812 406.707031 577.011719 405.164062 C 579.117188 401.980469 580.890625 398.859375 582.269531 395.90625 C 583.820312 392.574219 583.972656 388.976562 582.707031 385.5 Z M 64.78125 433.878906 C 64.316406 434.4375 63.824219 434.953125 63.300781 435.421875 C 65.464844 436.285156 67.320312 437.710938 68.816406 439.589844 C 67.980469 436.15625 67.542969 432.488281 67.515625 428.589844 C 67.007812 430.492188 66.101562 432.28125 64.78125 433.878906 Z M 526.132812 414.261719 C 525.058594 411.683594 524.15625 409.15625 523.398438 406.683594 C 522.992188 411.4375 522.675781 415.800781 522.453125 419.664062 C 522.234375 423.261719 522.078125 426.550781 521.988281 429.496094 C 522.09375 429.445312 522.199219 429.398438 522.308594 429.355469 C 524.027344 428.613281 525.820312 428.234375 527.628906 428.234375 C 529.207031 428.234375 530.785156 428.523438 532.328125 429.085938 L 532.382812 429.105469 L 532.433594 429.125 C 533.554688 429.558594 534.582031 430.125 535.519531 430.792969 C 535.515625 430.714844 535.511719 430.628906 535.503906 430.550781 C 531.890625 426.140625 528.738281 420.660156 526.132812 414.261719 Z M 473.117188 407.707031 C 472.222656 406.917969 470.632812 406.386719 468.53125 406.152344 C 468.578125 409.203125 468.621094 412.847656 468.652344 417.046875 C 468.699219 420.71875 468.742188 423.503906 468.785156 425.632812 C 470.21875 423.851562 471.40625 421.882812 472.382812 419.6875 C 473.832031 416.425781 474.464844 413.460938 474.253906 410.835938 C 474.085938 408.558594 473.359375 407.921875 473.117188 407.707031 Z M 473.117188 407.707031 " fill-opacity="1" fill-rule="nonzero"/><g clip-path="url(#id3)"><path fill="#000000" d="M 572.25 361.078125 L 31.007812 361.078125 C 16.222656 361.078125 4.195312 373.101562 4.195312 387.878906 L 4.195312 452.546875 C 4.195312 467.328125 16.222656 479.347656 31.007812 479.347656 L 572.25 479.347656 C 587.035156 479.347656 599.0625 467.328125 599.0625 452.546875 L 599.0625 387.878906 C 599.0625 373.101562 587.035156 361.078125 572.25 361.078125 Z M 589.898438 452.546875 C 589.898438 462.277344 581.980469 470.191406 572.25 470.191406 L 31.007812 470.191406 C 21.277344 470.191406 13.355469 462.277344 13.355469 452.546875 L 13.355469 387.878906 C 13.355469 378.148438 21.277344 370.234375 31.007812 370.234375 L 572.25 370.234375 C 581.980469 370.234375 589.898438 378.148438 589.898438 387.878906 Z M 589.898438 452.546875 " fill-opacity="1" fill-rule="nonzero"/></g><path fill="#159633" d="M 582.707031 385.5 C 581.429688 382.015625 578.980469 379.359375 575.617188 377.808594 C 573.765625 376.960938 571.847656 376.535156 569.910156 376.535156 C 568.328125 376.535156 566.742188 376.820312 565.195312 377.382812 C 561.71875 378.652344 559.0625 381.078125 557.515625 384.402344 C 556.707031 386.113281 555.570312 388.097656 554.140625 390.265625 C 553.15625 391.769531 551.585938 394.035156 549.460938 397.019531 L 549.195312 397.394531 L 549.160156 397.457031 C 549.152344 397.472656 549.140625 397.488281 549.128906 397.503906 C 548.480469 395.148438 548.109375 393.050781 548.03125 391.246094 C 547.90625 387.492188 546.375 384.183594 543.59375 381.675781 C 541.023438 379.367188 537.859375 378.144531 534.441406 378.144531 C 534.226562 378.144531 534.007812 378.148438 533.789062 378.160156 C 530.105469 378.324219 526.84375 379.839844 524.355469 382.546875 C 524.085938 382.839844 523.835938 383.144531 523.597656 383.453125 C 523.089844 382.359375 522.441406 381.320312 521.625 380.351562 C 519.246094 377.539062 516.050781 375.882812 512.382812 375.550781 C 511.945312 375.511719 511.511719 375.496094 511.085938 375.496094 C 507.882812 375.496094 504.878906 376.597656 502.402344 378.691406 C 499.59375 381.058594 497.933594 384.269531 497.601562 387.972656 L 497.046875 394.273438 C 495.480469 391.671875 493.53125 389.3125 491.179688 387.222656 C 484.726562 381.578125 476.226562 378.738281 465.875 378.738281 C 462.699219 378.738281 459.78125 378.984375 457.199219 379.472656 C 454.574219 379.957031 452.132812 380.667969 449.964844 381.589844 C 448.464844 382.148438 447.101562 382.945312 445.890625 383.949219 C 445.226562 382.359375 444.253906 380.894531 442.984375 379.597656 C 440.375 376.933594 437.03125 375.527344 433.316406 375.527344 C 429.625 375.527344 426.28125 376.917969 423.648438 379.542969 C 421.132812 382.058594 419.75 385.203125 419.632812 388.675781 C 419.582031 388.847656 419.480469 389.171875 419.289062 389.6875 C 419.164062 389.976562 419.042969 390.304688 418.917969 390.691406 C 418.65625 391.390625 418.414062 392.058594 418.199219 392.691406 C 417.972656 391.25 417.832031 389.898438 417.777344 388.636719 C 417.664062 385.039062 416.179688 381.765625 413.484375 379.230469 C 410.894531 376.804688 407.652344 375.523438 404.109375 375.523438 C 403.96875 375.523438 403.824219 375.523438 403.679688 375.527344 C 400.800781 375.644531 398.242188 376.554688 396 378.234375 C 394.078125 379.671875 392.632812 381.480469 391.691406 383.621094 C 391.152344 384.414062 390.726562 385.25 390.367188 386.113281 C 390.132812 385.796875 389.890625 385.484375 389.628906 385.1875 C 387.242188 382.476562 384.078125 380.867188 380.484375 380.539062 L 380.417969 380.535156 L 380.355469 380.53125 C 379.082031 380.441406 377.648438 380.394531 376.085938 380.394531 C 373.097656 380.394531 369.472656 380.5625 365.320312 380.890625 C 362.0625 381.140625 359.171875 381.496094 356.738281 381.9375 C 353.007812 382.519531 350.113281 383.355469 347.890625 384.488281 C 345.644531 385.585938 343.746094 387.238281 342.183594 389.347656 C 340.9375 386.035156 338.601562 383.464844 335.394531 381.914062 C 333.503906 381 331.519531 380.535156 329.496094 380.535156 C 327.988281 380.535156 326.46875 380.796875 324.976562 381.308594 C 321.441406 382.523438 318.742188 384.933594 317.167969 388.277344 C 316.734375 389.175781 316.332031 390.167969 315.949219 391.207031 C 315.882812 391.078125 315.820312 390.949219 315.75 390.824219 C 313.65625 387.015625 310.722656 383.730469 307.0625 381.125 C 303.394531 378.523438 299.316406 376.820312 294.933594 376.0625 C 293.269531 375.769531 291.5625 375.617188 289.882812 375.617188 C 286.890625 375.617188 283.90625 376.097656 281.007812 377.046875 C 276.46875 378.535156 272.445312 381.117188 269.046875 384.734375 C 268.71875 385.070312 268.429688 385.425781 268.144531 385.777344 C 266.40625 383.875 264.199219 382.542969 261.621094 381.882812 C 257.203125 380.675781 252.394531 380.0625 247.320312 380.0625 C 247.0625 380.0625 246.800781 380.066406 246.539062 380.066406 L 246.535156 380.066406 C 243.238281 380.066406 240.117188 380.390625 237.335938 381.03125 C 233.152344 381.964844 229.578125 383.65625 226.761719 386.058594 C 225.074219 387.460938 223.625 389.324219 222.511719 391.546875 C 221.882812 392.804688 221.324219 394.210938 220.800781 395.851562 L 220.785156 395.894531 L 220.769531 395.941406 C 220.054688 398.304688 219.542969 401.03125 219.203125 404.273438 C 219.03125 405.609375 218.886719 407.042969 218.769531 408.558594 C 216.40625 406.683594 213.578125 405.683594 210.535156 405.683594 C 210.113281 405.683594 209.683594 405.703125 209.257812 405.742188 C 207.890625 405.847656 205.550781 405.964844 202.375 406.078125 C 199.003906 406.203125 196.59375 406.324219 194.988281 406.449219 C 190.601562 406.757812 186.652344 407.234375 183.28125 407.867188 C 180.765625 408.308594 178.371094 408.898438 176.097656 409.613281 C 175.917969 408.824219 175.765625 408.039062 175.554688 407.253906 C 175.71875 406.226562 175.765625 405.191406 175.699219 404.160156 C 175.300781 399 173.558594 394.363281 170.507812 390.300781 L 170.46875 390.25 L 170.433594 390.203125 C 168.074219 387.179688 164.984375 384.480469 161.253906 382.183594 L 161.15625 382.121094 L 161.0625 382.066406 C 156.875 379.6875 152.632812 378.480469 148.449219 378.480469 C 147.023438 378.480469 145.589844 378.621094 144.191406 378.902344 C 138.722656 379.996094 133.910156 382.992188 129.878906 387.800781 C 127.078125 391.121094 124.792969 395.171875 123.007812 399.875 C 122.742188 398.800781 122.453125 397.75 122.128906 396.730469 C 120.371094 391.457031 117.871094 387.195312 114.675781 384 C 110.367188 379.765625 105.339844 377.636719 99.683594 377.636719 C 98.546875 377.636719 97.371094 377.730469 96.191406 377.910156 C 92.976562 378.355469 89.9375 379.601562 87.15625 381.613281 C 85.160156 383.003906 83.28125 384.765625 81.570312 386.84375 C 79.695312 389.070312 77.941406 391.757812 76.320312 394.839844 C 76.511719 391.226562 75.371094 387.894531 72.984375 385.1875 C 70.601562 382.476562 67.4375 380.867188 63.84375 380.542969 L 63.777344 380.535156 L 63.710938 380.53125 C 62.4375 380.441406 61.003906 380.398438 59.441406 380.398438 C 56.453125 380.398438 52.832031 380.566406 48.679688 380.890625 C 45.421875 381.144531 42.53125 381.5 40.09375 381.941406 C 36.363281 382.523438 33.46875 383.355469 31.25 384.488281 C 28.585938 385.792969 26.378906 387.828125 24.6875 390.535156 C 23.746094 391.996094 22.972656 393.652344 22.324219 395.597656 C 21.527344 398.046875 20.917969 400.953125 20.441406 404.53125 L 20.433594 404.582031 L 20.429688 404.632812 C 19.804688 410.003906 19.578125 416.65625 19.765625 424.414062 C 19.945312 431.234375 20.378906 437.546875 21.054688 443.191406 C 21.371094 446.121094 21.761719 448.539062 22.234375 450.519531 C 22.539062 451.949219 22.890625 453.175781 23.308594 454.265625 C 24.632812 457.625 26.742188 460.160156 29.597656 461.851562 C 30.972656 462.675781 32.554688 463.332031 34.265625 463.785156 L 34.554688 463.859375 L 34.84375 463.910156 C 35.726562 464.058594 36.648438 464.167969 37.648438 464.242188 C 38.378906 464.316406 39.160156 464.355469 39.980469 464.355469 C 40.714844 464.355469 41.5 464.324219 42.320312 464.265625 C 42.9375 464.253906 43.671875 464.222656 44.546875 464.160156 L 44.605469 464.15625 L 44.660156 464.152344 C 45.617188 464.070312 46.246094 464.015625 46.550781 463.996094 C 49.664062 463.992188 52.257812 463.828125 54.46875 463.488281 C 59.042969 462.867188 62.960938 461.40625 66.117188 459.140625 L 66.15625 459.113281 L 66.199219 459.082031 C 69.128906 456.90625 71 453.859375 71.605469 450.265625 C 71.742188 449.445312 71.792969 448.632812 71.789062 447.835938 C 71.816406 447.894531 71.839844 447.957031 71.871094 448.015625 C 75.03125 454.105469 79.5625 458.394531 85.363281 460.824219 C 88.578125 462.171875 92.050781 462.851562 95.695312 462.851562 C 98.496094 462.851562 101.449219 462.445312 104.46875 461.644531 C 108.292969 460.613281 111.640625 459.09375 114.441406 457.132812 C 118.121094 454.578125 120.925781 451.25 122.777344 447.273438 C 123.980469 450.074219 125.417969 452.632812 127.148438 454.84375 C 130.957031 459.667969 135.679688 462.820312 141.214844 464.242188 C 142.9375 464.699219 144.742188 464.941406 146.539062 464.941406 C 149.839844 464.941406 153.132812 464.132812 156.332031 462.546875 C 159.363281 461.097656 162.238281 458.984375 164.890625 456.269531 C 170.023438 450.960938 173.609375 444.730469 175.664062 437.671875 C 175.90625 437.683594 176.144531 437.707031 176.386719 437.707031 C 178.203125 437.707031 180.003906 437.335938 181.75 436.601562 L 181.839844 436.566406 L 181.921875 436.527344 C 184.113281 435.53125 188.46875 434.238281 196.773438 433.707031 L 196.882812 433.699219 C 198.242188 433.589844 200.464844 433.476562 203.476562 433.359375 L 203.523438 433.355469 L 203.566406 433.355469 C 206.957031 433.175781 209.597656 433.023438 211.410156 432.902344 L 211.488281 432.898438 L 211.5625 432.894531 C 214.167969 432.65625 216.539062 431.742188 218.558594 430.226562 C 218.664062 433.136719 218.808594 436.085938 218.996094 439.054688 C 219.371094 444.996094 219.769531 449.257812 220.222656 452.082031 L 220.230469 452.148438 L 220.246094 452.214844 C 220.894531 455.804688 222.796875 458.828125 225.746094 460.957031 C 228.074219 462.640625 230.796875 463.527344 233.617188 463.527344 C 234.382812 463.527344 235.164062 463.464844 235.941406 463.335938 C 239.636719 462.726562 242.722656 460.804688 244.871094 457.769531 C 247.007812 454.757812 247.804688 451.253906 247.175781 447.625 C 246.964844 446.214844 246.730469 443.929688 246.476562 440.808594 C 247.421875 440.742188 248.375 440.707031 249.328125 440.707031 C 250.664062 440.707031 252.03125 440.773438 253.398438 440.902344 C 253.863281 440.945312 254.296875 440.964844 254.722656 440.964844 C 257.886719 440.964844 260.875 439.875 263.371094 437.808594 C 263.59375 437.625 263.796875 437.425781 264.007812 437.234375 C 264.199219 443.265625 264.632812 448.191406 265.332031 452.039062 C 265.992188 455.679688 267.949219 458.714844 270.988281 460.8125 C 273.316406 462.421875 275.894531 463.234375 278.652344 463.234375 C 279.484375 463.234375 280.335938 463.15625 281.179688 463.003906 C 284.820312 462.339844 287.851562 460.390625 289.957031 457.355469 C 290.792969 456.136719 291.421875 454.84375 291.828125 453.496094 C 293.136719 455.03125 294.351562 456.425781 295.46875 457.671875 C 297.894531 460.429688 301.175781 462 304.917969 462.164062 C 305.140625 462.175781 305.359375 462.179688 305.578125 462.179688 C 308.96875 462.179688 312.109375 460.992188 314.664062 458.738281 C 316.21875 457.375 317.382812 455.746094 318.160156 453.929688 C 320.492188 455.632812 323.214844 456.542969 326.058594 456.542969 C 326.691406 456.542969 327.335938 456.5 327.976562 456.414062 C 331.664062 455.921875 334.792969 454.101562 337.019531 451.15625 C 337.609375 450.375 338.097656 449.554688 338.503906 448.703125 C 338.625 449.339844 338.75 449.953125 338.886719 450.519531 C 339.1875 451.953125 339.542969 453.179688 339.960938 454.269531 C 341.285156 457.625 343.390625 460.160156 346.246094 461.851562 C 347.625 462.675781 349.207031 463.332031 350.917969 463.785156 L 351.199219 463.859375 L 351.492188 463.90625 C 352.375 464.054688 353.296875 464.164062 354.296875 464.238281 C 355.023438 464.3125 355.808594 464.351562 356.628906 464.351562 C 357.359375 464.351562 358.148438 464.320312 358.96875 464.261719 C 359.582031 464.253906 360.316406 464.21875 361.195312 464.160156 L 361.3125 464.152344 C 362.265625 464.066406 362.894531 464.015625 363.199219 463.996094 C 366.316406 463.992188 368.90625 463.824219 371.113281 463.488281 C 375.6875 462.867188 379.605469 461.402344 382.765625 459.140625 L 382.804688 459.109375 L 382.847656 459.078125 C 385.777344 456.90625 387.644531 453.855469 388.253906 450.265625 C 388.863281 446.601562 388.042969 443.089844 385.878906 440.09375 C 384.328125 437.949219 382.308594 436.367188 379.949219 435.425781 C 380.472656 434.957031 380.964844 434.441406 381.429688 433.882812 C 383.761719 431.0625 384.851562 427.664062 384.582031 424.054688 C 384.296875 420.355469 382.636719 417.136719 379.78125 414.722656 C 377.269531 412.597656 374.257812 411.476562 371.070312 411.476562 C 370.644531 411.476562 370.210938 411.5 369.785156 411.539062 C 367.964844 411.703125 365.960938 411.964844 363.820312 412.316406 C 363.898438 410.917969 364 409.625 364.128906 408.4375 C 365.125 408.324219 366.222656 408.222656 367.414062 408.144531 L 367.453125 408.144531 L 367.496094 408.140625 C 370.976562 407.863281 373.871094 407.722656 376.097656 407.722656 C 376.976562 407.722656 377.757812 407.746094 378.410156 407.789062 C 378.75 407.808594 379.046875 407.816406 379.34375 407.816406 C 382.703125 407.816406 385.816406 406.640625 388.34375 404.417969 C 388.371094 404.394531 388.390625 404.367188 388.421875 404.34375 C 388.089844 410.269531 387.886719 415.605469 387.816406 420.25 C 387.574219 431.636719 387.945312 442.011719 388.925781 451.050781 C 389.363281 454.816406 391.117188 457.980469 394.007812 460.257812 C 396.453125 462.183594 399.363281 463.199219 402.433594 463.199219 C 402.9375 463.199219 403.449219 463.171875 403.960938 463.121094 C 407.652344 462.734375 410.832031 461.007812 413.152344 458.140625 C 414.582031 456.371094 415.511719 454.375 415.917969 452.230469 C 417.117188 453.683594 418.328125 455.019531 419.550781 456.242188 C 422.179688 458.871094 425.523438 460.261719 429.21875 460.261719 C 432.917969 460.261719 436.261719 458.871094 438.894531 456.238281 C 439.164062 455.972656 439.414062 455.691406 439.648438 455.398438 C 441.039062 453.96875 442.042969 452.304688 442.675781 450.453125 C 443.234375 453.417969 444.742188 456.03125 447.117188 458.078125 C 449.613281 460.230469 452.648438 461.363281 455.902344 461.363281 C 456.289062 461.363281 456.679688 461.347656 457.070312 461.316406 C 458.617188 461.222656 460.097656 460.867188 461.488281 460.25 C 465.714844 459.859375 470.066406 458.421875 474.453125 455.972656 C 477.867188 454.101562 481.226562 451.671875 484.390625 448.78125 C 488.4375 445.074219 491.851562 440.8125 494.609375 436.074219 C 494.617188 436.90625 494.625 437.71875 494.644531 438.492188 L 494.644531 438.535156 L 494.648438 438.578125 C 494.777344 442.105469 495 444.972656 495.328125 447.332031 C 495.558594 448.984375 495.855469 450.425781 496.242188 451.734375 C 496.949219 454.035156 497.910156 455.976562 499.113281 457.574219 C 501.328125 460.621094 504.292969 462.699219 507.925781 463.75 C 509.554688 464.230469 511.300781 464.480469 513.085938 464.480469 C 513.945312 464.480469 514.828125 464.421875 515.707031 464.308594 C 518.898438 463.929688 522.339844 462.800781 525.875 460.964844 C 528.683594 459.488281 531.273438 457.71875 533.59375 455.695312 C 534.808594 454.675781 535.859375 453.613281 536.761719 452.542969 C 537.0625 453.8125 537.453125 455.027344 537.949219 456.152344 C 539.515625 459.609375 542.152344 462.089844 545.605469 463.40625 C 547.21875 464.019531 548.867188 464.328125 550.515625 464.328125 C 552.390625 464.328125 554.242188 463.929688 556.019531 463.144531 C 559.398438 461.652344 561.886719 459.023438 563.210938 455.550781 C 564.417969 452.371094 564.453125 449.089844 563.324219 446 C 563.324219 445.820312 563.332031 445.570312 563.355469 445.234375 L 563.367188 445.039062 L 563.367188 444.84375 C 563.367188 444.832031 563.367188 444.558594 563.433594 443.796875 L 563.441406 443.648438 C 563.570312 441.632812 563.605469 440.0625 563.542969 438.859375 C 563.527344 437.527344 563.375 435.679688 563.058594 433.089844 C 562.949219 432.003906 562.867188 431.152344 562.8125 430.535156 C 562.691406 428.796875 562.753906 428.007812 562.785156 427.765625 C 563.46875 425.804688 564.574219 423.570312 566.070312 421.128906 L 566.117188 421.050781 C 567.140625 419.320312 568.953125 416.671875 571.492188 413.175781 L 572.71875 411.484375 L 572.71875 411.421875 C 574.597656 408.761719 576.007812 406.707031 577.011719 405.164062 C 579.117188 401.980469 580.890625 398.859375 582.269531 395.90625 C 583.820312 392.574219 583.972656 388.976562 582.707031 385.5 Z M 65.261719 449.195312 C 64.933594 451.152344 63.96875 452.726562 62.367188 453.914062 C 60.046875 455.574219 57.109375 456.644531 53.546875 457.121094 C 51.644531 457.414062 49.265625 457.5625 46.417969 457.5625 C 46.242188 457.5625 45.46875 457.625 44.101562 457.742188 C 43.269531 457.800781 42.585938 457.832031 42.054688 457.832031 C 40.566406 457.949219 39.289062 457.949219 38.222656 457.832031 C 37.386719 457.773438 36.617188 457.683594 35.902344 457.5625 C 34.777344 457.265625 33.765625 456.851562 32.871094 456.316406 C 31.269531 455.367188 30.082031 453.910156 29.308594 451.953125 C 29.011719 451.179688 28.746094 450.234375 28.507812 449.105469 C 28.089844 447.382812 27.738281 445.15625 27.4375 442.425781 C 26.785156 436.960938 26.367188 430.90625 26.191406 424.253906 C 26.011719 416.773438 26.21875 410.480469 26.8125 405.375 C 27.230469 402.230469 27.765625 399.644531 28.417969 397.625 C 28.894531 396.203125 29.457031 394.984375 30.113281 393.976562 C 31.179688 392.253906 32.515625 391.007812 34.117188 390.234375 C 35.722656 389.402344 38.070312 388.753906 41.160156 388.277344 C 43.414062 387.863281 46.089844 387.535156 49.175781 387.296875 C 55.171875 386.824219 59.867188 386.703125 63.253906 386.941406 C 65.214844 387.117188 66.847656 387.949219 68.152344 389.433594 C 69.460938 390.921875 70.039062 392.65625 69.894531 394.648438 C 69.746094 396.636719 68.925781 398.285156 67.441406 399.589844 C 65.957031 400.898438 64.203125 401.492188 62.183594 401.371094 C 59.511719 401.191406 55.5625 401.3125 50.332031 401.726562 C 47.660156 401.902344 45.402344 402.171875 43.5625 402.527344 C 42.96875 402.585938 42.433594 402.679688 41.957031 402.796875 C 41.660156 403.863281 41.394531 405.289062 41.160156 407.070312 C 40.742188 410.632812 40.535156 415.027344 40.535156 420.25 C 40.714844 420.191406 40.890625 420.164062 41.070312 420.164062 C 41.128906 420.164062 41.21875 420.132812 41.339844 420.070312 C 43.953125 419.539062 45.914062 419.125 47.21875 418.824219 C 49.59375 418.410156 51.761719 418.113281 53.722656 417.933594 C 55.683594 417.753906 57.4375 418.320312 58.980469 419.625 C 60.523438 420.933594 61.371094 422.566406 61.523438 424.523438 C 61.667969 426.480469 61.105469 428.234375 59.828125 429.777344 C 58.550781 431.324219 56.933594 432.183594 54.972656 432.359375 C 52.65625 432.539062 49.121094 433.132812 44.371094 434.140625 C 44.25 434.203125 44.160156 434.230469 44.101562 434.230469 C 42.914062 434.46875 41.9375 434.675781 41.164062 434.855469 C 41.339844 436.992188 41.546875 438.953125 41.785156 440.734375 C 41.90625 441.683594 42.019531 442.574219 42.140625 443.402344 C 42.378906 443.402344 42.644531 443.375 42.941406 443.316406 C 43.003906 443.316406 43.152344 443.285156 43.386719 443.226562 L 44.636719 443.226562 C 45.347656 443.167969 45.945312 443.136719 46.417969 443.136719 C 48.554688 443.136719 50.25 443.050781 51.5 442.871094 C 52.207031 442.753906 52.804688 442.605469 53.277344 442.425781 C 53.453125 442.367188 53.636719 442.308594 53.8125 442.246094 C 53.871094 442.246094 53.929688 442.21875 53.992188 442.160156 C 55.59375 441.03125 57.375 440.632812 59.335938 440.957031 C 61.296875 441.28125 62.855469 442.246094 64.015625 443.851562 C 65.171875 445.453125 65.589844 447.234375 65.261719 449.195312 Z M 63.300781 435.421875 C 63.824219 434.953125 64.316406 434.4375 64.78125 433.878906 C 66.105469 432.28125 67.007812 430.492188 67.511719 428.589844 C 67.542969 432.488281 67.980469 436.160156 68.8125 439.589844 C 67.320312 437.710938 65.464844 436.285156 63.300781 435.421875 Z M 68.125 419.207031 C 67.964844 420.367188 67.851562 421.503906 67.75 422.632812 C 67.195312 419.527344 65.617188 416.816406 63.132812 414.71875 C 60.625 412.59375 57.613281 411.472656 54.425781 411.472656 C 54 411.472656 53.566406 411.492188 53.136719 411.53125 C 51.320312 411.695312 49.316406 411.957031 47.171875 412.3125 C 47.25 410.914062 47.355469 409.621094 47.480469 408.433594 C 48.476562 408.316406 49.574219 408.21875 50.765625 408.140625 L 50.804688 408.136719 L 50.847656 408.132812 C 54.328125 407.855469 57.222656 407.71875 59.449219 407.71875 C 60.332031 407.71875 61.109375 407.738281 61.761719 407.78125 C 62.105469 407.804688 62.402344 407.8125 62.695312 407.8125 C 66.054688 407.8125 69.167969 406.636719 71.695312 404.410156 C 71.914062 404.21875 72.113281 404.011719 72.316406 403.8125 C 70.265625 409.167969 68.859375 414.332031 68.125 419.207031 Z M 117.164062 444.117188 C 115.796875 447.265625 113.65625 449.847656 110.746094 451.867188 C 108.550781 453.40625 105.90625 454.59375 102.816406 455.425781 C 97.234375 456.910156 92.242188 456.730469 87.847656 454.894531 C 83.453125 453.050781 80.039062 449.785156 77.605469 445.09375 C 74.160156 438.328125 73.121094 430.015625 74.484375 420.160156 C 75.378906 414.222656 77.363281 407.839844 80.449219 401.011719 C 82.292969 396.914062 84.3125 393.5625 86.511719 390.949219 C 87.875 389.289062 89.332031 387.921875 90.878906 386.851562 C 92.835938 385.425781 94.917969 384.566406 97.113281 384.269531 C 102.101562 383.496094 106.4375 384.921875 110.121094 388.542969 C 112.613281 391.039062 114.574219 394.421875 116 398.695312 C 117.007812 401.84375 117.675781 405.273438 118.003906 408.980469 C 118.328125 412.695312 118.226562 415.828125 117.691406 418.378906 C 117.335938 420.335938 116.324219 421.863281 114.664062 422.964844 C 113 424.0625 111.1875 424.417969 109.226562 424.03125 C 107.269531 423.648438 105.738281 422.625 104.640625 420.960938 C 103.539062 419.300781 103.167969 417.519531 103.527344 415.617188 C 103.761719 414.371094 103.792969 412.621094 103.613281 410.359375 C 103.4375 407.746094 102.988281 405.34375 102.28125 403.148438 C 101.566406 401.070312 100.792969 399.617188 99.964844 398.78125 C 99.722656 398.546875 99.546875 398.425781 99.425781 398.425781 C 99.371094 398.484375 99.277344 398.546875 99.160156 398.605469 C 98.683594 398.960938 98.152344 399.46875 97.558594 400.117188 C 96.246094 401.78125 94.914062 404.070312 93.546875 406.976562 C 91.050781 412.558594 89.480469 417.632812 88.828125 422.207031 C 88.347656 425.355469 88.261719 428.382812 88.558594 431.292969 C 88.855469 434.199219 89.480469 436.605469 90.429688 438.503906 C 91.203125 439.988281 92.152344 441 93.277344 441.53125 C 94.644531 442.125 96.578125 442.097656 99.074219 441.445312 C 101.6875 440.730469 103.289062 439.722656 103.882812 438.417969 C 104.65625 436.574219 105.976562 435.285156 107.847656 434.542969 C 109.71875 433.800781 111.558594 433.828125 113.371094 434.628906 C 115.183594 435.433594 116.460938 436.753906 117.203125 438.59375 C 117.949219 440.4375 117.929688 442.277344 117.164062 444.117188 Z M 99.285156 424.515625 C 100.597656 426.5 102.308594 428.042969 104.332031 429.082031 C 101.765625 430.367188 99.757812 432.347656 98.441406 434.894531 C 98.214844 434.988281 97.871094 435.109375 97.386719 435.246094 C 96.84375 435.386719 96.425781 435.460938 96.121094 435.496094 C 95.71875 434.648438 95.21875 433.140625 94.960938 430.640625 C 94.71875 428.277344 94.796875 425.765625 95.191406 423.175781 C 95.523438 420.851562 96.140625 418.347656 97.035156 415.679688 C 96.726562 418.789062 97.496094 421.820312 99.285156 424.515625 Z M 116.804688 429.152344 C 117.285156 428.90625 117.753906 428.632812 118.214844 428.328125 C 118.375 428.222656 118.519531 428.101562 118.671875 427.992188 C 118.707031 428.820312 118.777344 429.632812 118.839844 430.445312 C 118.210938 429.960938 117.527344 429.53125 116.804688 429.152344 Z M 215.875 423.988281 C 214.570312 425.476562 212.933594 426.304688 210.976562 426.484375 C 209.195312 426.601562 206.613281 426.75 203.226562 426.929688 C 200.136719 427.046875 197.851562 427.164062 196.363281 427.285156 C 188.882812 427.757812 183.179688 428.886719 179.257812 430.667969 C 177.417969 431.441406 175.574219 431.46875 173.734375 430.757812 C 172.601562 430.320312 171.679688 429.644531 170.929688 428.789062 C 169.855469 437.882812 166.308594 445.542969 160.28125 451.773438 C 158.140625 453.96875 155.886719 455.632812 153.511719 456.761719 C 149.945312 458.542969 146.382812 458.957031 142.816406 458.007812 C 138.660156 456.9375 135.125 454.566406 132.21875 450.882812 C 129.898438 447.917969 128.148438 444.234375 126.960938 439.839844 C 124.820312 432.183594 124.464844 423.691406 125.890625 414.371094 C 127.371094 404.691406 130.34375 397.210938 134.800781 391.925781 C 137.882812 388.242188 141.433594 386.003906 145.445312 385.199219 C 149.453125 384.398438 153.597656 385.214844 157.875 387.648438 C 160.960938 389.550781 163.457031 391.71875 165.355469 394.152344 C 167.675781 397.238281 168.980469 400.714844 169.277344 404.570312 C 169.339844 405.523438 169.21875 406.472656 168.921875 407.421875 C 170.066406 411.335938 170.753906 415.203125 171.058594 419.039062 C 171.691406 418.386719 172.464844 417.867188 173.378906 417.484375 C 176.644531 416 180.328125 414.902344 184.425781 414.191406 C 187.570312 413.597656 191.253906 413.152344 195.472656 412.855469 C 197.011719 412.738281 199.390625 412.621094 202.601562 412.5 C 205.863281 412.378906 208.269531 412.261719 209.8125 412.144531 C 211.832031 411.964844 213.585938 412.527344 215.070312 413.835938 C 216.558594 415.140625 217.390625 416.789062 217.566406 418.777344 C 217.75 420.769531 217.183594 422.507812 215.875 423.988281 Z M 264.097656 417.429688 C 261.9375 415.34375 259.203125 414.054688 256.101562 413.6875 L 256 413.675781 L 255.898438 413.667969 C 253.820312 413.488281 251.730469 413.398438 249.675781 413.398438 C 248.378906 413.398438 247.082031 413.433594 245.785156 413.507812 C 245.882812 411.203125 246.03125 409.179688 246.230469 407.449219 C 246.234375 407.417969 246.238281 407.386719 246.242188 407.355469 C 246.359375 407.355469 246.484375 407.355469 246.613281 407.355469 C 249.613281 407.355469 252.335938 407.644531 254.707031 408.21875 C 255.890625 408.539062 257.085938 408.699219 258.261719 408.699219 C 260.46875 408.699219 262.597656 408.125 264.605469 407.03125 C 264.394531 410.308594 264.226562 413.777344 264.097656 417.429688 Z M 265.097656 396.871094 C 264.597656 398.800781 263.484375 400.269531 261.761719 401.277344 C 260.035156 402.289062 258.226562 402.527344 256.324219 401.992188 C 253.410156 401.277344 250.179688 400.921875 246.613281 400.921875 C 244.773438 400.921875 243.226562 401.070312 241.980469 401.367188 C 241.566406 401.425781 241.175781 401.515625 240.820312 401.632812 C 240.820312 401.753906 240.792969 401.839844 240.734375 401.898438 C 240.375 403.089844 240.078125 404.691406 239.84375 406.710938 C 239.425781 410.332031 239.21875 414.992188 239.21875 420.691406 C 244.503906 419.800781 249.878906 419.59375 255.34375 420.066406 C 257.363281 420.308594 259 421.183594 260.242188 422.695312 C 261.492188 424.210938 262.023438 425.960938 261.847656 427.949219 C 261.667969 429.941406 260.804688 431.570312 259.261719 432.847656 C 257.714844 434.128906 255.964844 434.671875 254.003906 434.496094 C 249.074219 434.023438 244.292969 434.289062 239.660156 435.296875 C 239.71875 436.367188 239.777344 437.433594 239.839844 438.503906 C 240.195312 443.3125 240.519531 446.699219 240.816406 448.65625 C 241.171875 450.617188 240.773438 452.410156 239.613281 454.046875 C 238.457031 455.679688 236.882812 456.65625 234.894531 456.984375 C 232.902344 457.308594 231.105469 456.894531 229.503906 455.738281 C 227.902344 454.578125 226.917969 453.023438 226.5625 451.0625 C 226.148438 448.449219 225.761719 444.308594 225.40625 438.636719 C 225.046875 432.96875 224.84375 427.492188 224.78125 422.207031 C 224.722656 415.320312 224.992188 409.589844 225.585938 405.019531 C 225.878906 402.167969 226.324219 399.765625 226.917969 397.804688 C 227.335938 396.5 227.78125 395.371094 228.257812 394.421875 C 228.96875 392.996094 229.859375 391.835938 230.929688 390.949219 C 232.945312 389.230469 235.5625 388.011719 238.769531 387.296875 C 241.085938 386.765625 243.699219 386.496094 246.613281 386.496094 C 251.421875 386.4375 255.878906 386.972656 259.972656 388.097656 C 261.871094 388.574219 263.324219 389.671875 264.339844 391.394531 C 265.351562 393.117188 265.605469 394.945312 265.097656 396.871094 Z M 310.40625 453.914062 C 308.921875 455.21875 307.183594 455.828125 305.195312 455.738281 C 303.203125 455.652344 301.554688 454.863281 300.25 453.378906 C 297.222656 449.992188 293.449219 445.511719 288.933594 439.929688 C 288.578125 439.457031 287.65625 438.328125 286.175781 436.550781 C 285.816406 436.726562 285.460938 436.902344 285.105469 437.082031 C 284.984375 437.140625 284.894531 437.171875 284.835938 437.171875 C 285.011719 441.980469 285.339844 445.691406 285.816406 448.304688 C 286.175781 450.265625 285.785156 452.0625 284.660156 453.695312 C 283.527344 455.324219 281.988281 456.320312 280.027344 456.675781 C 278.066406 457.03125 276.265625 456.648438 274.632812 455.519531 C 273 454.390625 272.007812 452.847656 271.652344 450.886719 C 270.519531 444.65625 270.101562 434.976562 270.402344 421.855469 C 270.640625 412 271.171875 403.480469 272.007812 396.296875 C 271.171875 393.566406 271.738281 391.1875 273.699219 389.171875 C 276.371094 386.320312 279.472656 384.316406 283.007812 383.160156 C 286.542969 382 290.152344 381.75 293.832031 382.402344 C 297.277344 382.996094 300.441406 384.316406 303.324219 386.367188 C 306.203125 388.414062 308.476562 390.953125 310.140625 393.980469 C 311.980469 397.246094 312.855469 400.824219 312.769531 404.710938 C 312.675781 408.601562 311.621094 412.445312 309.601562 416.246094 C 307.167969 420.695312 303.457031 424.882812 298.464844 428.800781 C 299.296875 429.8125 299.863281 430.492188 300.160156 430.851562 C 304.550781 436.253906 308.175781 440.558594 311.027344 443.765625 C 312.335938 445.246094 312.925781 446.984375 312.8125 448.972656 C 312.691406 450.960938 311.890625 452.605469 310.40625 453.914062 Z M 311.742188 434.757812 C 310.394531 433.164062 308.945312 431.425781 307.382812 429.523438 C 308.941406 427.996094 310.339844 426.421875 311.601562 424.808594 C 311.550781 428.3125 311.601562 431.628906 311.742188 434.757812 Z M 335.976562 397.273438 C 334.195312 400.957031 333.09375 407.992188 332.679688 418.378906 C 332.261719 427.761719 332.472656 435.628906 333.300781 441.980469 C 333.539062 443.9375 333.066406 445.707031 331.875 447.277344 C 330.6875 448.851562 329.097656 449.773438 327.109375 450.039062 C 325.121094 450.308594 323.339844 449.832031 321.765625 448.617188 C 320.1875 447.398438 319.253906 445.808594 318.960938 443.851562 C 318.007812 436.667969 317.769531 427.96875 318.246094 417.753906 C 318.777344 405.347656 320.351562 396.441406 322.96875 391.039062 C 323.800781 389.257812 325.164062 388.042969 327.066406 387.386719 C 328.964844 386.734375 330.808594 386.839844 332.589844 387.699219 C 334.371094 388.558594 335.589844 389.921875 336.242188 391.792969 C 336.894531 393.664062 336.808594 395.488281 335.976562 397.273438 Z M 384.089844 399.585938 C 382.601562 400.894531 380.851562 401.488281 378.835938 401.367188 C 376.164062 401.191406 372.210938 401.308594 366.984375 401.722656 C 364.3125 401.902344 362.054688 402.167969 360.210938 402.527344 C 359.621094 402.585938 359.082031 402.675781 358.609375 402.792969 C 358.3125 403.863281 358.042969 405.289062 357.808594 407.066406 C 357.390625 410.628906 357.183594 415.023438 357.183594 420.25 C 357.359375 420.191406 357.539062 420.160156 357.71875 420.160156 C 357.777344 420.160156 357.867188 420.128906 357.984375 420.070312 C 360.601562 419.535156 362.5625 419.121094 363.867188 418.824219 C 366.242188 418.410156 368.40625 418.109375 370.367188 417.933594 C 372.328125 417.753906 374.082031 418.316406 375.625 419.625 C 377.171875 420.929688 378.015625 422.5625 378.167969 424.523438 C 378.3125 426.480469 377.75 428.234375 376.476562 429.777344 C 375.195312 431.320312 373.578125 432.183594 371.617188 432.359375 C 369.300781 432.539062 365.765625 433.132812 361.015625 434.140625 C 360.898438 434.199219 360.804688 434.230469 360.75 434.230469 C 359.558594 434.46875 358.578125 434.671875 357.808594 434.851562 C 357.984375 436.988281 358.191406 438.949219 358.429688 440.730469 C 358.550781 441.679688 358.667969 442.570312 358.789062 443.402344 C 359.027344 443.402344 359.292969 443.371094 359.589844 443.3125 C 359.648438 443.3125 359.796875 443.285156 360.035156 443.222656 L 361.28125 443.222656 C 361.992188 443.167969 362.589844 443.136719 363.0625 443.136719 C 365.203125 443.136719 366.898438 443.046875 368.144531 442.867188 C 368.855469 442.75 369.449219 442.601562 369.921875 442.425781 C 370.101562 442.363281 370.28125 442.304688 370.460938 442.246094 C 370.515625 442.246094 370.574219 442.214844 370.636719 442.15625 C 372.238281 441.027344 374.023438 440.628906 375.980469 440.953125 C 377.941406 441.28125 379.5 442.246094 380.660156 443.847656 C 381.816406 445.453125 382.234375 447.234375 381.910156 449.191406 C 381.578125 451.148438 380.613281 452.726562 379.011719 453.910156 C 376.695312 455.574219 373.757812 456.640625 370.191406 457.117188 C 368.289062 457.414062 365.914062 457.5625 363.0625 457.5625 C 362.886719 457.5625 362.113281 457.621094 360.746094 457.742188 C 359.914062 457.796875 359.230469 457.828125 358.699219 457.828125 C 357.210938 457.945312 355.933594 457.945312 354.863281 457.828125 C 354.03125 457.769531 353.261719 457.679688 352.546875 457.5625 C 351.417969 457.265625 350.40625 456.847656 349.515625 456.316406 C 347.914062 455.363281 346.726562 453.910156 345.953125 451.953125 C 345.65625 451.179688 345.390625 450.230469 345.152344 449.101562 C 344.738281 447.382812 344.378906 445.152344 344.082031 442.421875 C 343.429688 436.957031 343.015625 430.902344 342.835938 424.253906 C 342.660156 416.773438 342.867188 410.480469 343.460938 405.371094 C 343.875 402.226562 344.410156 399.640625 345.066406 397.625 C 345.539062 396.199219 346.101562 394.984375 346.757812 393.972656 C 347.824219 392.253906 349.160156 391.003906 350.765625 390.230469 C 352.371094 389.402344 354.714844 388.75 357.804688 388.273438 C 360.058594 387.859375 362.734375 387.53125 365.824219 387.292969 C 371.816406 386.820312 376.515625 386.699219 379.898438 386.9375 C 381.855469 387.117188 383.492188 387.949219 384.800781 389.433594 C 386.109375 390.917969 386.683594 392.652344 386.539062 394.644531 C 386.390625 396.636719 385.570312 398.28125 384.089844 399.585938 Z M 439.859375 393.800781 C 439.621094 394.75 439.238281 395.90625 438.699219 397.273438 C 438.699219 397.394531 438.613281 397.628906 438.433594 397.984375 C 437.898438 399.46875 437.570312 400.511719 437.449219 401.101562 C 436.261719 407.8125 435.496094 415.261719 435.132812 423.457031 C 434.722656 433.371094 435.164062 439.992188 436.472656 443.316406 C 437.003906 444.683594 437.125 446.078125 436.828125 447.503906 C 436.53125 448.929688 435.847656 450.148438 434.777344 451.15625 C 434.660156 451.332031 434.511719 451.511719 434.332031 451.6875 C 432.910156 453.113281 431.203125 453.824219 429.210938 453.824219 C 427.222656 453.824219 425.511719 453.113281 424.085938 451.6875 C 418.859375 446.464844 413.695312 438.597656 408.585938 428.089844 C 408.640625 435.6875 408.996094 442.578125 409.65625 448.75 C 409.890625 450.769531 409.386719 452.550781 408.140625 454.09375 C 406.890625 455.636719 405.273438 456.511719 403.28125 456.722656 C 401.292969 456.929688 399.527344 456.425781 397.980469 455.207031 C 396.4375 453.988281 395.542969 452.371094 395.308594 450.355469 C 394.359375 441.570312 394 431.5625 394.238281 420.34375 C 394.359375 412.386719 394.863281 402.53125 395.753906 390.773438 C 395.871094 389.292969 396.410156 387.957031 397.355469 386.769531 C 397.832031 385.402344 398.660156 384.273438 399.851562 383.382812 C 401.039062 382.492188 402.375 382.019531 403.863281 381.957031 C 405.878906 381.898438 407.617188 382.550781 409.074219 383.917969 C 410.527344 385.285156 411.285156 386.945312 411.347656 388.90625 C 411.640625 396.03125 414.253906 405.292969 419.1875 416.691406 C 419.722656 417.9375 420.285156 419.15625 420.878906 420.34375 C 421.351562 412.269531 422.125 405.027344 423.195312 398.613281 C 423.492188 397.128906 424.085938 395.203125 424.980469 392.824219 C 425.09375 392.46875 425.1875 392.230469 425.242188 392.113281 C 425.78125 390.6875 426.046875 389.707031 426.046875 389.171875 C 426.046875 387.214844 426.757812 385.519531 428.183594 384.09375 C 429.613281 382.671875 431.316406 381.957031 433.308594 381.957031 C 435.296875 381.957031 436.988281 382.671875 438.386719 384.09375 C 439.78125 385.519531 440.480469 387.210938 440.480469 389.171875 C 440.484375 390.652344 440.273438 392.195312 439.859375 393.800781 Z M 441.484375 425.839844 C 441.503906 426.714844 441.519531 427.527344 441.539062 428.242188 C 441.589844 431.609375 441.675781 434.804688 441.796875 437.828125 C 441.511719 435.53125 441.304688 431.820312 441.484375 425.839844 Z M 491.671875 427.6875 C 488.90625 434.011719 485.03125 439.457031 480.042969 444.027344 C 477.25 446.582031 474.339844 448.691406 471.3125 450.351562 C 467.273438 452.605469 463.414062 453.792969 459.726562 453.910156 C 458.777344 454.503906 457.738281 454.832031 456.609375 454.894531 C 454.59375 455.070312 452.824219 454.503906 451.308594 453.199219 C 449.792969 451.894531 448.976562 450.261719 448.859375 448.304688 C 448.382812 442.605469 448.085938 435.863281 447.96875 428.085938 C 447.910156 425.652344 447.847656 422.0625 447.789062 417.308594 C 447.671875 408.582031 447.550781 402.199219 447.4375 398.164062 C 446.664062 396.617188 446.484375 394.988281 446.898438 393.265625 C 447.316406 391.546875 448.238281 390.179688 449.664062 389.167969 C 450.4375 388.457031 451.328125 387.921875 452.335938 387.566406 C 454.117188 386.792969 456.136719 386.203125 458.394531 385.785156 C 460.59375 385.371094 463.089844 385.164062 465.878906 385.164062 C 474.667969 385.164062 481.675781 387.449219 486.90625 392.019531 C 491.777344 396.355469 494.507812 402.085938 495.101562 409.210938 C 495.574219 415.203125 494.429688 421.363281 491.671875 427.6875 Z M 534.390625 444.382812 C 533.914062 445.632812 533.140625 446.878906 532.070312 448.125 C 531.359375 449.015625 530.46875 449.90625 529.398438 450.796875 C 527.4375 452.519531 525.269531 454.003906 522.898438 455.25 C 520.042969 456.734375 517.371094 457.625 514.878906 457.921875 C 513.039062 458.160156 511.316406 458.039062 509.710938 457.566406 C 507.453125 456.914062 505.640625 455.636719 504.277344 453.738281 C 503.503906 452.726562 502.878906 451.449219 502.40625 449.90625 C 502.109375 448.898438 501.875 447.738281 501.691406 446.433594 C 501.394531 444.296875 501.1875 441.597656 501.070312 438.328125 C 500.949219 433.222656 501.132812 426.574219 501.605469 418.378906 C 501.839844 414.222656 502.167969 409.652344 502.585938 404.664062 L 504.007812 388.546875 C 504.191406 386.527344 505.035156 384.878906 506.550781 383.605469 C 508.066406 382.328125 509.816406 381.777344 511.808594 381.957031 C 513.796875 382.136719 515.429688 382.980469 516.710938 384.496094 C 517.984375 386.007812 518.535156 387.746094 518.355469 389.707031 C 517.703125 397.128906 517.257812 402.5 517.019531 405.824219 C 516.605469 410.691406 516.273438 415.175781 516.039062 419.273438 C 515.566406 426.992188 515.386719 433.253906 515.507812 438.0625 C 515.566406 439.785156 515.652344 441.300781 515.773438 442.605469 C 515.890625 442.546875 516.039062 442.488281 516.21875 442.429688 C 517.644531 441.65625 518.921875 440.796875 520.050781 439.84375 C 520.523438 439.488281 520.878906 439.160156 521.121094 438.863281 C 521.890625 437.203125 523.136719 436 524.863281 435.257812 C 526.582031 434.515625 528.339844 434.46875 530.117188 435.121094 C 531.957031 435.835938 533.3125 437.082031 534.171875 438.863281 C 535.027344 440.644531 535.101562 442.484375 534.390625 444.382812 Z M 532.433594 429.128906 L 532.378906 429.105469 L 532.324219 429.085938 C 530.785156 428.523438 529.203125 428.234375 527.628906 428.234375 C 525.820312 428.234375 524.027344 428.613281 522.304688 429.355469 C 522.199219 429.398438 522.089844 429.449219 521.984375 429.496094 C 522.074219 426.550781 522.230469 423.265625 522.453125 419.664062 C 522.675781 415.800781 522.992188 411.4375 523.394531 406.683594 C 524.15625 409.15625 525.054688 411.683594 526.128906 414.261719 C 528.734375 420.660156 531.886719 426.140625 535.5 430.550781 C 535.503906 430.628906 535.511719 430.714844 535.515625 430.792969 C 534.578125 430.125 533.550781 429.558594 532.433594 429.128906 Z M 576.441406 393.175781 C 575.191406 395.847656 573.589844 398.667969 571.628906 401.636719 C 570.503906 403.359375 568.78125 405.855469 566.464844 409.117188 C 566.34375 409.238281 566.285156 409.328125 566.285156 409.382812 C 563.609375 413.066406 561.710938 415.855469 560.582031 417.753906 C 558.800781 420.664062 557.496094 423.339844 556.660156 425.773438 C 556.304688 426.722656 556.214844 428.476562 556.394531 431.027344 C 556.453125 431.679688 556.539062 432.601562 556.660156 433.789062 C 556.957031 436.226562 557.105469 437.976562 557.105469 439.042969 C 557.164062 439.996094 557.132812 441.390625 557.019531 443.230469 C 556.957031 443.941406 556.929688 444.476562 556.929688 444.832031 C 556.871094 445.785156 556.871094 446.527344 556.929688 447.058594 C 556.984375 447.296875 557.019531 447.503906 557.019531 447.683594 L 557.105469 447.773438 C 557.875 449.554688 557.90625 451.378906 557.195312 453.25 C 556.480469 455.121094 555.21875 456.453125 553.40625 457.257812 C 551.59375 458.058594 549.757812 458.105469 547.886719 457.390625 C 546.015625 456.675781 544.664062 455.402344 543.828125 453.5625 C 543.175781 452.074219 542.765625 450.386719 542.582031 448.484375 C 542.460938 447.296875 542.433594 445.902344 542.496094 444.300781 C 542.496094 443.824219 542.523438 443.203125 542.582031 442.429688 C 542.703125 441.003906 542.730469 440.054688 542.671875 439.582031 C 542.671875 438.808594 542.554688 437.382812 542.320312 435.304688 C 542.199219 434 542.109375 432.957031 542.050781 432.1875 C 541.929688 430.644531 541.875 429.28125 541.875 428.089844 C 538.070312 423.9375 534.804688 418.503906 532.070312 411.792969 C 529.101562 404.667969 527.46875 398.109375 527.171875 392.113281 C 527.109375 390.09375 527.75 388.355469 529.085938 386.898438 C 530.421875 385.445312 532.082031 384.671875 534.070312 384.582031 C 536.0625 384.496094 537.800781 385.117188 539.285156 386.453125 C 540.769531 387.789062 541.546875 389.46875 541.601562 391.488281 C 541.722656 394.277344 542.347656 397.46875 543.476562 401.058594 C 544.601562 404.652344 546 408.023438 547.664062 411.167969 C 547.839844 410.875 548.050781 410.578125 548.285156 410.277344 C 549.589844 408.082031 551.671875 404.996094 554.523438 401.015625 C 554.582031 400.960938 554.640625 400.867188 554.699219 400.75 C 556.898438 397.664062 558.5 395.347656 559.511719 393.804688 C 561.113281 391.367188 562.390625 389.144531 563.34375 387.121094 C 564.175781 385.34375 565.523438 384.109375 567.398438 383.425781 C 569.265625 382.742188 571.109375 382.816406 572.921875 383.648438 C 574.734375 384.480469 575.976562 385.828125 576.664062 387.703125 C 577.34375 389.570312 577.273438 391.394531 576.441406 393.175781 Z M 151.460938 400.65625 C 151.164062 400.480469 150.839844 400.300781 150.480469 400.121094 C 149.824219 399.707031 149.261719 399.472656 148.789062 399.410156 C 148.550781 399.351562 148.34375 399.351562 148.167969 399.410156 C 147.449219 399.527344 146.679688 400.121094 145.847656 401.191406 C 143.113281 404.398438 141.214844 409.53125 140.144531 416.597656 C 139.019531 423.84375 139.253906 430.3125 140.863281 436.011719 C 141.570312 438.566406 142.492188 440.554688 143.625 441.980469 C 144.457031 443.109375 145.402344 443.789062 146.472656 444.027344 C 146.652344 444.027344 146.886719 443.96875 147.1875 443.847656 C 148.019531 443.433594 148.9375 442.722656 149.945312 441.710938 C 154.28125 437.261719 156.570312 431.441406 156.808594 424.257812 C 157.042969 417.429688 155.5 410.601562 152.175781 403.773438 C 151.699219 402.824219 151.460938 401.785156 151.460938 400.65625 Z M 147.234375 434.894531 C 147.175781 434.703125 147.113281 434.503906 147.058594 434.289062 C 145.707031 429.496094 145.519531 423.882812 146.5 417.585938 C 146.945312 414.65625 147.503906 412.359375 148.097656 410.558594 C 149.761719 415.058594 150.535156 419.585938 150.378906 424.035156 C 150.238281 428.390625 149.203125 431.96875 147.234375 434.894531 Z M 477.367188 402.882812 C 474.875 400.683594 471.042969 399.585938 465.875 399.585938 C 464.390625 399.585938 463.085938 399.675781 461.957031 399.855469 C 462.070312 403.476562 462.164062 409.234375 462.21875 417.132812 C 462.28125 421.882812 462.339844 425.445312 462.402344 427.820312 C 462.460938 431.796875 462.546875 435.359375 462.664062 438.503906 C 465.160156 437.433594 467.714844 435.714844 470.328125 433.339844 C 473.714844 430.253906 476.359375 426.570312 478.257812 422.292969 C 480.15625 418.019531 480.960938 414.042969 480.664062 410.359375 C 480.425781 407.097656 479.328125 404.605469 477.367188 402.882812 Z M 472.382812 419.6875 C 471.40625 421.882812 470.21875 423.851562 468.785156 425.632812 C 468.742188 423.503906 468.699219 420.71875 468.652344 417.046875 C 468.621094 412.847656 468.582031 409.203125 468.53125 406.152344 C 470.632812 406.386719 472.222656 406.917969 473.117188 407.707031 C 473.359375 407.921875 474.085938 408.558594 474.253906 410.832031 C 474.460938 413.460938 473.832031 416.425781 472.382812 419.6875 Z M 297.488281 400.835938 C 298.792969 403.328125 298.585938 406.179688 296.867188 409.382812 C 295.617188 411.640625 293.65625 413.925781 290.984375 416.242188 C 289.203125 417.785156 287.152344 419.269531 284.839844 420.695312 C 285.074219 411.433594 285.609375 403.65625 286.441406 397.363281 C 287.925781 396.53125 289.5625 396.292969 291.339844 396.648438 C 294.128906 397.125 296.179688 398.519531 297.488281 400.835938 Z M 297.488281 400.835938 " fill-opacity="1" fill-rule="nonzero"/><path fill="#ffffff" d="M 68.15625 389.433594 C 69.464844 390.921875 70.039062 392.65625 69.894531 394.648438 C 69.746094 396.636719 68.925781 398.285156 67.445312 399.589844 C 65.957031 400.898438 64.207031 401.492188 62.1875 401.371094 C 59.515625 401.191406 55.5625 401.3125 50.335938 401.726562 C 47.664062 401.902344 45.40625 402.171875 43.5625 402.527344 C 42.972656 402.585938 42.433594 402.679688 41.960938 402.796875 C 41.664062 403.863281 41.394531 405.289062 41.160156 407.070312 C 40.746094 410.632812 40.539062 415.027344 40.539062 420.25 C 40.714844 420.191406 40.894531 420.164062 41.070312 420.164062 C 41.128906 420.164062 41.21875 420.132812 41.339844 420.070312 C 43.953125 419.539062 45.914062 419.125 47.21875 418.824219 C 49.59375 418.410156 51.761719 418.113281 53.726562 417.933594 C 55.6875 417.753906 57.4375 418.320312 58.980469 419.625 C 60.527344 420.933594 61.371094 422.566406 61.523438 424.523438 C 61.671875 426.480469 61.109375 428.234375 59.832031 429.777344 C 58.550781 431.324219 56.933594 432.183594 54.972656 432.359375 C 52.65625 432.539062 49.125 433.132812 44.371094 434.140625 C 44.253906 434.203125 44.164062 434.230469 44.105469 434.230469 C 42.914062 434.46875 41.9375 434.675781 41.164062 434.855469 C 41.34375 436.992188 41.546875 438.953125 41.789062 440.734375 C 41.90625 441.683594 42.023438 442.574219 42.140625 443.402344 C 42.382812 443.402344 42.644531 443.375 42.945312 443.316406 C 43.007812 443.316406 43.15625 443.285156 43.390625 443.226562 L 44.636719 443.226562 C 45.351562 443.167969 45.945312 443.136719 46.421875 443.136719 C 48.558594 443.136719 50.253906 443.050781 51.5 442.871094 C 52.210938 442.753906 52.804688 442.605469 53.28125 442.425781 C 53.457031 442.367188 53.636719 442.308594 53.816406 442.246094 C 53.875 442.246094 53.929688 442.21875 53.992188 442.160156 C 55.59375 441.03125 57.378906 440.632812 59.335938 440.957031 C 61.300781 441.28125 62.859375 442.246094 64.015625 443.851562 C 65.171875 445.453125 65.589844 447.234375 65.265625 449.195312 C 64.933594 451.152344 63.96875 452.726562 62.367188 453.914062 C 60.050781 455.574219 57.109375 456.644531 53.546875 457.121094 C 51.644531 457.414062 49.269531 457.5625 46.421875 457.5625 C 46.242188 457.5625 45.46875 457.625 44.101562 457.742188 C 43.269531 457.800781 42.585938 457.832031 42.054688 457.832031 C 40.570312 457.949219 39.292969 457.949219 38.222656 457.832031 C 37.390625 457.773438 36.621094 457.683594 35.90625 457.5625 C 34.777344 457.265625 33.765625 456.851562 32.875 456.316406 C 31.273438 455.367188 30.082031 453.910156 29.3125 451.953125 C 29.015625 451.179688 28.746094 450.234375 28.511719 449.105469 C 28.09375 447.382812 27.738281 445.15625 27.441406 442.425781 C 26.785156 436.960938 26.371094 430.90625 26.191406 424.253906 C 26.015625 416.773438 26.222656 410.480469 26.816406 405.375 C 27.230469 402.230469 27.765625 399.644531 28.421875 397.625 C 28.894531 396.203125 29.457031 394.984375 30.113281 393.976562 C 31.179688 392.253906 32.519531 391.007812 34.121094 390.234375 C 35.726562 389.402344 38.074219 388.753906 41.160156 388.277344 C 43.417969 387.863281 46.089844 387.535156 49.179688 387.296875 C 55.175781 386.824219 59.871094 386.703125 63.257812 386.941406 C 65.214844 387.117188 66.851562 387.949219 68.15625 389.433594 Z M 104.644531 420.960938 C 105.742188 422.625 107.273438 423.648438 109.230469 424.035156 C 111.1875 424.421875 113 424.066406 114.667969 422.964844 C 116.328125 421.867188 117.339844 420.335938 117.695312 418.378906 C 118.230469 415.828125 118.332031 412.695312 118.003906 408.984375 C 117.679688 405.273438 117.011719 401.84375 116 398.699219 C 114.578125 394.425781 112.617188 391.039062 110.121094 388.546875 C 106.4375 384.921875 102.101562 383.5 97.113281 384.269531 C 94.917969 384.570312 92.835938 385.429688 90.878906 386.855469 C 89.335938 387.925781 87.878906 389.289062 86.515625 390.953125 C 84.316406 393.566406 82.292969 396.917969 80.453125 401.015625 C 77.363281 407.84375 75.378906 414.226562 74.488281 420.164062 C 73.121094 430.019531 74.160156 438.332031 77.605469 445.097656 C 80.042969 449.789062 83.457031 453.054688 87.851562 454.894531 C 92.246094 456.734375 97.234375 456.914062 102.820312 455.429688 C 105.90625 454.597656 108.550781 453.410156 110.75 451.867188 C 113.660156 449.851562 115.796875 447.265625 117.164062 444.117188 C 117.933594 442.28125 117.949219 440.4375 117.207031 438.597656 C 116.464844 436.757812 115.1875 435.4375 113.375 434.632812 C 111.5625 433.832031 109.722656 433.800781 107.851562 434.546875 C 105.980469 435.289062 104.660156 436.578125 103.886719 438.421875 C 103.292969 439.726562 101.691406 440.738281 99.078125 441.449219 C 96.582031 442.101562 94.648438 442.128906 93.285156 441.535156 C 92.15625 441.003906 91.207031 439.992188 90.433594 438.507812 C 89.484375 436.609375 88.859375 434.203125 88.5625 431.296875 C 88.265625 428.386719 88.355469 425.359375 88.832031 422.210938 C 89.484375 417.640625 91.058594 412.5625 93.550781 406.980469 C 94.917969 404.074219 96.253906 401.785156 97.5625 400.121094 C 98.15625 399.472656 98.6875 398.964844 99.164062 398.609375 C 99.28125 398.550781 99.375 398.492188 99.429688 398.429688 C 99.550781 398.429688 99.726562 398.550781 99.96875 398.789062 C 100.796875 399.621094 101.570312 401.074219 102.285156 403.152344 C 102.992188 405.347656 103.441406 407.753906 103.617188 410.367188 C 103.796875 412.621094 103.765625 414.375 103.53125 415.621094 C 103.171875 417.519531 103.542969 419.300781 104.644531 420.960938 Z M 215.074219 413.835938 C 216.558594 415.144531 217.390625 416.792969 217.566406 418.78125 C 217.75 420.769531 217.183594 422.507812 215.875 423.988281 C 214.570312 425.476562 212.933594 426.304688 210.976562 426.484375 C 209.195312 426.601562 206.613281 426.75 203.226562 426.929688 C 200.136719 427.046875 197.851562 427.164062 196.363281 427.285156 C 188.882812 427.757812 183.179688 428.886719 179.257812 430.667969 C 177.417969 431.441406 175.574219 431.46875 173.734375 430.757812 C 172.601562 430.320312 171.679688 429.644531 170.929688 428.789062 C 169.855469 437.882812 166.308594 445.542969 160.28125 451.773438 C 158.140625 453.96875 155.886719 455.632812 153.511719 456.761719 C 149.945312 458.542969 146.382812 458.957031 142.816406 458.007812 C 138.660156 456.9375 135.125 454.566406 132.21875 450.882812 C 129.898438 447.917969 128.148438 444.234375 126.960938 439.839844 C 124.820312 432.183594 124.464844 423.691406 125.890625 414.371094 C 127.371094 404.691406 130.34375 397.210938 134.800781 391.925781 C 137.882812 388.242188 141.433594 386.003906 145.445312 385.199219 C 149.453125 384.398438 153.597656 385.214844 157.875 387.648438 C 160.960938 389.550781 163.457031 391.71875 165.355469 394.152344 C 167.675781 397.238281 168.980469 400.714844 169.277344 404.570312 C 169.339844 405.523438 169.21875 406.472656 168.921875 407.421875 C 170.066406 411.335938 170.753906 415.203125 171.058594 419.039062 C 171.691406 418.386719 172.464844 417.867188 173.378906 417.484375 C 176.644531 416 180.328125 414.902344 184.425781 414.191406 C 187.570312 413.597656 191.253906 413.152344 195.472656 412.855469 C 197.011719 412.738281 199.390625 412.621094 202.601562 412.5 C 205.863281 412.378906 208.269531 412.261719 209.8125 412.144531 C 211.835938 411.96875 213.589844 412.53125 215.074219 413.835938 Z M 152.175781 403.773438 C 151.699219 402.824219 151.460938 401.785156 151.460938 400.65625 C 151.164062 400.480469 150.839844 400.300781 150.480469 400.121094 C 149.824219 399.707031 149.261719 399.472656 148.789062 399.410156 C 148.550781 399.351562 148.34375 399.351562 148.167969 399.410156 C 147.449219 399.527344 146.679688 400.121094 145.847656 401.191406 C 143.113281 404.398438 141.214844 409.53125 140.144531 416.597656 C 139.019531 423.84375 139.253906 430.3125 140.863281 436.011719 C 141.570312 438.566406 142.492188 440.554688 143.625 441.980469 C 144.457031 443.109375 145.402344 443.789062 146.472656 444.027344 C 146.652344 444.027344 146.886719 443.96875 147.1875 443.847656 C 148.019531 443.433594 148.9375 442.722656 149.945312 441.710938 C 154.28125 437.261719 156.570312 431.441406 156.808594 424.257812 C 157.042969 417.429688 155.5 410.601562 152.175781 403.773438 Z M 259.976562 388.097656 C 255.882812 386.972656 251.425781 386.4375 246.617188 386.496094 C 243.703125 386.496094 241.089844 386.765625 238.773438 387.296875 C 235.566406 388.011719 232.949219 389.230469 230.933594 390.949219 C 229.863281 391.839844 228.972656 392.996094 228.261719 394.421875 C 227.785156 395.371094 227.339844 396.5 226.921875 397.804688 C 226.328125 399.765625 225.882812 402.167969 225.589844 405.019531 C 224.996094 409.589844 224.726562 415.320312 224.785156 422.207031 C 224.847656 427.492188 225.050781 432.96875 225.410156 438.636719 C 225.765625 444.308594 226.152344 448.449219 226.566406 451.0625 C 226.921875 453.023438 227.90625 454.578125 229.507812 455.738281 C 231.109375 456.894531 232.90625 457.308594 234.898438 456.984375 C 236.886719 456.65625 238.460938 455.679688 239.617188 454.046875 C 240.777344 452.410156 241.175781 450.617188 240.824219 448.65625 C 240.527344 446.699219 240.199219 443.3125 239.84375 438.503906 C 239.78125 437.433594 239.722656 436.367188 239.664062 435.296875 C 244.296875 434.289062 249.078125 434.023438 254.007812 434.496094 C 255.96875 434.671875 257.71875 434.128906 259.265625 432.847656 C 260.808594 431.570312 261.671875 429.941406 261.851562 427.949219 C 262.027344 425.960938 261.492188 424.210938 260.246094 422.695312 C 259 421.183594 257.367188 420.308594 255.347656 420.066406 C 249.882812 419.597656 244.507812 419.800781 239.222656 420.691406 C 239.222656 414.992188 239.429688 410.332031 239.847656 406.710938 C 240.082031 404.691406 240.378906 403.089844 240.738281 401.898438 C 240.796875 401.839844 240.824219 401.753906 240.824219 401.632812 C 241.179688 401.515625 241.566406 401.425781 241.984375 401.367188 C 243.234375 401.070312 244.777344 400.921875 246.617188 400.921875 C 250.179688 400.921875 253.414062 401.277344 256.328125 401.992188 C 258.230469 402.527344 260.039062 402.289062 261.765625 401.277344 C 263.488281 400.269531 264.601562 398.800781 265.101562 396.871094 C 265.609375 394.945312 265.355469 393.117188 264.347656 391.394531 C 263.332031 389.671875 261.875 388.574219 259.976562 388.097656 Z M 311.027344 443.761719 C 312.335938 445.246094 312.925781 446.984375 312.8125 448.972656 C 312.691406 450.960938 311.890625 452.609375 310.40625 453.914062 C 308.921875 455.21875 307.183594 455.828125 305.195312 455.738281 C 303.203125 455.652344 301.554688 454.863281 300.25 453.378906 C 297.222656 449.992188 293.449219 445.511719 288.933594 439.929688 C 288.578125 439.457031 287.65625 438.328125 286.175781 436.550781 C 285.816406 436.726562 285.460938 436.902344 285.105469 437.082031 C 284.984375 437.140625 284.894531 437.171875 284.835938 437.171875 C 285.011719 441.980469 285.339844 445.691406 285.816406 448.304688 C 286.175781 450.265625 285.785156 452.0625 284.660156 453.695312 C 283.527344 455.324219 281.988281 456.320312 280.027344 456.675781 C 278.066406 457.03125 276.265625 456.648438 274.632812 455.519531 C 273 454.390625 272.007812 452.847656 271.652344 450.886719 C 270.519531 444.65625 270.101562 434.976562 270.402344 421.855469 C 270.640625 412 271.171875 403.480469 272.007812 396.296875 C 271.171875 393.566406 271.738281 391.1875 273.699219 389.171875 C 276.371094 386.320312 279.472656 384.316406 283.007812 383.160156 C 286.542969 382 290.152344 381.75 293.832031 382.402344 C 297.277344 382.996094 300.441406 384.316406 303.324219 386.367188 C 306.203125 388.414062 308.476562 390.953125 310.140625 393.980469 C 311.980469 397.246094 312.855469 400.824219 312.769531 404.710938 C 312.675781 408.601562 311.621094 412.445312 309.601562 416.246094 C 307.167969 420.695312 303.457031 424.882812 298.464844 428.800781 C 299.296875 429.8125 299.863281 430.492188 300.160156 430.851562 C 304.554688 436.253906 308.179688 440.554688 311.027344 443.761719 Z M 297.488281 400.835938 C 296.179688 398.519531 294.132812 397.125 291.339844 396.648438 C 289.5625 396.292969 287.925781 396.53125 286.441406 397.359375 C 285.609375 403.652344 285.074219 411.433594 284.839844 420.691406 C 287.15625 419.269531 289.203125 417.785156 290.984375 416.242188 C 293.65625 413.925781 295.617188 411.640625 296.867188 409.382812 C 298.585938 406.179688 298.792969 403.328125 297.488281 400.835938 Z M 332.589844 387.699219 C 330.808594 386.839844 328.96875 386.734375 327.066406 387.386719 C 325.164062 388.042969 323.800781 389.257812 322.96875 391.039062 C 320.351562 396.445312 318.777344 405.347656 318.246094 417.757812 C 317.773438 427.972656 318.007812 436.671875 318.960938 443.851562 C 319.253906 445.808594 320.1875 447.398438 321.765625 448.617188 C 323.339844 449.835938 325.117188 450.308594 327.109375 450.042969 C 329.097656 449.777344 330.6875 448.855469 331.875 447.28125 C 333.066406 445.710938 333.539062 443.941406 333.300781 441.980469 C 332.46875 435.628906 332.261719 427.761719 332.679688 418.382812 C 333.09375 407.992188 334.195312 400.957031 335.976562 397.273438 C 336.808594 395.492188 336.894531 393.667969 336.242188 391.796875 C 335.589844 389.921875 334.371094 388.558594 332.589844 387.699219 Z M 379.902344 386.941406 C 376.515625 386.703125 371.820312 386.824219 365.824219 387.296875 C 362.734375 387.535156 360.058594 387.859375 357.804688 388.277344 C 354.71875 388.753906 352.371094 389.40625 350.765625 390.234375 C 349.164062 391.007812 347.824219 392.253906 346.761719 393.976562 C 346.105469 394.984375 345.542969 396.203125 345.066406 397.625 C 344.410156 399.644531 343.878906 402.230469 343.460938 405.375 C 342.867188 410.480469 342.660156 416.773438 342.839844 424.253906 C 343.015625 430.90625 343.433594 436.960938 344.085938 442.425781 C 344.382812 445.15625 344.738281 447.382812 345.15625 449.105469 C 345.390625 450.234375 345.660156 451.179688 345.957031 451.953125 C 346.730469 453.910156 347.917969 455.367188 349.519531 456.316406 C 350.410156 456.851562 351.421875 457.265625 352.550781 457.5625 C 353.261719 457.683594 354.03125 457.773438 354.867188 457.832031 C 355.9375 457.949219 357.210938 457.949219 358.699219 457.832031 C 359.230469 457.832031 359.914062 457.800781 360.75 457.742188 C 362.117188 457.625 362.886719 457.5625 363.066406 457.5625 C 365.914062 457.5625 368.289062 457.414062 370.195312 457.121094 C 373.757812 456.644531 376.695312 455.574219 379.011719 453.914062 C 380.617188 452.726562 381.582031 451.152344 381.910156 449.195312 C 382.234375 447.238281 381.820312 445.453125 380.664062 443.851562 C 379.503906 442.246094 377.945312 441.28125 375.984375 440.957031 C 374.027344 440.632812 372.242188 441.03125 370.640625 442.160156 C 370.578125 442.21875 370.519531 442.246094 370.460938 442.246094 C 370.285156 442.308594 370.101562 442.367188 369.925781 442.425781 C 369.449219 442.605469 368.855469 442.753906 368.144531 442.871094 C 366.898438 443.050781 365.207031 443.136719 363.066406 443.136719 C 362.59375 443.136719 361.996094 443.167969 361.28125 443.226562 L 360.035156 443.226562 C 359.800781 443.285156 359.648438 443.316406 359.589844 443.316406 C 359.292969 443.375 359.027344 443.402344 358.789062 443.402344 C 358.671875 442.574219 358.554688 441.683594 358.433594 440.734375 C 358.195312 438.953125 357.988281 436.988281 357.8125 434.855469 C 358.582031 434.675781 359.5625 434.46875 360.75 434.230469 C 360.808594 434.230469 360.898438 434.203125 361.019531 434.140625 C 365.765625 433.132812 369.300781 432.539062 371.621094 432.359375 C 373.582031 432.183594 375.195312 431.324219 376.476562 429.777344 C 377.753906 428.234375 378.316406 426.484375 378.171875 424.523438 C 378.019531 422.566406 377.171875 420.929688 375.628906 419.625 C 374.082031 418.320312 372.332031 417.753906 370.371094 417.933594 C 368.410156 418.113281 366.242188 418.410156 363.867188 418.824219 C 362.5625 419.125 360.601562 419.539062 357.988281 420.070312 C 357.867188 420.132812 357.777344 420.164062 357.71875 420.164062 C 357.542969 420.164062 357.363281 420.191406 357.1875 420.25 C 357.1875 415.027344 357.390625 410.632812 357.8125 407.070312 C 358.046875 405.289062 358.3125 403.863281 358.609375 402.796875 C 359.085938 402.679688 359.621094 402.585938 360.210938 402.527344 C 362.054688 402.171875 364.3125 401.90625 366.984375 401.726562 C 372.214844 401.3125 376.164062 401.191406 378.835938 401.371094 C 380.855469 401.492188 382.605469 400.898438 384.089844 399.589844 C 385.574219 398.285156 386.394531 396.636719 386.542969 394.648438 C 386.6875 392.65625 386.113281 390.921875 384.800781 389.433594 C 383.492188 387.949219 381.859375 387.117188 379.902344 386.941406 Z M 433.3125 381.953125 C 431.320312 381.953125 429.613281 382.667969 428.1875 384.089844 C 426.761719 385.515625 426.050781 387.207031 426.050781 389.167969 C 426.050781 389.703125 425.785156 390.683594 425.246094 392.109375 C 425.191406 392.226562 425.097656 392.460938 424.984375 392.820312 C 424.089844 395.195312 423.496094 397.125 423.199219 398.609375 C 422.128906 405.019531 421.355469 412.265625 420.882812 420.339844 C 420.289062 419.152344 419.726562 417.933594 419.191406 416.6875 C 414.261719 405.289062 411.648438 396.027344 411.351562 388.902344 C 411.289062 386.941406 410.53125 385.28125 409.078125 383.914062 C 407.621094 382.546875 405.882812 381.894531 403.867188 381.953125 C 402.378906 382.011719 401.046875 382.488281 399.855469 383.378906 C 398.664062 384.269531 397.835938 385.398438 397.359375 386.765625 C 396.410156 387.949219 395.875 389.289062 395.757812 390.769531 C 394.867188 402.527344 394.363281 412.382812 394.242188 420.335938 C 394.003906 431.558594 394.363281 441.566406 395.3125 450.351562 C 395.546875 452.367188 396.441406 453.988281 397.984375 455.203125 C 399.53125 456.421875 401.296875 456.925781 403.285156 456.714844 C 405.277344 456.507812 406.894531 455.632812 408.144531 454.089844 C 409.390625 452.546875 409.894531 450.765625 409.660156 448.746094 C 409.003906 442.574219 408.648438 435.683594 408.589844 428.085938 C 413.695312 438.59375 418.863281 446.460938 424.089844 451.683594 C 425.515625 453.109375 427.222656 453.820312 429.214844 453.820312 C 431.203125 453.820312 432.914062 453.109375 434.335938 451.683594 C 434.515625 451.507812 434.664062 451.328125 434.78125 451.148438 C 435.851562 450.140625 436.535156 448.925781 436.832031 447.5 C 437.128906 446.074219 437.011719 444.679688 436.476562 443.3125 C 435.167969 439.988281 434.726562 433.367188 435.136719 423.453125 C 435.496094 415.257812 436.265625 407.808594 437.457031 401.097656 C 437.574219 400.507812 437.902344 399.464844 438.4375 397.980469 C 438.617188 397.625 438.703125 397.386719 438.703125 397.269531 C 439.238281 395.902344 439.625 394.746094 439.863281 393.796875 C 440.277344 392.191406 440.484375 390.648438 440.484375 389.164062 C 440.484375 387.203125 439.785156 385.511719 438.390625 384.085938 C 436.996094 382.664062 435.296875 381.953125 433.3125 381.953125 Z M 495.097656 409.207031 C 495.574219 415.203125 494.429688 421.363281 491.671875 427.6875 C 488.90625 434.011719 485.03125 439.457031 480.042969 444.027344 C 477.25 446.582031 474.339844 448.691406 471.3125 450.351562 C 467.273438 452.605469 463.414062 453.792969 459.726562 453.910156 C 458.777344 454.503906 457.738281 454.832031 456.609375 454.894531 C 454.59375 455.070312 452.824219 454.503906 451.308594 453.199219 C 449.792969 451.894531 448.976562 450.261719 448.859375 448.304688 C 448.382812 442.605469 448.085938 435.863281 447.96875 428.085938 C 447.910156 425.652344 447.847656 422.0625 447.789062 417.308594 C 447.671875 408.582031 447.550781 402.199219 447.4375 398.164062 C 446.664062 396.617188 446.484375 394.988281 446.898438 393.265625 C 447.316406 391.546875 448.238281 390.179688 449.664062 389.167969 C 450.4375 388.457031 451.328125 387.921875 452.335938 387.566406 C 454.117188 386.792969 456.136719 386.203125 458.394531 385.785156 C 460.59375 385.371094 463.089844 385.164062 465.878906 385.164062 C 474.667969 385.164062 481.675781 387.449219 486.90625 392.019531 C 491.769531 396.351562 494.503906 402.082031 495.097656 409.207031 Z M 480.667969 410.363281 C 480.425781 407.101562 479.328125 404.605469 477.367188 402.882812 C 474.875 400.6875 471.042969 399.589844 465.875 399.589844 C 464.390625 399.589844 463.085938 399.679688 461.957031 399.855469 C 462.070312 403.480469 462.164062 409.238281 462.21875 417.132812 C 462.28125 421.882812 462.339844 425.445312 462.402344 427.820312 C 462.460938 431.796875 462.546875 435.359375 462.664062 438.507812 C 465.160156 437.4375 467.714844 435.714844 470.328125 433.339844 C 473.714844 430.253906 476.359375 426.570312 478.257812 422.296875 C 480.160156 418.023438 480.960938 414.046875 480.667969 410.363281 Z M 530.109375 435.121094 C 528.332031 434.46875 526.578125 434.515625 524.855469 435.257812 C 523.132812 436 521.886719 437.199219 521.113281 438.863281 C 520.875 439.160156 520.519531 439.488281 520.042969 439.84375 C 518.914062 440.796875 517.640625 441.65625 516.210938 442.429688 C 516.035156 442.488281 515.886719 442.546875 515.765625 442.605469 C 515.644531 441.300781 515.558594 439.785156 515.5 438.0625 C 515.382812 433.253906 515.558594 426.992188 516.035156 419.273438 C 516.269531 415.175781 516.597656 410.691406 517.015625 405.824219 C 517.25 402.5 517.699219 397.128906 518.347656 389.707031 C 518.527344 387.746094 517.980469 386.007812 516.703125 384.496094 C 515.421875 382.980469 513.792969 382.136719 511.804688 381.957031 C 509.8125 381.777344 508.0625 382.328125 506.546875 383.605469 C 505.03125 384.882812 504.183594 386.527344 504.003906 388.546875 L 502.578125 404.664062 C 502.164062 409.652344 501.835938 414.226562 501.597656 418.378906 C 501.125 426.574219 500.945312 433.222656 501.0625 438.328125 C 501.183594 441.59375 501.390625 444.296875 501.6875 446.433594 C 501.867188 447.742188 502.101562 448.898438 502.398438 449.90625 C 502.875 451.449219 503.5 452.726562 504.269531 453.738281 C 505.636719 455.636719 507.445312 456.910156 509.703125 457.566406 C 511.308594 458.039062 513.03125 458.160156 514.871094 457.921875 C 517.367188 457.625 520.039062 456.734375 522.890625 455.25 C 525.265625 454.003906 527.433594 452.519531 529.394531 450.796875 C 530.464844 449.90625 531.351562 449.015625 532.066406 448.125 C 533.136719 446.878906 533.90625 445.632812 534.382812 444.382812 C 535.09375 442.484375 535.023438 440.644531 534.160156 438.859375 C 533.304688 437.082031 531.953125 435.832031 530.109375 435.121094 Z M 576.664062 387.699219 C 575.980469 385.828125 574.734375 384.480469 572.921875 383.644531 C 571.109375 382.816406 569.269531 382.742188 567.398438 383.421875 C 565.527344 384.105469 564.175781 385.335938 563.34375 387.121094 C 562.390625 389.140625 561.117188 391.367188 559.511719 393.800781 C 558.5 395.34375 556.898438 397.660156 554.703125 400.746094 C 554.640625 400.867188 554.582031 400.957031 554.523438 401.015625 C 551.671875 404.996094 549.589844 408.082031 548.285156 410.277344 C 548.050781 410.574219 547.839844 410.871094 547.664062 411.167969 C 546 408.023438 544.601562 404.648438 543.476562 401.058594 C 542.347656 397.464844 541.722656 394.277344 541.601562 391.484375 C 541.546875 389.46875 540.769531 387.789062 539.285156 386.453125 C 537.800781 385.113281 536.0625 384.492188 534.070312 384.582031 C 532.082031 384.671875 530.421875 385.441406 529.085938 386.898438 C 527.75 388.355469 527.109375 390.089844 527.171875 392.109375 C 527.46875 398.105469 529.097656 404.667969 532.070312 411.792969 C 534.804688 418.503906 538.070312 423.933594 541.875 428.089844 C 541.875 429.277344 541.929688 430.640625 542.050781 432.1875 C 542.109375 432.957031 542.199219 433.996094 542.320312 435.300781 C 542.554688 437.382812 542.671875 438.804688 542.671875 439.578125 C 542.730469 440.050781 542.703125 441.003906 542.582031 442.429688 C 542.523438 443.203125 542.496094 443.824219 542.496094 444.296875 C 542.433594 445.898438 542.460938 447.296875 542.582031 448.484375 C 542.765625 450.382812 543.175781 452.074219 543.828125 453.558594 C 544.664062 455.398438 546.015625 456.675781 547.886719 457.386719 C 549.757812 458.101562 551.59375 458.054688 553.40625 457.253906 C 555.21875 456.453125 556.480469 455.117188 557.195312 453.25 C 557.90625 451.378906 557.875 449.550781 557.105469 447.769531 L 557.019531 447.683594 C 557.019531 447.503906 556.984375 447.296875 556.929688 447.058594 C 556.871094 446.527344 556.871094 445.78125 556.929688 444.832031 C 556.929688 444.476562 556.957031 443.9375 557.019531 443.226562 C 557.132812 441.390625 557.164062 439.992188 557.105469 439.042969 C 557.105469 437.972656 556.957031 436.222656 556.660156 433.789062 C 556.539062 432.601562 556.453125 431.679688 556.394531 431.027344 C 556.21875 428.472656 556.304688 426.722656 556.660156 425.769531 C 557.492188 423.335938 558.800781 420.664062 560.582031 417.753906 C 561.710938 415.855469 563.609375 413.066406 566.285156 409.382812 C 566.285156 409.324219 566.34375 409.234375 566.464844 409.117188 C 568.78125 405.851562 570.503906 403.359375 571.628906 401.636719 C 573.589844 398.667969 575.191406 395.847656 576.441406 393.175781 C 577.273438 391.394531 577.34375 389.570312 576.664062 387.699219 Z M 576.664062 387.699219 " fill-opacity="1" fill-rule="nonzero"/></svg>