<svg xmlns="http://www.w3.org/2000/svg" xmlns:xlink="http://www.w3.org/1999/xlink" width="793" zoomAndPan="magnify" viewBox="0 0 594.95996 842.24997" height="1122" preserveAspectRatio="xMidYMid meet" version="1.0"><defs><clipPath id="id1"><path d="M 0.246094 210.742188 L 543.804688 210.742188 L 543.804688 754.300781 L 0.246094 754.300781 Z M 0.246094 210.742188 " clip-rule="nonzero"/></clipPath><clipPath id="id2"><path d="M 52 278.527344 L 483 278.527344 L 483 686.570312 L 52 686.570312 Z M 52 278.527344 " clip-rule="nonzero"/></clipPath><clipPath id="id3"><path d="M 52 398 L 591 398 L 591 686.570312 L 52 686.570312 Z M 52 398 " clip-rule="nonzero"/></clipPath></defs><g clip-path="url(#id1)"><path fill="#000000" d="M 272.023438 210.742188 C 121.925781 210.742188 0.246094 332.421875 0.246094 482.519531 C 0.246094 632.621094 121.925781 754.300781 272.023438 754.300781 C 422.125 754.300781 543.804688 632.621094 543.804688 482.519531 C 543.804688 332.421875 422.125 210.742188 272.023438 210.742188 " fill-opacity="1" fill-rule="nonzero"/></g><g clip-path="url(#id2)"><path fill="#efb054" d="M 52.394531 686.519531 L 52.394531 341.335938 C 52.394531 341.335938 50.003906 318.457031 110.496094 320.414062 L 110.496094 278.574219 C 110.496094 278.574219 177.886719 281.191406 214.53125 278.574219 L 243.320312 317.800781 L 435.023438 325.644531 C 435.023438 325.644531 485.402344 327.800781 482.136719 362.253906 C 478.867188 396.710938 481.605469 686.515625 481.605469 686.515625 L 52.394531 686.515625 Z M 52.394531 686.519531 " fill-opacity="1" fill-rule="nonzero"/></g><path fill="#ffffff" d="M 88.6875 340.46875 L 421.9375 340.46875 L 421.9375 662.984375 L 88.6875 662.984375 Z M 88.6875 340.46875 " fill-opacity="1" fill-rule="nonzero"/><g clip-path="url(#id3)"><path fill="#ffde59" d="M 52.394531 686.519531 C 52.394531 686.519531 143.992188 427.632812 183.253906 411.941406 C 222.507812 396.253906 560.125 391.019531 588.914062 411.941406 C 588.914062 411.941406 609.847656 435.476562 481.609375 686.519531 Z M 52.394531 686.519531 " fill-opacity="1" fill-rule="nonzero"/></g></svg>