<svg xmlns="http://www.w3.org/2000/svg" xmlns:xlink="http://www.w3.org/1999/xlink" width="1063" zoomAndPan="magnify" viewBox="0 0 797.25 265.499997" height="354" preserveAspectRatio="xMidYMid meet" version="1.0"><defs><filter x="0%" y="0%" width="100%" height="100%" id="id1"><feColorMatrix values="0 0 0 0 1 0 0 0 0 1 0 0 0 0 1 0 0 0 1 0" color-interpolation-filters="sRGB"/></filter><g/><clipPath id="id2"><path d="M 0.375 45 L 77 45 L 77 144 L 0.375 144 Z M 0.375 45 " clip-rule="nonzero"/></clipPath><mask id="id3"><g filter="url(#id1)"><rect x="-79.725" width="956.7" fill="#000000" y="-26.55" height="318.599996" fill-opacity="0.9686"/></g></mask><clipPath id="id4"><path d="M 0.742188 54 L 17 54 L 17 72 L 0.742188 72 Z M 0.742188 54 " clip-rule="nonzero"/></clipPath><clipPath id="id5"><path d="M 53 37 L 69.300781 37 L 69.300781 54 L 53 54 Z M 53 37 " clip-rule="nonzero"/></clipPath><clipPath id="id6"><path d="M 48 0.789062 L 57 0.789062 L 57 10 L 48 10 Z M 48 0.789062 " clip-rule="nonzero"/></clipPath><clipPath id="id7"><path d="M 48 64 L 57 64 L 57 72.777344 L 48 72.777344 Z M 48 64 " clip-rule="nonzero"/></clipPath><clipPath id="id8"><rect x="0" width="70" y="0" height="74"/></clipPath></defs><g clip-path="url(#id2)"><g fill="#ffde00" fill-opacity="1"><g transform="translate(-0.0969913, 143.170035)"><g><path d="M 72.292969 -74.183594 L 74.589844 -94.046875 C 68.777344 -96.613281 62.292969 -97.832031 55.535156 -97.832031 C -9.863281 -97.832031 -10 0.269531 55.535156 0.269531 C 62.292969 0.269531 70.804688 -1.351562 76.75 -3.785156 L 74.183594 -23.78125 C 70.535156 -21.890625 63.914062 -19.457031 55.535156 -19.457031 C 17.296875 -19.457031 17.296875 -78.371094 55.535156 -78.371094 C 63.914062 -78.371094 68.644531 -76.074219 72.292969 -74.183594 Z M 72.292969 -74.183594 "/></g></g></g></g><g fill="#ffde00" fill-opacity="1"><g transform="translate(81.242918, 143.170035)"><g><path d="M 10.808594 -96.613281 L 10.808594 0 L 60.804688 0 L 60.804688 -19.324219 L 30.132812 -19.324219 L 30.132812 -96.613281 Z M 10.808594 -96.613281 "/></g></g></g><g fill="#ffde00" fill-opacity="1"><g transform="translate(147.855141, 143.170035)"><g><path d="M 60.804688 0 L 60.804688 -19.324219 L 30.132812 -19.324219 L 30.132812 -38.644531 L 55.535156 -38.644531 L 55.535156 -57.96875 L 30.132812 -57.96875 L 30.132812 -77.292969 L 59.183594 -77.292969 L 59.183594 -96.613281 L 10.808594 -96.613281 L 10.808594 0 Z M 60.804688 0 "/></g></g></g><g fill="#ffde00" fill-opacity="1"><g transform="translate(215.953654, 143.170035)"><g><path d="M 2.160156 0 L 24.050781 0 L 27.835938 -10.40625 L 59.859375 -10.40625 L 63.777344 0 L 85.535156 0 L 44.863281 -100.128906 L 42.835938 -100.128906 Z M 34.863281 -28.511719 L 43.914062 -53.644531 L 52.699219 -28.511719 Z M 34.863281 -28.511719 "/></g></g></g><g fill="#ffde00" fill-opacity="1"><g transform="translate(304.184454, 143.170035)"><g><path d="M 30.132812 -52.5625 L 79.046875 2.027344 L 84.183594 2.027344 L 84.183594 -96.480469 L 64.726562 -96.480469 L 64.726562 -41.886719 L 15.945312 -98.640625 L 10.808594 -98.640625 L 10.808594 0 L 30.132812 0 Z M 30.132812 -52.5625 "/></g></g></g><g fill="#000000" fill-opacity="1"><g transform="translate(408.621802, 144.15702)"><g><path d="M 31.328125 -6.671875 L 57.15625 -6.671875 C 59.289062 -6.671875 61.109375 -6.960938 62.609375 -7.546875 C 64.117188 -8.140625 65.375 -8.9375 66.375 -9.9375 C 67.382812 -10.9375 68.171875 -12.101562 68.734375 -13.4375 C 69.296875 -14.769531 69.6875 -16.175781 69.90625 -17.65625 L 70.828125 -23.40625 L 77.828125 -23.40625 L 76.90625 0 L 5.09375 0 L 5.09375 -5.625 L 6.796875 -5.625 C 8.285156 -5.625 9.691406 -5.722656 11.015625 -5.921875 C 12.347656 -6.117188 13.515625 -6.519531 14.515625 -7.125 C 15.515625 -7.738281 16.304688 -8.644531 16.890625 -9.84375 C 17.484375 -11.039062 17.78125 -12.617188 17.78125 -14.578125 L 17.78125 -80.375 C 17.78125 -82.46875 17.5 -84.144531 16.9375 -85.40625 C 16.375 -86.675781 15.585938 -87.644531 14.578125 -88.3125 C 13.578125 -88.988281 12.410156 -89.4375 11.078125 -89.65625 C 9.753906 -89.875 8.328125 -89.984375 6.796875 -89.984375 L 5.09375 -89.984375 L 5.09375 -95.609375 L 72.59375 -95.609375 L 73.25 -72.203125 L 66.3125 -72.203125 L 65.65625 -77.953125 C 65.488281 -79.429688 65.148438 -80.835938 64.640625 -82.171875 C 64.140625 -83.503906 63.421875 -84.671875 62.484375 -85.671875 C 61.546875 -86.671875 60.367188 -87.460938 58.953125 -88.046875 C 57.535156 -88.640625 55.828125 -88.9375 53.828125 -88.9375 L 31.328125 -88.9375 L 31.328125 -53.296875 L 63.640625 -53.296875 L 63.640625 -46.765625 L 31.328125 -46.765625 Z M 35.578125 -104.921875 C 36.578125 -106.191406 37.609375 -107.65625 38.671875 -109.3125 C 39.742188 -110.96875 40.789062 -112.675781 41.8125 -114.4375 C 42.84375 -116.207031 43.828125 -117.972656 44.765625 -119.734375 C 45.703125 -121.503906 46.519531 -123.128906 47.21875 -124.609375 L 61.53125 -124.609375 L 61.53125 -123.234375 C 60.707031 -122.054688 59.488281 -120.582031 57.875 -118.8125 C 56.257812 -117.050781 54.46875 -115.210938 52.5 -113.296875 C 50.539062 -111.378906 48.523438 -109.515625 46.453125 -107.703125 C 44.390625 -105.890625 42.460938 -104.375 40.671875 -103.15625 L 35.578125 -103.15625 Z M 35.578125 -104.921875 "/></g></g></g><g fill="#000000" fill-opacity="1"><g transform="translate(492.053672, 144.15702)"><g><path d="M 5.09375 0 L 5.09375 -5.625 L 6.796875 -5.625 C 8.328125 -5.625 9.753906 -5.734375 11.078125 -5.953125 C 12.410156 -6.171875 13.578125 -6.617188 14.578125 -7.296875 C 15.585938 -7.972656 16.375 -8.941406 16.9375 -10.203125 C 17.5 -11.460938 17.78125 -13.140625 17.78125 -15.234375 L 17.78125 -80.375 C 17.78125 -82.46875 17.5 -84.144531 16.9375 -85.40625 C 16.375 -86.675781 15.585938 -87.644531 14.578125 -88.3125 C 13.578125 -88.988281 12.410156 -89.4375 11.078125 -89.65625 C 9.753906 -89.875 8.328125 -89.984375 6.796875 -89.984375 L 5.09375 -89.984375 L 5.09375 -95.609375 L 44.078125 -95.609375 L 44.078125 -89.984375 L 42.3125 -89.984375 C 40.832031 -89.984375 39.425781 -89.882812 38.09375 -89.6875 C 36.757812 -89.5 35.59375 -89.078125 34.59375 -88.421875 C 33.59375 -87.765625 32.796875 -86.835938 32.203125 -85.640625 C 31.617188 -84.441406 31.328125 -82.863281 31.328125 -80.90625 L 31.328125 -6.671875 L 57.75 -6.671875 C 59.75 -6.671875 61.457031 -7.03125 62.875 -7.75 C 64.289062 -8.46875 65.457031 -9.40625 66.375 -10.5625 C 67.289062 -11.71875 68 -13.015625 68.5 -14.453125 C 69 -15.890625 69.335938 -17.328125 69.515625 -18.765625 L 70.828125 -28.78125 L 77.828125 -28.78125 L 76.90625 0 Z M 5.09375 0 "/></g></g></g><g fill="#000000" fill-opacity="1"><g transform="translate(575.485542, 144.15702)"><g><path d="M 5.09375 0 L 5.09375 -5.625 L 6.796875 -5.625 C 8.328125 -5.625 9.753906 -5.734375 11.078125 -5.953125 C 12.410156 -6.171875 13.578125 -6.617188 14.578125 -7.296875 C 15.585938 -7.972656 16.375 -8.941406 16.9375 -10.203125 C 17.5 -11.460938 17.78125 -13.140625 17.78125 -15.234375 L 17.78125 -80.375 C 17.78125 -82.46875 17.5 -84.144531 16.9375 -85.40625 C 16.375 -86.675781 15.585938 -87.644531 14.578125 -88.3125 C 13.578125 -88.988281 12.410156 -89.4375 11.078125 -89.65625 C 9.753906 -89.875 8.328125 -89.984375 6.796875 -89.984375 L 5.09375 -89.984375 L 5.09375 -95.609375 L 44.078125 -95.609375 L 44.078125 -89.984375 L 42.3125 -89.984375 C 40.832031 -89.984375 39.414062 -89.875 38.0625 -89.65625 C 36.707031 -89.4375 35.539062 -88.988281 34.5625 -88.3125 C 33.582031 -87.644531 32.796875 -86.675781 32.203125 -85.40625 C 31.617188 -84.144531 31.328125 -82.46875 31.328125 -80.375 L 31.328125 -15.234375 C 31.328125 -13.140625 31.617188 -11.460938 32.203125 -10.203125 C 32.796875 -8.941406 33.582031 -7.972656 34.5625 -7.296875 C 35.539062 -6.617188 36.707031 -6.171875 38.0625 -5.953125 C 39.414062 -5.734375 40.832031 -5.625 42.3125 -5.625 L 44.078125 -5.625 L 44.078125 0 Z M 5.09375 0 "/></g></g></g><g fill="#000000" fill-opacity="1"><g transform="translate(624.655421, 144.15702)"><g><path d="M 47.671875 -15.234375 C 47.671875 -13.140625 47.960938 -11.460938 48.546875 -10.203125 C 49.140625 -8.941406 49.925781 -7.972656 50.90625 -7.296875 C 51.894531 -6.617188 53.0625 -6.171875 54.40625 -5.953125 C 55.757812 -5.734375 57.175781 -5.625 58.65625 -5.625 L 61.734375 -5.625 L 61.734375 0 L 20.078125 0 L 20.078125 -5.625 L 23.15625 -5.625 C 24.632812 -5.625 26.035156 -5.722656 27.359375 -5.921875 C 28.691406 -6.117188 29.859375 -6.519531 30.859375 -7.125 C 31.867188 -7.738281 32.664062 -8.644531 33.25 -9.84375 C 33.84375 -11.039062 34.140625 -12.617188 34.140625 -14.578125 L 34.140625 -88.9375 L 21.3125 -88.9375 C 19.351562 -88.9375 17.707031 -88.640625 16.375 -88.046875 C 15.050781 -87.460938 13.960938 -86.671875 13.109375 -85.671875 C 12.265625 -84.671875 11.632812 -83.503906 11.21875 -82.171875 C 10.800781 -80.835938 10.503906 -79.429688 10.328125 -77.953125 L 9.609375 -72.203125 L 2.6875 -72.203125 L 3.328125 -95.609375 L 78.734375 -95.609375 L 79.390625 -72.203125 L 72.46875 -72.203125 L 71.8125 -77.953125 C 71.632812 -79.429688 71.328125 -80.835938 70.890625 -82.171875 C 70.453125 -83.503906 69.816406 -84.671875 68.984375 -85.671875 C 68.160156 -86.671875 67.070312 -87.460938 65.71875 -88.046875 C 64.375 -88.640625 62.695312 -88.9375 60.6875 -88.9375 L 47.671875 -88.9375 Z M 47.671875 -15.234375 "/></g></g></g><g fill="#000000" fill-opacity="1"><g transform="translate(706.714224, 144.15702)"><g><path d="M 31.328125 -6.671875 L 57.15625 -6.671875 C 59.289062 -6.671875 61.109375 -6.960938 62.609375 -7.546875 C 64.117188 -8.140625 65.375 -8.9375 66.375 -9.9375 C 67.382812 -10.9375 68.171875 -12.101562 68.734375 -13.4375 C 69.296875 -14.769531 69.6875 -16.175781 69.90625 -17.65625 L 70.828125 -23.40625 L 77.828125 -23.40625 L 76.90625 0 L 5.09375 0 L 5.09375 -5.625 L 6.796875 -5.625 C 8.285156 -5.625 9.691406 -5.722656 11.015625 -5.921875 C 12.347656 -6.117188 13.515625 -6.519531 14.515625 -7.125 C 15.515625 -7.738281 16.304688 -8.644531 16.890625 -9.84375 C 17.484375 -11.039062 17.78125 -12.617188 17.78125 -14.578125 L 17.78125 -80.375 C 17.78125 -82.46875 17.5 -84.144531 16.9375 -85.40625 C 16.375 -86.675781 15.585938 -87.644531 14.578125 -88.3125 C 13.578125 -88.988281 12.410156 -89.4375 11.078125 -89.65625 C 9.753906 -89.875 8.328125 -89.984375 6.796875 -89.984375 L 5.09375 -89.984375 L 5.09375 -95.609375 L 72.59375 -95.609375 L 73.25 -72.203125 L 66.3125 -72.203125 L 65.65625 -77.953125 C 65.488281 -79.429688 65.148438 -80.835938 64.640625 -82.171875 C 64.140625 -83.503906 63.421875 -84.671875 62.484375 -85.671875 C 61.546875 -86.671875 60.367188 -87.460938 58.953125 -88.046875 C 57.535156 -88.640625 55.828125 -88.9375 53.828125 -88.9375 L 31.328125 -88.9375 L 31.328125 -53.296875 L 63.640625 -53.296875 L 63.640625 -46.765625 L 31.328125 -46.765625 Z M 31.328125 -6.671875 "/></g></g></g><g fill="#000000" fill-opacity="1"><g transform="translate(656.329244, 184.599201)"><g><path d="M 23.453125 -31.621094 C 18.375 -31.621094 13.925781 -30.078125 10.796875 -27.675781 C 9.980469 -29.035156 9.617188 -30.304688 9.480469 -30.851562 C 9.164062 -31.484375 6.714844 -30.941406 6.441406 -29.714844 C 6.625 -28.445312 6.851562 -27.039062 8.03125 -24.996094 C 4.761719 -21.097656 3.085938 -16.015625 3.128906 -11.839844 C 3.265625 -5.761719 6.894531 -0.863281 13.246094 -1.089844 C 16.058594 -1.179688 18.328125 -2.042969 19.597656 -3.355469 C 19.328125 -2.585938 18.644531 0.316406 18.464844 1 C 13.65625 1.453125 8.167969 2.996094 7.441406 7.710938 C 6.804688 11.796875 10.117188 13.519531 14.382812 13.519531 C 21.777344 13.519531 24.042969 8.527344 25.40625 3.628906 C 29.625 2.042969 32.800781 -2.3125 35.839844 -7.53125 C 35.886719 -7.9375 34.207031 -9.300781 33.707031 -8.753906 C 31.4375 -4.855469 29.308594 -1.949219 26.628906 -0.316406 C 27.582031 -3.492188 28.898438 -8.527344 29.898438 -12.703125 C 29.171875 -14.699219 23.453125 -14.382812 22.09375 -13.429688 C 20.144531 -7.667969 17.738281 -5.988281 15.5625 -5.898438 C 13.066406 -5.808594 11.570312 -8.847656 11.570312 -12.160156 C 11.570312 -14.515625 12.066406 -17.011719 12.929688 -19.097656 C 18.828125 -15.0625 28.71875 -14.425781 32.074219 -21.457031 C 34.34375 -26.175781 31.167969 -31.621094 23.453125 -31.621094 Z M 22.046875 -26.765625 C 23.863281 -26.722656 24.90625 -25.769531 24.679688 -24.542969 C 24.042969 -21.277344 18.917969 -20.777344 15.015625 -22.910156 C 16.695312 -25.179688 19.234375 -26.8125 22.046875 -26.765625 Z M 14.199219 6.757812 C 14.972656 5.308594 16.921875 4.671875 17.785156 4.445312 C 17.332031 6.078125 16.875 7.9375 15.878906 8.574219 C 14.515625 9.4375 13.429688 8.210938 14.199219 6.757812 Z M 14.199219 6.757812 "/></g></g></g><g fill="#000000" fill-opacity="1"><g transform="translate(689.538184, 184.599201)"><g><path d="M 2.085938 -6.667969 C 3.675781 -9.117188 5.398438 -12.65625 6.304688 -15.5625 C 7.394531 -15.015625 8.074219 -14.246094 7.214844 -12.75 C 2.675781 -4.898438 4.265625 0.363281 10.84375 0.5 C 18.738281 0.679688 21.683594 -4.128906 23.816406 -7.53125 C 24.042969 -7.9375 22.046875 -9.34375 21.683594 -8.800781 C 19.460938 -4.898438 16.105469 -3.3125 14.199219 -3.902344 C 12.75 -4.355469 13.609375 -7.847656 15.789062 -11.070312 C 18.464844 -15.015625 13.65625 -17.691406 10.296875 -20.460938 C 11.25 -28.398438 -0.636719 -24.40625 4.21875 -17.101562 C 3.039062 -13.246094 1.453125 -10.34375 -0.0898438 -7.804688 C -0.542969 -6.941406 1.585938 -5.808594 2.085938 -6.667969 Z M 2.085938 -6.667969 "/></g></g></g><g fill="#000000" fill-opacity="1"><g transform="translate(710.724753, 184.599201)"><g><path d="M 13.472656 -19.597656 C 7.757812 -19.78125 2.269531 -17.058594 0.636719 -10.164062 C -1.089844 -2.8125 3.265625 0.453125 8.800781 0.453125 C 11.886719 0.453125 14.925781 -0.316406 17.332031 -2.085938 C 20.507812 -1.90625 24.632812 -1.496094 27.992188 -7.53125 C 28.21875 -7.9375 26.265625 -9.34375 25.90625 -8.800781 C 24.316406 -6.351562 22.230469 -4.535156 19.960938 -4.808594 C 24.316406 -11.839844 21.457031 -19.371094 13.472656 -19.597656 Z M 12.429688 -14.699219 C 13.925781 -14.652344 13.972656 -11.613281 13.109375 -8.210938 C 11.476562 -8.121094 10.617188 -5.714844 11.613281 -4.945312 C 11.386719 -4.71875 10.707031 -4.355469 10.164062 -4.355469 C 8.484375 -4.355469 8.347656 -7.847656 9.074219 -10.433594 C 9.890625 -13.382812 11.476562 -14.699219 12.429688 -14.699219 Z M 12.429688 -14.699219 "/></g></g></g><g fill="#000000" fill-opacity="1"><g transform="translate(736.085168, 184.599201)"><g><path d="M 15.289062 -19.007812 C 14.652344 -16.378906 13.925781 -13.519531 13.066406 -10.707031 C 12.386719 -8.4375 10.480469 -4.582031 9.027344 -4.535156 C 7.710938 -4.492188 8.710938 -7.578125 11.613281 -17.964844 C 10.660156 -19.734375 4.535156 -20.097656 3.222656 -19.007812 C 2.085938 -14.972656 1 -10.980469 0.136719 -7.167969 C -0.589844 -3.902344 -0.679688 0.5 4.992188 0.453125 C 8.800781 0.410156 11.476562 -1.316406 13.882812 -5.082031 C 13.066406 -1.089844 14.609375 0.453125 17.011719 0.453125 C 22.320312 0.453125 26.3125 -3.8125 28.355469 -7.53125 C 28.535156 -7.9375 26.722656 -9.34375 26.265625 -8.800781 C 24.679688 -6.125 22.683594 -4.492188 21.230469 -4.535156 C 19.507812 -4.582031 22.546875 -12.929688 23.636719 -18.101562 C 22.320312 -20.007812 16.332031 -19.917969 15.289062 -19.007812 Z M 15.289062 -19.007812 "/></g></g></g><g fill="#000000" fill-opacity="1"><g transform="translate(761.808494, 184.599201)"><g><path d="M 18.328125 -19.597656 C 14.925781 -19.917969 12.613281 -18.054688 10.617188 -16.378906 L 11.207031 -18.101562 C 9.890625 -20.050781 3.945312 -19.871094 3.085938 -18.964844 C -0.0898438 -6.941406 -2.996094 4.265625 -5.035156 12.203125 C -5.445312 13.925781 3.222656 13.972656 3.628906 12.339844 C 5.082031 6.625 5.988281 2.675781 6.941406 -0.679688 C 10.933594 1.269531 15.695312 0.179688 18.28125 -2.042969 C 21.550781 -1.769531 25.722656 -2.222656 28.445312 -7.53125 C 28.671875 -7.9375 26.585938 -9.4375 26.265625 -8.753906 C 25.316406 -6.988281 23.136719 -4.582031 20.234375 -4.71875 C 24.679688 -10.933594 23.910156 -19.097656 18.328125 -19.597656 Z M 13.472656 -13.566406 C 14.0625 -13.15625 14.289062 -11.476562 13.109375 -8.121094 C 11.796875 -8.257812 10.753906 -6.171875 11.839844 -4.945312 C 10.390625 -3.855469 8.847656 -4.402344 8.074219 -4.945312 C 8.753906 -7.578125 9.480469 -10.390625 10.164062 -12.839844 C 11.839844 -14.109375 13.019531 -13.882812 13.472656 -13.566406 Z M 13.472656 -13.566406 "/></g></g></g><g fill="#000000" fill-opacity="1"><g transform="translate(117.527253, 234.549166)"><g><path d="M 17.328125 0 L 15.859375 -8.125 L 8.890625 -8.125 L 7.515625 0 L 0.25 0 L 7.171875 -35.21875 L 17.796875 -35.21875 L 24.59375 0 Z M 9.96875 -14.59375 L 14.734375 -14.59375 L 12.296875 -28.203125 Z M 9.96875 -14.59375 "/></g></g></g><g fill="#000000" fill-opacity="1"><g transform="translate(142.384003, 234.549166)"><g><path d="M 16.46875 -35.21875 L 24.390625 -35.21875 L 17.6875 0 L 7.0625 0 L 0.25 -35.21875 L 8.03125 -35.21875 C 10 -24.007812 11.132812 -17.234375 11.4375 -14.890625 C 11.738281 -12.554688 12.078125 -9.796875 12.453125 -6.609375 C 13.097656 -12.671875 13.65625 -17.210938 14.125 -20.234375 Z M 16.46875 -35.21875 "/></g></g></g><g fill="#000000" fill-opacity="1"><g transform="translate(167.037427, 234.549166)"><g><path d="M 2.28125 -35.21875 L 20.125 -35.21875 L 20.125 -28.609375 L 9.90625 -28.609375 L 9.90625 -21.140625 L 18.75 -21.140625 L 18.75 -14.53125 L 9.90625 -14.53125 L 9.90625 -6.609375 L 20.125 -6.609375 L 20.125 0 L 2.28125 0 Z M 2.28125 -35.21875 "/></g></g></g><g fill="#000000" fill-opacity="1"><g transform="translate(188.437616, 234.549166)"><g><path d="M 9.90625 -12.703125 L 9.90625 0 L 2.28125 0 L 2.28125 -35.21875 L 13.78125 -35.21875 C 16.550781 -35.21875 18.71875 -34.554688 20.28125 -33.234375 C 21.84375 -31.921875 22.625 -29.992188 22.625 -27.453125 L 22.625 -20.9375 C 22.625 -16.875 21.234375 -14.332031 18.453125 -13.3125 L 23.984375 0 L 15.609375 0 L 10.875 -12.703125 Z M 9.90625 -28.71875 L 9.90625 -18.75 L 12.90625 -18.75 C 13.6875 -18.75 14.226562 -18.914062 14.53125 -19.25 C 14.84375 -19.59375 15 -20.191406 15 -21.046875 L 15 -26.78125 C 15 -27.53125 14.828125 -28.039062 14.484375 -28.3125 C 14.148438 -28.582031 13.625 -28.71875 12.90625 -28.71875 Z M 9.90625 -28.71875 "/></g></g></g><g fill="#000000" fill-opacity="1"><g transform="translate(212.938546, 234.549166)"><g><path d="M 16.109375 0 L 8.390625 0 L 8.390625 -10.921875 L 0 -35.21875 L 7.828125 -35.21875 L 9.5 -29.890625 C 10.820312 -25.722656 11.769531 -22.03125 12.34375 -18.8125 C 12.988281 -22.09375 13.957031 -25.816406 15.25 -29.984375 L 16.875 -35.21875 L 24.5 -35.21875 L 16.109375 -10.921875 Z M 16.109375 0 "/></g></g></g><path stroke-linecap="butt" transform="matrix(0.353228, 0, 0, 0.353228, 113.365782, 194.987595)" fill="none" stroke-linejoin="miter" d="M 60.860068 112.004572 L 56.679875 88.991393 L 36.973252 88.991393 L 33.069527 112.004572 L 12.489265 112.004572 L 32.085301 12.254995 L 62.164996 12.254995 L 81.418213 112.004572 Z M 39.99228 70.678167 L 53.517084 70.678167 L 46.594331 32.138558 Z M 128.771615 12.254995 L 151.220799 12.254995 L 132.221933 112.004572 L 102.142238 112.004572 L 82.855845 12.254995 L 104.884798 12.254995 C 110.458389 44.015614 113.665415 63.213537 114.505877 69.837705 C 115.379515 76.439756 116.352682 84.269324 117.425377 93.304291 C 119.227947 76.119053 120.809343 63.257772 122.169564 54.731506 Z M 158.408961 12.254995 L 208.936214 12.254995 L 208.936214 30.977393 L 180.017683 30.977393 L 180.017683 52.132708 L 205.032489 52.132708 L 205.032489 70.855107 L 180.017683 70.855107 L 180.017683 93.304291 L 208.936214 93.304291 L 208.936214 112.004572 L 158.408961 112.004572 Z M 240.608363 76.019525 L 240.608363 112.004572 L 218.999641 112.004572 L 218.999641 12.254995 L 251.53437 12.254995 C 259.397114 12.254995 265.534699 14.123917 269.936066 17.87282 C 274.370609 21.621724 276.582351 27.095786 276.582351 34.283948 L 276.582351 52.696703 C 276.582351 64.21988 272.64545 71.419101 264.771648 74.305425 L 280.441842 112.004572 L 256.698788 112.004572 L 243.339865 76.019525 Z M 240.608363 30.700926 L 240.608363 58.911698 L 249.068277 58.911698 C 251.291078 58.911698 252.828239 58.436174 253.668701 57.474066 C 254.54234 56.511958 254.973629 54.819975 254.973629 52.409176 L 254.973629 36.141812 C 254.973629 34.040657 254.498105 32.603024 253.535997 31.86209 C 252.573889 31.087981 251.080963 30.700926 249.068277 30.700926 Z M 327.496659 112.004572 L 305.644645 112.004572 L 305.644645 81.051239 L 281.890533 12.254995 L 304.063249 12.254995 L 308.807436 27.394371 C 312.556339 39.182957 315.232548 49.622381 316.847119 58.734759 C 318.682866 49.434383 321.414367 38.884372 325.074801 27.084727 L 329.675225 12.254995 L 351.250771 12.254995 L 327.496659 81.051239 Z M 327.496659 112.004572 " stroke="#000000" stroke-width="2.608441" stroke-opacity="1" stroke-miterlimit="4"/><path stroke-linecap="butt" transform="matrix(3.390783, 0, 0, 4.718125, 113.365782, 239.829711)" fill="none" stroke-linejoin="miter" d="M 0.000414551 -0.000336228 L 37.409967 -0.000336228 " stroke="#ffd428" stroke-width="1" stroke-opacity="1" stroke-miterlimit="4"/><g fill="#000000" fill-opacity="1"><g transform="translate(150.480687, 241.2711)"><g><path d="M 2.742188 -2.957031 L 2.347656 -2.957031 C 2.3125 -2.957031 2.289062 -2.925781 2.289062 -2.890625 C 2.289062 -2.859375 2.3125 -2.832031 2.347656 -2.832031 C 2.425781 -2.832031 2.484375 -2.769531 2.484375 -2.699219 C 2.484375 -2.699219 2.484375 -2.695312 2.484375 -2.695312 L 2.484375 -0.566406 L 0.988281 -2.925781 C 0.980469 -2.941406 0.957031 -2.953125 0.9375 -2.953125 C 0.9375 -2.953125 0.355469 -2.953125 0.355469 -2.953125 L 0.160156 -2.953125 C 0.125 -2.953125 0.101562 -2.925781 0.101562 -2.890625 C 0.101562 -2.859375 0.125 -2.832031 0.160156 -2.832031 C 0.203125 -2.832031 0.25 -2.816406 0.296875 -2.785156 L 0.296875 -0.253906 C 0.296875 -0.179688 0.238281 -0.117188 0.160156 -0.117188 C 0.125 -0.117188 0.101562 -0.09375 0.101562 -0.0585938 C 0.101562 -0.0234375 0.125 0.00390625 0.160156 0.00390625 L 0.554688 0.00390625 C 0.585938 0.00390625 0.613281 -0.0234375 0.613281 -0.0585938 C 0.613281 -0.09375 0.585938 -0.117188 0.554688 -0.117188 C 0.476562 -0.117188 0.417969 -0.179688 0.417969 -0.253906 L 0.417969 -2.679688 C 0.421875 -2.675781 0.425781 -2.671875 0.429688 -2.664062 L 2.097656 -0.0234375 C 2.113281 -0.0078125 2.128906 0.00390625 2.148438 0.00390625 L 2.542969 0.00390625 C 2.574219 0.00390625 2.605469 -0.0234375 2.605469 -0.0585938 L 2.605469 -2.699219 C 2.605469 -2.773438 2.664062 -2.832031 2.742188 -2.832031 C 2.773438 -2.832031 2.800781 -2.859375 2.800781 -2.890625 C 2.800781 -2.925781 2.773438 -2.957031 2.742188 -2.957031 Z M 2.742188 -2.957031 "/></g></g></g><g fill="#000000" fill-opacity="1"><g transform="translate(153.39017, 241.2711)"><g><path d="M 1.445312 -1.675781 C 1.445312 -1.601562 1.386719 -1.542969 1.308594 -1.542969 C 1.273438 -1.542969 1.25 -1.511719 1.25 -1.476562 C 1.25 -1.445312 1.273438 -1.417969 1.308594 -1.417969 C 1.386719 -1.417969 1.445312 -1.355469 1.445312 -1.285156 C 1.445312 -1.25 1.46875 -1.21875 1.503906 -1.21875 C 1.535156 -1.21875 1.566406 -1.25 1.566406 -1.285156 L 1.566406 -1.675781 C 1.566406 -1.710938 1.535156 -1.734375 1.503906 -1.734375 C 1.46875 -1.734375 1.445312 -1.710938 1.445312 -1.675781 Z M 2.273438 -2.210938 C 2.273438 -2.179688 2.296875 -2.152344 2.332031 -2.152344 C 2.363281 -2.152344 2.390625 -2.179688 2.390625 -2.210938 L 2.390625 -2.890625 C 2.390625 -2.925781 2.363281 -2.953125 2.332031 -2.953125 L 0.160156 -2.953125 C 0.125 -2.953125 0.101562 -2.925781 0.101562 -2.890625 C 0.101562 -2.859375 0.125 -2.832031 0.160156 -2.832031 C 0.238281 -2.832031 0.296875 -2.769531 0.296875 -2.699219 L 0.296875 -0.253906 C 0.296875 -0.179688 0.238281 -0.117188 0.160156 -0.117188 C 0.125 -0.117188 0.101562 -0.09375 0.101562 -0.0585938 C 0.101562 -0.0234375 0.125 0.00390625 0.160156 0.00390625 L 2.332031 0.00390625 C 2.363281 0.00390625 2.390625 -0.0234375 2.390625 -0.0585938 L 2.390625 -0.738281 C 2.390625 -0.773438 2.363281 -0.796875 2.332031 -0.796875 C 2.296875 -0.796875 2.273438 -0.773438 2.273438 -0.738281 C 2.273438 -0.398438 1.992188 -0.117188 1.652344 -0.117188 L 0.90625 -0.117188 L 0.90625 -2.832031 L 1.652344 -2.832031 C 1.992188 -2.832031 2.273438 -2.554688 2.273438 -2.210938 Z M 2.273438 -2.210938 "/></g></g></g><g fill="#000000" fill-opacity="1"><g transform="translate(155.894267, 241.2711)"><g><path d="M 2.539062 -2.953125 L 0.160156 -2.953125 C 0.125 -2.953125 0.101562 -2.925781 0.101562 -2.890625 L 0.101562 -2.210938 C 0.101562 -2.179688 0.125 -2.152344 0.160156 -2.152344 C 0.195312 -2.152344 0.21875 -2.179688 0.21875 -2.210938 C 0.21875 -2.554688 0.5 -2.832031 0.839844 -2.832031 L 1.042969 -2.832031 L 1.042969 -0.253906 C 1.042969 -0.179688 0.980469 -0.117188 0.902344 -0.117188 C 0.875 -0.117188 0.84375 -0.09375 0.84375 -0.0585938 C 0.84375 -0.0234375 0.875 0.00390625 0.902344 0.00390625 L 1.789062 0.00390625 C 1.824219 0.00390625 1.847656 -0.0234375 1.847656 -0.0585938 C 1.847656 -0.09375 1.824219 -0.117188 1.789062 -0.117188 C 1.714844 -0.117188 1.65625 -0.179688 1.65625 -0.253906 L 1.65625 -2.832031 L 1.855469 -2.832031 C 2.195312 -2.832031 2.472656 -2.554688 2.472656 -2.210938 C 2.472656 -2.179688 2.503906 -2.152344 2.539062 -2.152344 C 2.570312 -2.152344 2.597656 -2.179688 2.597656 -2.210938 L 2.597656 -2.890625 C 2.597656 -2.925781 2.566406 -2.953125 2.539062 -2.953125 Z M 2.539062 -2.953125 "/></g></g></g><g fill="#000000" fill-opacity="1"><g transform="translate(158.605283, 241.2711)"><g><path d="M 2.539062 -2.953125 L 0.160156 -2.953125 C 0.125 -2.953125 0.101562 -2.925781 0.101562 -2.890625 L 0.101562 -2.210938 C 0.101562 -2.179688 0.125 -2.152344 0.160156 -2.152344 C 0.195312 -2.152344 0.21875 -2.179688 0.21875 -2.210938 C 0.21875 -2.554688 0.5 -2.832031 0.839844 -2.832031 L 1.042969 -2.832031 L 1.042969 -0.253906 C 1.042969 -0.179688 0.980469 -0.117188 0.902344 -0.117188 C 0.875 -0.117188 0.84375 -0.09375 0.84375 -0.0585938 C 0.84375 -0.0234375 0.875 0.00390625 0.902344 0.00390625 L 1.789062 0.00390625 C 1.824219 0.00390625 1.847656 -0.0234375 1.847656 -0.0585938 C 1.847656 -0.09375 1.824219 -0.117188 1.789062 -0.117188 C 1.714844 -0.117188 1.65625 -0.179688 1.65625 -0.253906 L 1.65625 -2.832031 L 1.855469 -2.832031 C 2.195312 -2.832031 2.472656 -2.554688 2.472656 -2.210938 C 2.472656 -2.179688 2.503906 -2.152344 2.539062 -2.152344 C 2.570312 -2.152344 2.597656 -2.179688 2.597656 -2.210938 L 2.597656 -2.890625 C 2.597656 -2.925781 2.566406 -2.953125 2.539062 -2.953125 Z M 2.539062 -2.953125 "/></g></g></g><g fill="#000000" fill-opacity="1"><g transform="translate(161.316299, 241.2711)"><g><path d="M 1.605469 -2.980469 C 0.773438 -2.980469 0.101562 -2.304688 0.101562 -1.472656 C 0.101562 -0.644531 0.773438 0.03125 1.605469 0.03125 C 2.4375 0.03125 3.113281 -0.644531 3.113281 -1.472656 C 3.113281 -2.304688 2.4375 -2.980469 1.605469 -2.980469 Z M 1.605469 -0.09375 C 1.136719 -0.09375 0.75 -0.714844 0.75 -1.472656 C 0.75 -2.238281 1.136719 -2.859375 1.605469 -2.859375 C 2.078125 -2.859375 2.457031 -2.238281 2.457031 -1.472656 C 2.457031 -0.714844 2.078125 -0.09375 1.605469 -0.09375 Z M 1.605469 -0.09375 "/></g></g></g><g fill="#000000" fill-opacity="1"><g transform="translate(164.53827, 241.2711)"><g><path d="M 2.363281 -2.015625 C 2.335938 -2.027344 2.296875 -2.015625 2.285156 -1.984375 L 1.8125 -0.847656 L 1.027344 -2.71875 C 1.011719 -2.757812 1.011719 -2.785156 1.027344 -2.808594 C 1.039062 -2.828125 1.0625 -2.832031 1.085938 -2.832031 C 1.117188 -2.832031 1.144531 -2.859375 1.144531 -2.890625 C 1.144531 -2.925781 1.117188 -2.957031 1.085938 -2.957031 L 0.160156 -2.957031 C 0.125 -2.957031 0.101562 -2.925781 0.101562 -2.890625 C 0.101562 -2.859375 0.125 -2.832031 0.160156 -2.832031 C 0.246094 -2.832031 0.347656 -2.761719 0.382812 -2.671875 L 1.238281 -0.632812 L 1.238281 -0.253906 C 1.238281 -0.175781 1.179688 -0.117188 1.101562 -0.117188 C 1.066406 -0.117188 1.042969 -0.09375 1.042969 -0.0585938 C 1.042969 -0.0234375 1.066406 0.00390625 1.101562 0.00390625 L 1.984375 0.00390625 C 2.019531 0.00390625 2.046875 -0.0234375 2.046875 -0.0585938 C 2.046875 -0.09375 2.019531 -0.117188 1.984375 -0.117188 C 1.914062 -0.117188 1.847656 -0.179688 1.847656 -0.253906 L 1.847656 -0.632812 L 1.867188 -0.671875 L 2.398438 -1.933594 C 2.410156 -1.96875 2.394531 -2 2.363281 -2.015625 Z M 2.929688 -2.957031 L 2.539062 -2.957031 C 2.503906 -2.957031 2.472656 -2.925781 2.472656 -2.890625 C 2.472656 -2.859375 2.503906 -2.832031 2.539062 -2.832031 C 2.554688 -2.832031 2.585938 -2.828125 2.597656 -2.808594 C 2.609375 -2.785156 2.609375 -2.757812 2.59375 -2.71875 C 2.582031 -2.691406 2.597656 -2.65625 2.625 -2.640625 C 2.636719 -2.640625 2.644531 -2.636719 2.652344 -2.636719 C 2.671875 -2.636719 2.699219 -2.652344 2.707031 -2.671875 C 2.742188 -2.761719 2.847656 -2.832031 2.929688 -2.832031 C 2.960938 -2.832031 2.988281 -2.859375 2.988281 -2.890625 C 2.988281 -2.925781 2.960938 -2.957031 2.929688 -2.957031 Z M 2.929688 -2.957031 "/></g></g></g><g fill="#000000" fill-opacity="1"><g transform="translate(167.637779, 241.2711)"><g><path d="M 2.929688 -0.117188 C 2.847656 -0.117188 2.742188 -0.191406 2.707031 -0.277344 L 1.605469 -2.910156 L 1.601562 -2.917969 C 1.59375 -2.9375 1.566406 -2.957031 1.546875 -2.957031 C 1.519531 -2.957031 1.5 -2.9375 1.492188 -2.917969 L 1.21875 -2.28125 C 1.214844 -2.269531 1.214844 -2.25 1.21875 -2.234375 L 1.628906 -1.261719 C 1.296875 -1.230469 0.992188 -1.082031 0.757812 -0.855469 L 1.042969 -1.535156 C 1.054688 -1.570312 1.039062 -1.605469 1.007812 -1.617188 C 0.980469 -1.628906 0.941406 -1.617188 0.929688 -1.582031 L 0.382812 -0.277344 C 0.347656 -0.191406 0.246094 -0.117188 0.160156 -0.117188 C 0.125 -0.117188 0.101562 -0.09375 0.101562 -0.0585938 C 0.101562 -0.0234375 0.125 0.00390625 0.160156 0.00390625 L 0.554688 0.00390625 C 0.585938 0.00390625 0.613281 -0.0234375 0.613281 -0.0585938 C 0.613281 -0.09375 0.585938 -0.117188 0.554688 -0.117188 C 0.53125 -0.117188 0.507812 -0.121094 0.488281 -0.144531 C 0.476562 -0.164062 0.476562 -0.195312 0.492188 -0.230469 L 0.550781 -0.363281 C 0.761719 -0.8125 1.191406 -1.105469 1.675781 -1.144531 L 2.0625 -0.230469 C 2.078125 -0.195312 2.078125 -0.164062 2.066406 -0.144531 C 2.046875 -0.121094 2.023438 -0.117188 2 -0.117188 C 1.96875 -0.117188 1.941406 -0.09375 1.941406 -0.0585938 C 1.941406 -0.0234375 1.96875 0.00390625 2 0.00390625 L 2.929688 0.00390625 C 2.960938 0.00390625 2.988281 -0.0234375 2.988281 -0.0585938 C 2.988281 -0.09375 2.960938 -0.117188 2.929688 -0.117188 Z M 2.929688 -0.117188 "/></g></g></g><g fill="#000000" fill-opacity="1"><g transform="translate(170.741514, 241.2711)"><g><path d="M 2.625 -1.535156 L 1.9375 -1.535156 C 1.90625 -1.535156 1.878906 -1.507812 1.878906 -1.472656 C 1.878906 -1.445312 1.90625 -1.414062 1.9375 -1.414062 C 2.015625 -1.414062 2.074219 -1.355469 2.074219 -1.28125 L 2.074219 -0.171875 C 1.921875 -0.117188 1.761719 -0.0898438 1.59375 -0.09375 C 1.128906 -0.101562 0.75 -0.71875 0.75 -1.476562 C 0.75 -2.238281 1.132812 -2.859375 1.601562 -2.859375 C 1.605469 -2.859375 1.605469 -2.859375 1.605469 -2.859375 C 1.636719 -2.859375 1.664062 -2.886719 1.664062 -2.921875 C 1.664062 -2.957031 1.636719 -2.980469 1.605469 -2.980469 C 1.605469 -2.980469 1.605469 -2.980469 1.601562 -2.980469 C 1.199219 -2.980469 0.824219 -2.824219 0.539062 -2.542969 C 0.257812 -2.253906 0.101562 -1.878906 0.101562 -1.476562 C 0.101562 -1.074219 0.257812 -0.695312 0.539062 -0.410156 C 0.820312 -0.136719 1.1875 0.0195312 1.578125 0.03125 C 1.578125 0.03125 1.582031 0.03125 1.582031 0.03125 C 1.585938 0.03125 1.585938 0.03125 1.585938 0.03125 C 1.59375 0.03125 1.59375 0.03125 1.59375 0.03125 C 1.597656 0.03125 1.601562 0.03125 1.605469 0.03125 C 1.609375 0.03125 1.609375 0.03125 1.613281 0.03125 C 1.929688 0.03125 2.234375 -0.0703125 2.484375 -0.253906 C 2.488281 -0.257812 2.492188 -0.257812 2.496094 -0.261719 C 2.503906 -0.269531 2.515625 -0.277344 2.53125 -0.289062 C 2.539062 -0.296875 2.546875 -0.300781 2.558594 -0.308594 C 2.558594 -0.308594 2.558594 -0.3125 2.558594 -0.3125 C 2.597656 -0.34375 2.636719 -0.375 2.667969 -0.410156 C 2.675781 -0.417969 2.6875 -0.429688 2.6875 -0.445312 C 2.6875 -0.445312 2.6875 -0.449219 2.6875 -0.449219 C 2.6875 -0.453125 2.6875 -0.453125 2.6875 -0.453125 L 2.6875 -1.472656 C 2.6875 -1.507812 2.660156 -1.535156 2.625 -1.535156 Z M 2.625 -2.898438 C 2.59375 -2.898438 2.566406 -2.867188 2.566406 -2.832031 C 2.566406 -2.777344 2.519531 -2.730469 2.464844 -2.730469 C 2.445312 -2.730469 2.429688 -2.738281 2.410156 -2.75 C 2.410156 -2.75 2.40625 -2.75 2.40625 -2.75 C 2.398438 -2.753906 2.390625 -2.757812 2.378906 -2.757812 C 2.34375 -2.757812 2.316406 -2.730469 2.316406 -2.699219 C 2.316406 -2.691406 2.316406 -2.679688 2.324219 -2.671875 C 2.324219 -2.667969 2.328125 -2.667969 2.328125 -2.664062 C 2.328125 -2.664062 2.332031 -2.660156 2.332031 -2.660156 C 2.332031 -2.660156 2.332031 -2.65625 2.332031 -2.65625 C 2.335938 -2.65625 2.335938 -2.65625 2.335938 -2.65625 C 2.335938 -2.65625 2.335938 -2.652344 2.339844 -2.652344 C 2.339844 -2.652344 2.34375 -2.648438 2.34375 -2.648438 C 2.433594 -2.59375 2.511719 -2.53125 2.585938 -2.453125 C 2.597656 -2.445312 2.609375 -2.4375 2.625 -2.4375 C 2.636719 -2.4375 2.644531 -2.441406 2.652344 -2.441406 C 2.671875 -2.449219 2.6875 -2.472656 2.6875 -2.5 L 2.6875 -2.832031 C 2.6875 -2.867188 2.660156 -2.898438 2.625 -2.898438 Z M 2.625 -2.898438 "/></g></g></g><g fill="#000000" fill-opacity="1"><g transform="translate(173.532761, 241.2711)"><g><path d="M 1.445312 -1.675781 C 1.445312 -1.601562 1.386719 -1.542969 1.308594 -1.542969 C 1.273438 -1.542969 1.25 -1.511719 1.25 -1.476562 C 1.25 -1.445312 1.273438 -1.417969 1.308594 -1.417969 C 1.386719 -1.417969 1.445312 -1.355469 1.445312 -1.285156 C 1.445312 -1.25 1.46875 -1.21875 1.503906 -1.21875 C 1.535156 -1.21875 1.566406 -1.25 1.566406 -1.285156 L 1.566406 -1.675781 C 1.566406 -1.710938 1.535156 -1.734375 1.503906 -1.734375 C 1.46875 -1.734375 1.445312 -1.710938 1.445312 -1.675781 Z M 2.273438 -2.210938 C 2.273438 -2.179688 2.296875 -2.152344 2.332031 -2.152344 C 2.363281 -2.152344 2.390625 -2.179688 2.390625 -2.210938 L 2.390625 -2.890625 C 2.390625 -2.925781 2.363281 -2.953125 2.332031 -2.953125 L 0.160156 -2.953125 C 0.125 -2.953125 0.101562 -2.925781 0.101562 -2.890625 C 0.101562 -2.859375 0.125 -2.832031 0.160156 -2.832031 C 0.238281 -2.832031 0.296875 -2.769531 0.296875 -2.699219 L 0.296875 -0.253906 C 0.296875 -0.179688 0.238281 -0.117188 0.160156 -0.117188 C 0.125 -0.117188 0.101562 -0.09375 0.101562 -0.0585938 C 0.101562 -0.0234375 0.125 0.00390625 0.160156 0.00390625 L 2.332031 0.00390625 C 2.363281 0.00390625 2.390625 -0.0234375 2.390625 -0.0585938 L 2.390625 -0.738281 C 2.390625 -0.773438 2.363281 -0.796875 2.332031 -0.796875 C 2.296875 -0.796875 2.273438 -0.773438 2.273438 -0.738281 C 2.273438 -0.398438 1.992188 -0.117188 1.652344 -0.117188 L 0.90625 -0.117188 L 0.90625 -2.832031 L 1.652344 -2.832031 C 1.992188 -2.832031 2.273438 -2.554688 2.273438 -2.210938 Z M 2.273438 -2.210938 "/></g></g></g><g fill="#000000" fill-opacity="1"><g transform="translate(176.036858, 241.2711)"><g/></g></g><g fill="#000000" fill-opacity="1"><g transform="translate(177.557056, 241.2711)"><g><path d="M 1.097656 -1.535156 L 0.160156 -1.535156 C 0.125 -1.535156 0.101562 -1.507812 0.101562 -1.472656 C 0.101562 -1.445312 0.125 -1.414062 0.160156 -1.414062 L 1.097656 -1.414062 C 1.132812 -1.414062 1.160156 -1.445312 1.160156 -1.472656 C 1.160156 -1.507812 1.132812 -1.535156 1.097656 -1.535156 Z M 1.097656 -1.535156 "/></g></g></g><g fill="#000000" fill-opacity="1"><g transform="translate(178.823884, 241.2711)"><g/></g></g><g fill="#000000" fill-opacity="1"><g transform="translate(180.344083, 241.2711)"><g><path d="M 0.160156 -0.117188 C 0.125 -0.117188 0.101562 -0.09375 0.101562 -0.0585938 C 0.101562 -0.0234375 0.125 0 0.160156 0 L 1.042969 0 C 1.078125 0 1.105469 -0.0234375 1.105469 -0.0585938 C 1.105469 -0.09375 1.078125 -0.117188 1.042969 -0.117188 C 0.972656 -0.117188 0.90625 -0.179688 0.90625 -0.253906 L 0.90625 -0.8125 L 1.601562 -0.8125 C 2.191406 -0.8125 2.671875 -1.292969 2.671875 -1.882812 C 2.671875 -2.472656 2.191406 -2.953125 1.601562 -2.953125 L 0.847656 -2.953125 C 0.847656 -2.953125 0.847656 -2.957031 0.847656 -2.957031 L 0.160156 -2.957031 C 0.125 -2.957031 0.101562 -2.925781 0.101562 -2.890625 C 0.101562 -2.859375 0.125 -2.832031 0.160156 -2.832031 C 0.238281 -2.832031 0.296875 -2.769531 0.296875 -2.699219 L 0.296875 -0.253906 C 0.296875 -0.179688 0.238281 -0.117188 0.160156 -0.117188 Z M 0.90625 -2.832031 L 1.601562 -2.832031 C 1.847656 -2.832031 2.0625 -2.398438 2.0625 -1.882812 C 2.0625 -1.367188 1.847656 -0.933594 1.601562 -0.933594 L 0.90625 -0.933594 Z M 0.90625 -2.832031 "/></g></g></g><g fill="#000000" fill-opacity="1"><g transform="translate(183.126883, 241.2711)"><g><path d="M 2.886719 -0.117188 C 2.800781 -0.117188 2.679688 -0.191406 2.621094 -0.277344 L 2.179688 -0.980469 C 2.484375 -1.179688 2.671875 -1.515625 2.671875 -1.882812 C 2.671875 -2.464844 2.195312 -2.949219 1.613281 -2.953125 C 1.609375 -2.953125 1.605469 -2.957031 1.601562 -2.957031 L 0.160156 -2.957031 C 0.125 -2.957031 0.101562 -2.925781 0.101562 -2.890625 C 0.101562 -2.859375 0.125 -2.832031 0.160156 -2.832031 C 0.238281 -2.832031 0.296875 -2.769531 0.296875 -2.699219 L 0.296875 -0.253906 C 0.296875 -0.179688 0.238281 -0.117188 0.160156 -0.117188 C 0.125 -0.117188 0.101562 -0.09375 0.101562 -0.0585938 C 0.101562 -0.0234375 0.125 0 0.160156 0 L 1.042969 0 C 1.078125 0 1.105469 -0.0234375 1.105469 -0.0585938 C 1.105469 -0.09375 1.078125 -0.117188 1.042969 -0.117188 C 0.972656 -0.117188 0.90625 -0.179688 0.90625 -0.253906 L 0.90625 -2.832031 L 1.601562 -2.832031 C 1.605469 -2.832031 1.609375 -2.832031 1.609375 -2.832031 C 1.609375 -2.832031 1.609375 -2.832031 1.613281 -2.832031 C 1.855469 -2.820312 2.0625 -2.386719 2.0625 -1.882812 C 2.0625 -1.628906 2.011719 -1.394531 1.921875 -1.214844 C 1.921875 -1.214844 1.921875 -1.210938 1.921875 -1.210938 C 1.835938 -1.039062 1.722656 -0.9375 1.609375 -0.933594 C 1.609375 -0.933594 1.605469 -0.933594 1.601562 -0.933594 L 1.265625 -0.933594 C 1.238281 -0.933594 1.207031 -0.902344 1.207031 -0.875 C 1.207031 -0.839844 1.238281 -0.8125 1.265625 -0.8125 L 1.5625 -0.8125 L 2.054688 -0.0234375 C 2.070312 -0.0078125 2.085938 0.00390625 2.105469 0.00390625 L 2.886719 0.00390625 C 2.921875 0.00390625 2.949219 -0.0234375 2.949219 -0.0585938 C 2.949219 -0.09375 2.921875 -0.117188 2.886719 -0.117188 Z M 2.886719 -0.117188 "/></g></g></g><g fill="#000000" fill-opacity="1"><g transform="translate(186.188387, 241.2711)"><g><path d="M 1.605469 -2.980469 C 0.773438 -2.980469 0.101562 -2.304688 0.101562 -1.472656 C 0.101562 -0.644531 0.773438 0.03125 1.605469 0.03125 C 2.4375 0.03125 3.113281 -0.644531 3.113281 -1.472656 C 3.113281 -2.304688 2.4375 -2.980469 1.605469 -2.980469 Z M 1.605469 -0.09375 C 1.136719 -0.09375 0.75 -0.714844 0.75 -1.472656 C 0.75 -2.238281 1.136719 -2.859375 1.605469 -2.859375 C 2.078125 -2.859375 2.457031 -2.238281 2.457031 -1.472656 C 2.457031 -0.714844 2.078125 -0.09375 1.605469 -0.09375 Z M 1.605469 -0.09375 "/></g></g></g><g fill="#000000" fill-opacity="1"><g transform="translate(189.410358, 241.2711)"><g><path d="M 1.601562 -2.953125 L 0.847656 -2.953125 C 0.847656 -2.953125 0.847656 -2.957031 0.847656 -2.957031 L 0.160156 -2.957031 C 0.125 -2.957031 0.101562 -2.925781 0.101562 -2.890625 C 0.101562 -2.859375 0.125 -2.832031 0.160156 -2.832031 C 0.238281 -2.832031 0.296875 -2.769531 0.296875 -2.699219 L 0.296875 -0.253906 C 0.296875 -0.179688 0.238281 -0.117188 0.160156 -0.117188 C 0.125 -0.117188 0.101562 -0.09375 0.101562 -0.0585938 C 0.101562 -0.0234375 0.125 0 0.160156 0 L 1.042969 0 C 1.078125 0 1.105469 -0.0234375 1.105469 -0.0585938 C 1.105469 -0.09375 1.078125 -0.117188 1.042969 -0.117188 C 0.972656 -0.117188 0.90625 -0.179688 0.90625 -0.253906 L 0.90625 -2.832031 L 1.601562 -2.832031 C 1.847656 -2.832031 2.0625 -2.398438 2.0625 -1.882812 C 2.0625 -1.367188 1.847656 -0.933594 1.601562 -0.933594 L 1.273438 -0.933594 C 1.242188 -0.933594 1.214844 -0.902344 1.214844 -0.875 C 1.214844 -0.839844 1.242188 -0.8125 1.273438 -0.8125 L 1.601562 -0.8125 C 2.191406 -0.8125 2.671875 -1.292969 2.671875 -1.882812 C 2.671875 -2.472656 2.191406 -2.953125 1.601562 -2.953125 Z M 1.601562 -2.953125 "/></g></g></g><g fill="#000000" fill-opacity="1"><g transform="translate(192.188938, 241.2711)"><g><path d="M 2.886719 -0.117188 C 2.800781 -0.117188 2.679688 -0.191406 2.621094 -0.277344 L 2.179688 -0.980469 C 2.484375 -1.179688 2.671875 -1.515625 2.671875 -1.882812 C 2.671875 -2.464844 2.195312 -2.949219 1.613281 -2.953125 C 1.609375 -2.953125 1.605469 -2.957031 1.601562 -2.957031 L 0.160156 -2.957031 C 0.125 -2.957031 0.101562 -2.925781 0.101562 -2.890625 C 0.101562 -2.859375 0.125 -2.832031 0.160156 -2.832031 C 0.238281 -2.832031 0.296875 -2.769531 0.296875 -2.699219 L 0.296875 -0.253906 C 0.296875 -0.179688 0.238281 -0.117188 0.160156 -0.117188 C 0.125 -0.117188 0.101562 -0.09375 0.101562 -0.0585938 C 0.101562 -0.0234375 0.125 0 0.160156 0 L 1.042969 0 C 1.078125 0 1.105469 -0.0234375 1.105469 -0.0585938 C 1.105469 -0.09375 1.078125 -0.117188 1.042969 -0.117188 C 0.972656 -0.117188 0.90625 -0.179688 0.90625 -0.253906 L 0.90625 -2.832031 L 1.601562 -2.832031 C 1.605469 -2.832031 1.609375 -2.832031 1.609375 -2.832031 C 1.609375 -2.832031 1.609375 -2.832031 1.613281 -2.832031 C 1.855469 -2.820312 2.0625 -2.386719 2.0625 -1.882812 C 2.0625 -1.628906 2.011719 -1.394531 1.921875 -1.214844 C 1.921875 -1.214844 1.921875 -1.210938 1.921875 -1.210938 C 1.835938 -1.039062 1.722656 -0.9375 1.609375 -0.933594 C 1.609375 -0.933594 1.605469 -0.933594 1.601562 -0.933594 L 1.265625 -0.933594 C 1.238281 -0.933594 1.207031 -0.902344 1.207031 -0.875 C 1.207031 -0.839844 1.238281 -0.8125 1.265625 -0.8125 L 1.5625 -0.8125 L 2.054688 -0.0234375 C 2.070312 -0.0078125 2.085938 0.00390625 2.105469 0.00390625 L 2.886719 0.00390625 C 2.921875 0.00390625 2.949219 -0.0234375 2.949219 -0.0585938 C 2.949219 -0.09375 2.921875 -0.117188 2.886719 -0.117188 Z M 2.886719 -0.117188 "/></g></g></g><g fill="#000000" fill-opacity="1"><g transform="translate(195.250442, 241.2711)"><g><path d="M 1.445312 -1.675781 C 1.445312 -1.601562 1.386719 -1.542969 1.308594 -1.542969 C 1.273438 -1.542969 1.25 -1.511719 1.25 -1.476562 C 1.25 -1.445312 1.273438 -1.417969 1.308594 -1.417969 C 1.386719 -1.417969 1.445312 -1.355469 1.445312 -1.285156 C 1.445312 -1.25 1.46875 -1.21875 1.503906 -1.21875 C 1.535156 -1.21875 1.566406 -1.25 1.566406 -1.285156 L 1.566406 -1.675781 C 1.566406 -1.710938 1.535156 -1.734375 1.503906 -1.734375 C 1.46875 -1.734375 1.445312 -1.710938 1.445312 -1.675781 Z M 2.273438 -2.210938 C 2.273438 -2.179688 2.296875 -2.152344 2.332031 -2.152344 C 2.363281 -2.152344 2.390625 -2.179688 2.390625 -2.210938 L 2.390625 -2.890625 C 2.390625 -2.925781 2.363281 -2.953125 2.332031 -2.953125 L 0.160156 -2.953125 C 0.125 -2.953125 0.101562 -2.925781 0.101562 -2.890625 C 0.101562 -2.859375 0.125 -2.832031 0.160156 -2.832031 C 0.238281 -2.832031 0.296875 -2.769531 0.296875 -2.699219 L 0.296875 -0.253906 C 0.296875 -0.179688 0.238281 -0.117188 0.160156 -0.117188 C 0.125 -0.117188 0.101562 -0.09375 0.101562 -0.0585938 C 0.101562 -0.0234375 0.125 0.00390625 0.160156 0.00390625 L 2.332031 0.00390625 C 2.363281 0.00390625 2.390625 -0.0234375 2.390625 -0.0585938 L 2.390625 -0.738281 C 2.390625 -0.773438 2.363281 -0.796875 2.332031 -0.796875 C 2.296875 -0.796875 2.273438 -0.773438 2.273438 -0.738281 C 2.273438 -0.398438 1.992188 -0.117188 1.652344 -0.117188 L 0.90625 -0.117188 L 0.90625 -2.832031 L 1.652344 -2.832031 C 1.992188 -2.832031 2.273438 -2.554688 2.273438 -2.210938 Z M 2.273438 -2.210938 "/></g></g></g><g fill="#000000" fill-opacity="1"><g transform="translate(197.754539, 241.2711)"><g><path d="M 2.539062 -2.953125 L 0.160156 -2.953125 C 0.125 -2.953125 0.101562 -2.925781 0.101562 -2.890625 L 0.101562 -2.210938 C 0.101562 -2.179688 0.125 -2.152344 0.160156 -2.152344 C 0.195312 -2.152344 0.21875 -2.179688 0.21875 -2.210938 C 0.21875 -2.554688 0.5 -2.832031 0.839844 -2.832031 L 1.042969 -2.832031 L 1.042969 -0.253906 C 1.042969 -0.179688 0.980469 -0.117188 0.902344 -0.117188 C 0.875 -0.117188 0.84375 -0.09375 0.84375 -0.0585938 C 0.84375 -0.0234375 0.875 0.00390625 0.902344 0.00390625 L 1.789062 0.00390625 C 1.824219 0.00390625 1.847656 -0.0234375 1.847656 -0.0585938 C 1.847656 -0.09375 1.824219 -0.117188 1.789062 -0.117188 C 1.714844 -0.117188 1.65625 -0.179688 1.65625 -0.253906 L 1.65625 -2.832031 L 1.855469 -2.832031 C 2.195312 -2.832031 2.472656 -2.554688 2.472656 -2.210938 C 2.472656 -2.179688 2.503906 -2.152344 2.539062 -2.152344 C 2.570312 -2.152344 2.597656 -2.179688 2.597656 -2.210938 L 2.597656 -2.890625 C 2.597656 -2.925781 2.566406 -2.953125 2.539062 -2.953125 Z M 2.539062 -2.953125 "/></g></g></g><g fill="#000000" fill-opacity="1"><g transform="translate(200.465555, 241.2711)"><g><path d="M 1.203125 -3.335938 L 1.109375 -3.238281 C 1.085938 -3.21875 1.085938 -3.179688 1.109375 -3.15625 C 1.125 -3.140625 1.136719 -3.136719 1.152344 -3.136719 C 1.167969 -3.136719 1.183594 -3.140625 1.195312 -3.15625 L 1.460938 -3.421875 C 1.582031 -3.539062 1.582031 -3.734375 1.460938 -3.855469 C 1.40625 -3.910156 1.324219 -3.945312 1.246094 -3.945312 C 1.164062 -3.945312 1.085938 -3.910156 1.03125 -3.855469 C 0.90625 -3.734375 0.90625 -3.539062 1.03125 -3.421875 C 1.078125 -3.371094 1.140625 -3.34375 1.203125 -3.335938 Z M 1.445312 -1.675781 C 1.445312 -1.601562 1.386719 -1.542969 1.308594 -1.542969 C 1.273438 -1.542969 1.25 -1.511719 1.25 -1.476562 C 1.25 -1.445312 1.273438 -1.417969 1.308594 -1.417969 C 1.386719 -1.417969 1.445312 -1.359375 1.445312 -1.285156 C 1.445312 -1.25 1.46875 -1.21875 1.503906 -1.21875 C 1.535156 -1.21875 1.566406 -1.25 1.566406 -1.285156 L 1.566406 -1.675781 C 1.566406 -1.710938 1.535156 -1.734375 1.503906 -1.734375 C 1.46875 -1.734375 1.445312 -1.710938 1.445312 -1.675781 Z M 2.273438 -2.210938 C 2.273438 -2.179688 2.296875 -2.152344 2.332031 -2.152344 C 2.363281 -2.152344 2.390625 -2.179688 2.390625 -2.210938 L 2.390625 -2.890625 C 2.390625 -2.925781 2.363281 -2.953125 2.332031 -2.953125 L 0.160156 -2.953125 C 0.125 -2.953125 0.101562 -2.925781 0.101562 -2.890625 C 0.101562 -2.859375 0.125 -2.832031 0.160156 -2.832031 C 0.238281 -2.832031 0.296875 -2.769531 0.296875 -2.699219 L 0.296875 -0.253906 C 0.296875 -0.179688 0.238281 -0.117188 0.160156 -0.117188 C 0.125 -0.117188 0.101562 -0.09375 0.101562 -0.0585938 C 0.101562 -0.0234375 0.125 0.00390625 0.160156 0.00390625 L 2.332031 0.00390625 C 2.363281 0.00390625 2.390625 -0.0234375 2.390625 -0.0585938 L 2.390625 -0.738281 C 2.390625 -0.773438 2.363281 -0.796875 2.332031 -0.796875 C 2.296875 -0.796875 2.273438 -0.773438 2.273438 -0.738281 C 2.273438 -0.398438 1.992188 -0.117188 1.652344 -0.117188 L 0.90625 -0.117188 L 0.90625 -2.832031 L 1.652344 -2.832031 C 1.992188 -2.832031 2.273438 -2.554688 2.273438 -2.210938 Z M 2.273438 -2.210938 "/></g></g></g><g fill="#000000" fill-opacity="1"><g transform="translate(202.967972, 241.2711)"><g/></g></g><g fill="#ff66c4" fill-opacity="1"><g transform="translate(260.50294, 234.552406)"><g><path d="M 18.324219 0.691406 C 30.375 0.691406 35.511719 -4.789062 35.511719 -18.175781 L 35.511719 -37.683594 L 9.878906 -37.683594 L 9.878906 -26.820312 C 13.136719 -27.015625 17.433594 -27.015625 20.695312 -27.015625 L 20.695312 -12.742188 C 20.695312 -11.753906 20.695312 -10.71875 20.695312 -9.730469 L 18.769531 -9.730469 C 16.839844 -9.730469 15.410156 -10.667969 15.410156 -15.210938 L 1.234375 -15.210938 C 1.234375 -4.9375 6.222656 0.691406 18.324219 0.691406 Z M 18.324219 0.691406 "/></g></g></g><g fill="#ff66c4" fill-opacity="1"><g transform="translate(297.148537, 234.552406)"><g><path d="M 9.433594 -30.324219 C 16.003906 -30.324219 18.273438 -31.855469 18.273438 -35.363281 C 18.273438 -38.871094 16.003906 -40.5 9.433594 -40.5 C 2.863281 -40.5 0.640625 -38.871094 0.640625 -35.363281 C 0.640625 -31.855469 2.863281 -30.324219 9.433594 -30.324219 Z M 1.976562 0 L 16.839844 0 C 16.792969 -2.667969 16.742188 -8.941406 16.742188 -13.484375 C 16.742188 -20.25 16.792969 -26.621094 16.839844 -29.386719 C 15.0625 -29.140625 12.839844 -28.792969 9.433594 -28.792969 C 6.171875 -28.792969 3.703125 -29.140625 1.976562 -29.386719 C 2.125 -24.449219 2.171875 -19.953125 2.171875 -13.484375 C 2.171875 -9.433594 2.125 -4.890625 1.976562 0 Z M 1.976562 0 "/></g></g></g><g fill="#ff66c4" fill-opacity="1"><g transform="translate(315.965213, 234.552406)"><g><path d="M 11.113281 -30.324219 C 17.679688 -30.324219 19.953125 -31.855469 19.953125 -35.363281 C 19.953125 -38.871094 17.679688 -40.5 11.113281 -40.5 C 4.542969 -40.5 2.320312 -38.871094 2.320312 -35.363281 C 2.320312 -31.855469 4.542969 -30.324219 11.113281 -30.324219 Z M 6.273438 5.730469 C 14.765625 5.730469 18.371094 3.457031 18.371094 -4.691406 L 18.421875 -16.296875 C 18.421875 -19.558594 18.472656 -26.867188 18.519531 -29.386719 C 15.953125 -28.992188 13.632812 -28.792969 11.261719 -28.792969 C 8.792969 -28.792969 6.320312 -28.992188 3.65625 -29.386719 C 3.804688 -24.398438 3.851562 -20.398438 3.851562 -16.496094 C 3.851562 -14.570312 3.753906 -8.496094 3.753906 -6.027344 L 3.753906 -5.234375 C 3.753906 -5.234375 2.863281 -5.234375 1.332031 -5.234375 L 0.492188 -5.234375 L 0.246094 5.480469 C 1.628906 5.582031 4.148438 5.730469 6.273438 5.730469 Z M 6.273438 5.730469 "/></g></g></g><g fill="#ff66c4" fill-opacity="1"><g transform="translate(336.461065, 234.552406)"><g><path d="M 9.433594 -30.324219 C 16.003906 -30.324219 18.273438 -31.855469 18.273438 -35.363281 C 18.273438 -38.871094 16.003906 -40.5 9.433594 -40.5 C 2.863281 -40.5 0.640625 -38.871094 0.640625 -35.363281 C 0.640625 -31.855469 2.863281 -30.324219 9.433594 -30.324219 Z M 1.976562 0 L 16.839844 0 C 16.792969 -2.667969 16.742188 -8.941406 16.742188 -13.484375 C 16.742188 -20.25 16.792969 -26.621094 16.839844 -29.386719 C 15.0625 -29.140625 12.839844 -28.792969 9.433594 -28.792969 C 6.171875 -28.792969 3.703125 -29.140625 1.976562 -29.386719 C 2.125 -24.449219 2.171875 -19.953125 2.171875 -13.484375 C 2.171875 -9.433594 2.125 -4.890625 1.976562 0 Z M 1.976562 0 "/></g></g></g><g fill="#ff66c4" fill-opacity="1"><g transform="translate(355.274112, 234.552406)"><g/></g></g><g mask="url(#id3)"><g transform="matrix(1, 0, 0, 1, 278, 179)"><g clip-path="url(#id8)"><path fill="#f4c91b" d="M 32.488281 25.511719 C 38.808594 25.511719 43.933594 30.84375 43.933594 37.417969 C 43.933594 43.996094 38.808594 49.328125 32.488281 49.328125 C 26.167969 49.328125 21.042969 43.996094 21.042969 37.417969 C 21.042969 30.84375 26.167969 25.511719 32.488281 25.511719 " fill-opacity="1" fill-rule="nonzero"/><g clip-path="url(#id4)"><path fill="#f4c91b" d="M 8.664062 54.660156 C 13.019531 54.660156 16.546875 58.332031 16.546875 62.863281 C 16.546875 67.394531 13.019531 71.066406 8.664062 71.066406 C 4.3125 71.066406 0.78125 67.394531 0.78125 62.863281 C 0.78125 58.332031 4.3125 54.660156 8.664062 54.660156 " fill-opacity="1" fill-rule="nonzero"/></g><g clip-path="url(#id5)"><path fill="#f4c91b" d="M 61.375 37.417969 C 65.730469 37.417969 69.257812 41.089844 69.257812 45.621094 C 69.257812 50.152344 65.730469 53.824219 61.375 53.824219 C 57.019531 53.824219 53.492188 50.152344 53.492188 45.621094 C 53.492188 41.089844 57.019531 37.417969 61.375 37.417969 " fill-opacity="1" fill-rule="nonzero"/></g><path fill="#f4c91b" d="M 11 15.285156 C 14.195312 15.285156 16.785156 17.980469 16.785156 21.300781 C 16.785156 24.625 14.195312 27.324219 11 27.324219 C 7.804688 27.324219 5.214844 24.625 5.214844 21.300781 C 5.214844 17.980469 7.804688 15.285156 11 15.285156 " fill-opacity="1" fill-rule="nonzero"/><g clip-path="url(#id6)"><path fill="#f4c91b" d="M 52.628906 0.789062 C 54.863281 0.789062 56.671875 2.675781 56.671875 5 C 56.671875 7.320312 54.863281 9.207031 52.628906 9.207031 C 50.394531 9.207031 48.585938 7.320312 48.585938 5 C 48.585938 2.675781 50.394531 0.789062 52.628906 0.789062 " fill-opacity="1" fill-rule="nonzero"/></g><g clip-path="url(#id7)"><path fill="#f4c91b" d="M 52.628906 64.363281 C 54.863281 64.363281 56.671875 66.246094 56.671875 68.570312 C 56.671875 70.894531 54.863281 72.777344 52.628906 72.777344 C 50.394531 72.777344 48.585938 70.894531 48.585938 68.570312 C 48.585938 66.246094 50.394531 64.363281 52.628906 64.363281 " fill-opacity="1" fill-rule="nonzero"/></g><path fill="#ffffff" d="M 35.792969 28.28125 C 37.707031 28.28125 39.257812 29.894531 39.257812 31.886719 C 39.257812 33.875 37.707031 35.488281 35.792969 35.488281 C 33.878906 35.488281 32.328125 33.875 32.328125 31.886719 C 32.328125 29.894531 33.878906 28.28125 35.792969 28.28125 " fill-opacity="1" fill-rule="nonzero"/><path fill="#ffffff" d="M 10.578125 57.246094 C 11.832031 57.246094 12.84375 58.300781 12.84375 59.601562 C 12.84375 60.90625 11.832031 61.960938 10.578125 61.960938 C 9.324219 61.960938 8.3125 60.90625 8.3125 59.601562 C 8.3125 58.300781 9.324219 57.246094 10.578125 57.246094 " fill-opacity="1" fill-rule="nonzero"/><path fill="#ffffff" d="M 63.644531 38.964844 C 64.894531 38.964844 65.910156 40.019531 65.910156 41.320312 C 65.910156 42.625 64.894531 43.679688 63.644531 43.679688 C 62.390625 43.679688 61.375 42.625 61.375 41.320312 C 61.375 40.019531 62.390625 38.964844 63.644531 38.964844 " fill-opacity="1" fill-rule="nonzero"/></g></g></g><g fill="#000000" fill-opacity="1"><g transform="translate(390.20705, 217.499764)"><g><path d="M 16.621094 -10.171875 L 15.457031 -2.964844 C 15.34375 -2.238281 14.90625 -1.683594 14.179688 -1.683594 L 5.289062 -1.683594 C 4.5625 -1.683594 4.125 -2.238281 4.011719 -2.964844 L 2.847656 -10.171875 L 1.164062 -10.171875 L 2.324219 -2.964844 C 2.601562 -1.25 3.574219 0 5.289062 0 L 14.179688 0 C 15.894531 0 16.867188 -1.25 17.144531 -2.964844 L 18.304688 -10.171875 Z M 16.621094 -10.171875 "/></g></g></g><g fill="#000000" fill-opacity="1"><g transform="translate(409.672878, 217.499764)"><g><path d="M 1.164062 0 L 14.820312 0 L 14.820312 -1.683594 L 8.832031 -1.683594 L 8.832031 -8.484375 L 14.820312 -8.484375 L 14.820312 -10.171875 L 1.164062 -10.171875 L 1.164062 -8.484375 L 7.148438 -8.484375 L 7.148438 -1.683594 L 1.164062 -1.683594 Z M 1.164062 0 "/></g></g></g><g fill="#000000" fill-opacity="1"><g transform="translate(425.652292, 217.499764)"><g><path d="M 1.164062 0 L 2.847656 0 L 2.847656 -4.242188 L 13.222656 -4.242188 C 15.183594 -4.242188 16.621094 -2.804688 16.621094 -0.84375 L 16.621094 0 L 18.304688 0 L 18.304688 -0.84375 C 18.304688 -2.367188 17.738281 -3.675781 16.78125 -4.578125 C 17.710938 -5.054688 18.304688 -6.03125 18.304688 -7.207031 C 18.304688 -8.921875 17.054688 -10.171875 15.34375 -10.171875 L 1.164062 -10.171875 Z M 2.847656 -5.925781 L 2.847656 -8.484375 L 15.34375 -8.484375 C 16.070312 -8.484375 16.621094 -7.933594 16.621094 -7.207031 C 16.621094 -6.480469 16.070312 -5.925781 15.34375 -5.925781 Z M 2.847656 -5.925781 "/></g></g></g><g fill="#000000" fill-opacity="1"><g transform="translate(445.11812, 217.499764)"><g><path d="M 16.621094 -10.171875 L 16.621094 -2.964844 C 16.621094 -2.238281 16.070312 -1.683594 15.34375 -1.683594 L 4.125 -1.683594 C 3.398438 -1.683594 2.847656 -2.238281 2.847656 -2.964844 L 2.847656 -10.171875 L 1.164062 -10.171875 L 1.164062 -2.964844 C 1.164062 -1.25 2.410156 0 4.125 0 L 15.34375 0 C 17.054688 0 18.304688 -1.25 18.304688 -2.964844 L 18.304688 -10.171875 Z M 16.621094 -10.171875 "/></g></g></g><g fill="#000000" fill-opacity="1"><g transform="translate(464.583949, 217.499764)"><g><path d="M 2.847656 -2.964844 L 2.847656 -7.207031 C 2.847656 -7.933594 3.398438 -8.484375 4.125 -8.484375 L 18.304688 -8.484375 L 18.304688 -10.171875 L 4.125 -10.171875 C 2.410156 -10.171875 1.164062 -8.921875 1.164062 -7.207031 L 1.164062 -2.964844 C 1.164062 -1.25 2.410156 0 4.125 0 L 18.304688 0 L 18.304688 -1.683594 L 4.125 -1.683594 C 3.398438 -1.683594 2.847656 -2.238281 2.847656 -2.964844 Z M 2.847656 -2.964844 "/></g></g></g><g fill="#000000" fill-opacity="1"><g transform="translate(484.049783, 217.499764)"><g><path d="M 1.164062 0 L 14.820312 0 L 14.820312 -1.683594 L 8.832031 -1.683594 L 8.832031 -8.484375 L 14.820312 -8.484375 L 14.820312 -10.171875 L 1.164062 -10.171875 L 1.164062 -8.484375 L 7.148438 -8.484375 L 7.148438 -1.683594 L 1.164062 -1.683594 Z M 1.164062 0 "/></g></g></g><g fill="#000000" fill-opacity="1"><g transform="translate(500.029202, 217.499764)"><g><path d="M 1.164062 0 L 15.34375 0 C 17.054688 0 18.304688 -1.25 18.304688 -2.964844 L 18.304688 -7.207031 C 18.304688 -8.921875 17.054688 -10.171875 15.34375 -10.171875 L 1.164062 -10.171875 Z M 2.847656 -1.683594 L 2.847656 -8.484375 L 15.34375 -8.484375 C 16.070312 -8.484375 16.621094 -7.933594 16.621094 -7.207031 L 16.621094 -2.964844 C 16.621094 -2.238281 16.070312 -1.683594 15.34375 -1.683594 Z M 2.847656 -1.683594 "/></g></g></g><g fill="#000000" fill-opacity="1"><g transform="translate(519.49503, 217.499764)"><g><path d="M 1.164062 -7.207031 L 1.164062 -2.964844 C 1.164062 -1.25 2.410156 0 4.125 0 L 18.304688 0 L 18.304688 -1.683594 L 4.125 -1.683594 C 3.398438 -1.683594 2.847656 -2.238281 2.847656 -2.964844 L 2.847656 -4.242188 L 18.304688 -4.242188 L 18.304688 -5.925781 L 2.847656 -5.925781 L 2.847656 -7.207031 C 2.847656 -7.933594 3.398438 -8.484375 4.125 -8.484375 L 18.304688 -8.484375 L 18.304688 -10.171875 L 4.125 -10.171875 C 2.410156 -10.171875 1.164062 -8.921875 1.164062 -7.207031 Z M 1.164062 -7.207031 "/></g></g></g><path stroke-linecap="butt" transform="matrix(6.877957, 0, 0, 7.697993, 380.841463, 222.307335)" fill="none" stroke-linejoin="miter" d="M -0.000235422 0.000163501 L 24.42903 0.000163501 " stroke="#000000" stroke-width="1" stroke-opacity="1" stroke-miterlimit="4"/><g fill="#ffffff" fill-opacity="1"><g transform="translate(415.594142, 224.227069)"><g><path d="M 0.511719 0 L 6.769531 0 C 7.523438 0 8.078125 -0.550781 8.078125 -1.308594 L 8.078125 -3.179688 C 8.078125 -3.9375 7.523438 -4.488281 6.769531 -4.488281 L 0.511719 -4.488281 Z M 1.257812 -0.742188 L 1.257812 -3.742188 L 6.769531 -3.742188 C 7.089844 -3.742188 7.332031 -3.5 7.332031 -3.179688 L 7.332031 -1.308594 C 7.332031 -0.988281 7.089844 -0.742188 6.769531 -0.742188 Z M 1.257812 -0.742188 "/></g></g></g><g fill="#ffffff" fill-opacity="1"><g transform="translate(424.183189, 224.227069)"><g><path d="M 0.511719 -3.179688 L 0.511719 -1.308594 C 0.511719 -0.550781 1.0625 0 1.820312 0 L 8.078125 0 L 8.078125 -0.742188 L 1.820312 -0.742188 C 1.5 -0.742188 1.257812 -0.988281 1.257812 -1.308594 L 1.257812 -1.871094 L 8.078125 -1.871094 L 8.078125 -2.613281 L 1.257812 -2.613281 L 1.257812 -3.179688 C 1.257812 -3.5 1.5 -3.742188 1.820312 -3.742188 L 8.078125 -3.742188 L 8.078125 -4.488281 L 1.820312 -4.488281 C 1.0625 -4.488281 0.511719 -3.9375 0.511719 -3.179688 Z M 0.511719 -3.179688 "/></g></g></g><g fill="#ffffff" fill-opacity="1"><g transform="translate(432.772237, 224.227069)"><g><path d="M 6.769531 -2.613281 L 1.820312 -2.613281 C 1.5 -2.613281 1.257812 -2.859375 1.257812 -3.179688 C 1.257812 -3.5 1.5 -3.742188 1.820312 -3.742188 L 7.882812 -3.742188 L 7.882812 -4.488281 L 1.820312 -4.488281 C 1.0625 -4.488281 0.511719 -3.9375 0.511719 -3.179688 C 0.511719 -2.421875 1.0625 -1.871094 1.820312 -1.871094 L 6.769531 -1.871094 C 7.089844 -1.871094 7.332031 -1.628906 7.332031 -1.308594 C 7.332031 -0.988281 7.089844 -0.742188 6.769531 -0.742188 L 0.703125 -0.742188 L 0.703125 0 L 6.769531 0 C 7.523438 0 8.078125 -0.550781 8.078125 -1.308594 C 8.078125 -2.0625 7.523438 -2.613281 6.769531 -2.613281 Z M 6.769531 -2.613281 "/></g></g></g><g fill="#ffffff" fill-opacity="1"><g transform="translate(441.361284, 224.227069)"><g><path d="M 0.511719 0 L 6.539062 0 L 6.539062 -0.742188 L 3.898438 -0.742188 L 3.898438 -3.742188 L 6.539062 -3.742188 L 6.539062 -4.488281 L 0.511719 -4.488281 L 0.511719 -3.742188 L 3.152344 -3.742188 L 3.152344 -0.742188 L 0.511719 -0.742188 Z M 0.511719 0 "/></g></g></g><g fill="#ffffff" fill-opacity="1"><g transform="translate(448.411995, 224.227069)"><g><path d="M 7.332031 -3.179688 L 7.332031 0 L 8.078125 0 L 8.078125 -3.179688 C 8.078125 -3.9375 7.523438 -4.488281 6.769531 -4.488281 L 1.820312 -4.488281 C 1.0625 -4.488281 0.511719 -3.9375 0.511719 -3.179688 L 0.511719 0 L 1.257812 0 L 1.257812 -3.179688 C 1.257812 -3.5 1.5 -3.742188 1.820312 -3.742188 L 6.769531 -3.742188 C 7.089844 -3.742188 7.332031 -3.5 7.332031 -3.179688 Z M 7.332031 -3.179688 "/></g></g></g><g fill="#ffffff" fill-opacity="1"><g transform="translate(457.001042, 224.227069)"><g><path d="M 0.511719 -3.179688 L 0.511719 0 L 1.257812 0 L 1.257812 -1.871094 L 8.078125 -1.871094 L 8.078125 -2.613281 L 1.257812 -2.613281 L 1.257812 -3.179688 C 1.257812 -3.5 1.5 -3.742188 1.820312 -3.742188 L 8.078125 -3.742188 L 8.078125 -4.488281 L 1.820312 -4.488281 C 1.0625 -4.488281 0.511719 -3.9375 0.511719 -3.179688 Z M 0.511719 -3.179688 "/></g></g></g><g fill="#ffffff" fill-opacity="1"><g transform="translate(465.590089, 224.227069)"><g><path d="M 0.511719 -3.179688 L 0.511719 -1.308594 C 0.511719 -0.550781 1.0625 0 1.820312 0 L 8.078125 0 L 8.078125 -0.742188 L 1.820312 -0.742188 C 1.5 -0.742188 1.257812 -0.988281 1.257812 -1.308594 L 1.257812 -1.871094 L 8.078125 -1.871094 L 8.078125 -2.613281 L 1.257812 -2.613281 L 1.257812 -3.179688 C 1.257812 -3.5 1.5 -3.742188 1.820312 -3.742188 L 8.078125 -3.742188 L 8.078125 -4.488281 L 1.820312 -4.488281 C 1.0625 -4.488281 0.511719 -3.9375 0.511719 -3.179688 Z M 0.511719 -3.179688 "/></g></g></g><g fill="#ffffff" fill-opacity="1"><g transform="translate(474.179137, 224.227069)"><g><path d="M 1.257812 -1.308594 L 1.257812 -3.179688 C 1.257812 -3.5 1.5 -3.742188 1.820312 -3.742188 L 8.078125 -3.742188 L 8.078125 -4.488281 L 1.820312 -4.488281 C 1.0625 -4.488281 0.511719 -3.9375 0.511719 -3.179688 L 0.511719 -1.308594 C 0.511719 -0.550781 1.0625 0 1.820312 0 L 8.078125 0 L 8.078125 -0.742188 L 1.820312 -0.742188 C 1.5 -0.742188 1.257812 -0.988281 1.257812 -1.308594 Z M 1.257812 -1.308594 "/></g></g></g><g fill="#ffffff" fill-opacity="1"><g transform="translate(482.768184, 224.227069)"><g><path d="M 4.179688 0 L 4.921875 0 L 4.921875 -3.742188 L 8.589844 -3.742188 L 8.589844 -4.488281 L 0.511719 -4.488281 L 0.511719 -3.742188 L 4.179688 -3.742188 Z M 4.179688 0 "/></g></g></g><g fill="#ffffff" fill-opacity="1"><g transform="translate(491.870011, 224.227069)"><g><path d="M 0.511719 0 L 6.539062 0 L 6.539062 -0.742188 L 3.898438 -0.742188 L 3.898438 -3.742188 L 6.539062 -3.742188 L 6.539062 -4.488281 L 0.511719 -4.488281 L 0.511719 -3.742188 L 3.152344 -3.742188 L 3.152344 -0.742188 L 0.511719 -0.742188 Z M 0.511719 0 "/></g></g></g><g fill="#ffffff" fill-opacity="1"><g transform="translate(498.920721, 224.227069)"><g><path d="M 2.691406 -5.230469 L 4.292969 -5.421875 L 5.898438 -5.230469 L 5.898438 -5.972656 L 4.292969 -6.167969 L 2.691406 -5.972656 Z M 0.511719 -1.308594 C 0.511719 -0.550781 1.0625 0 1.820312 0 L 6.769531 0 C 7.523438 0 8.078125 -0.550781 8.078125 -1.308594 L 8.078125 -3.179688 C 8.078125 -3.9375 7.523438 -4.488281 6.769531 -4.488281 L 1.820312 -4.488281 C 1.0625 -4.488281 0.511719 -3.9375 0.511719 -3.179688 Z M 1.257812 -1.308594 L 1.257812 -3.179688 C 1.257812 -3.5 1.5 -3.742188 1.820312 -3.742188 L 6.769531 -3.742188 C 7.089844 -3.742188 7.332031 -3.5 7.332031 -3.179688 L 7.332031 -1.308594 C 7.332031 -0.988281 7.089844 -0.742188 6.769531 -0.742188 L 1.820312 -0.742188 C 1.5 -0.742188 1.257812 -0.988281 1.257812 -1.308594 Z M 1.257812 -1.308594 "/></g></g></g><g fill="#ffffff" fill-opacity="1"><g transform="translate(507.509769, 224.227069)"><g><path d="M 7.332031 -3.179688 L 7.332031 0 L 8.078125 0 L 8.078125 -3.179688 C 8.078125 -3.9375 7.523438 -4.488281 6.769531 -4.488281 L 1.820312 -4.488281 C 1.0625 -4.488281 0.511719 -3.9375 0.511719 -3.179688 L 0.511719 0 L 1.257812 0 L 1.257812 -3.179688 C 1.257812 -3.5 1.5 -3.742188 1.820312 -3.742188 L 6.769531 -3.742188 C 7.089844 -3.742188 7.332031 -3.5 7.332031 -3.179688 Z M 7.332031 -3.179688 "/></g></g></g><g fill="#000000" fill-opacity="1"><g transform="translate(562.004261, 238.863059)"><g><path d="M 22.640625 -39.390625 L 22.640625 -6.234375 C 22.640625 -4.484375 22.0625 -3.003906 20.90625 -1.796875 C 19.75 -0.597656 18.359375 0 16.734375 0 L 8.53125 0 C 6.914062 0 5.523438 -0.609375 4.359375 -1.828125 C 3.203125 -3.054688 2.625 -4.523438 2.625 -6.234375 L 2.625 -39.390625 C 2.625 -41.140625 3.203125 -42.613281 4.359375 -43.8125 C 5.523438 -45.019531 6.914062 -45.625 8.53125 -45.625 L 16.734375 -45.625 C 18.359375 -45.625 19.75 -45.019531 20.90625 -43.8125 C 22.0625 -42.613281 22.640625 -41.140625 22.640625 -39.390625 Z M 15.421875 -6.890625 L 15.421875 -38.734375 L 9.84375 -38.734375 L 9.84375 -6.890625 Z M 15.421875 -6.890625 "/></g></g></g><g fill="#000000" fill-opacity="1"><g transform="translate(587.268475, 238.863059)"><g><path d="M 9.84375 0 L 2.625 0 L 2.625 -45.625 L 9.84375 -45.625 L 9.84375 -42.265625 C 10.101562 -42.835938 10.453125 -43.363281 10.890625 -43.84375 C 12.078125 -45.03125 13.476562 -45.625 15.09375 -45.625 L 16.734375 -45.625 C 18.359375 -45.625 19.75 -45.019531 20.90625 -43.8125 C 22.0625 -42.613281 22.640625 -41.140625 22.640625 -39.390625 L 22.640625 0 L 15.421875 0 L 15.421875 -38.734375 L 9.84375 -38.734375 Z M 9.84375 0 "/></g></g></g><g fill="#000000" fill-opacity="1"><g transform="translate(612.532689, 238.863059)"><g><path d="M 2.625 0 L 2.625 -45.625 L 9.84375 -45.625 L 9.84375 0 Z M 2.625 0 "/></g></g></g><g fill="#000000" fill-opacity="1"><g transform="translate(625.000733, 238.863059)"><g><path d="M 22.578125 0 L 15.15625 0 L 11.359375 -13.59375 L 7.484375 0 L 0.0625 0 L 6.625 -23.375 L 0.390625 -45.625 L 7.8125 -45.625 L 11.359375 -33.21875 L 14.828125 -45.625 L 22.25 -45.625 L 16.015625 -23.375 Z M 22.578125 0 "/></g></g></g></svg>