<svg
  xmlns="http://www.w3.org/2000/svg"
  xmlns:xlink="http://www.w3.org/1999/xlink"
  width="536"
  zoomAndPan="magnify"
  viewBox="0 0 402 261.000006"
  height="347"
  preserveAspectRatio="xMidYMid meet"
  version="1.0"
>
  <defs>
    <filter x="0%" y="0%" width="100%" height="100%" id="id1">
      <feColorMatrix
        values="0 0 0 0 1 0 0 0 0 1 0 0 0 0 1 0 0 0 1 0"
        color-interpolation-filters="sRGB"
      />
    </filter>
    <g />
    <clipPath id="id2">
      <path
        d="M 69 0 L 331 0 L 331 259.519531 L 69 259.519531 Z M 69 0 "
        clip-rule="nonzero"
      />
    </clipPath>
    <mask id="id3">
      <g filter="url(#id1)">
        <rect
          x="-40.2"
          width="482.4"
          fill="#000000"
          y="-26.100001"
          height="313.200007"
          fill-opacity="0.9686"
        />
      </g>
    </mask>
    <clipPath id="id4">
      <path
        d="M 1.050781 196 L 62 196 L 62 257 L 1.050781 257 Z M 1.050781 196 "
        clip-rule="nonzero"
      />
    </clipPath>
    <clipPath id="id5">
      <path
        d="M 201 133 L 261.316406 133 L 261.316406 194 L 201 194 Z M 201 133 "
        clip-rule="nonzero"
      />
    </clipPath>
    <clipPath id="id6">
      <path
        d="M 182 231 L 214 231 L 214 259.519531 L 182 259.519531 Z M 182 231 "
        clip-rule="nonzero"
      />
    </clipPath>
    <clipPath id="id7"><rect x="0" width="262" y="0" height="260" /></clipPath>
  </defs>
  <g fill="#ff66c4" fill-opacity="1">
    <g transform="translate(2.37627, 202.023149)">
      <g>
        <path
          d="M 68.238281 2.574219 C 113.113281 2.574219 132.242188 -17.839844 132.242188 -67.683594 L 132.242188 -140.335938 L 36.785156 -140.335938 L 36.785156 -99.871094 C 48.925781 -100.609375 64.925781 -100.609375 77.066406 -100.609375 L 77.066406 -47.453125 C 77.066406 -43.773438 77.066406 -39.910156 77.066406 -36.234375 L 69.890625 -36.234375 C 62.71875 -36.234375 57.386719 -39.726562 57.386719 -56.648438 L 4.597656 -56.648438 C 4.597656 -18.394531 23.175781 2.574219 68.238281 2.574219 Z M 68.238281 2.574219 "
        />
      </g>
    </g>
  </g>
  <g fill="#ff66c4" fill-opacity="1">
    <g transform="translate(138.844947, 202.023149)">
      <g>
        <path
          d="M 35.128906 -112.929688 C 59.59375 -112.929688 68.054688 -118.632812 68.054688 -131.691406 C 68.054688 -144.75 59.59375 -150.820312 35.128906 -150.820312 C 10.667969 -150.820312 2.390625 -144.75 2.390625 -131.691406 C 2.390625 -118.632812 10.667969 -112.929688 35.128906 -112.929688 Z M 7.355469 0 L 62.71875 0 C 62.535156 -9.933594 62.351562 -33.289062 62.351562 -50.210938 C 62.351562 -75.410156 62.535156 -99.136719 62.71875 -109.4375 C 56.097656 -108.515625 47.820312 -107.230469 35.128906 -107.230469 C 22.992188 -107.230469 13.792969 -108.515625 7.355469 -109.4375 C 7.910156 -91.042969 8.09375 -74.304688 8.09375 -50.210938 C 8.09375 -35.128906 7.910156 -18.207031 7.355469 0 Z M 7.355469 0 "
        />
      </g>
    </g>
  </g>
  <g fill="#ff66c4" fill-opacity="1">
    <g transform="translate(208.918488, 202.023149)">
      <g>
        <path
          d="M 41.382812 -112.929688 C 65.84375 -112.929688 74.304688 -118.632812 74.304688 -131.691406 C 74.304688 -144.75 65.84375 -150.820312 41.382812 -150.820312 C 16.921875 -150.820312 8.644531 -144.75 8.644531 -131.691406 C 8.644531 -118.632812 16.921875 -112.929688 41.382812 -112.929688 Z M 23.359375 21.335938 C 54.992188 21.335938 68.421875 12.875 68.421875 -17.472656 L 68.605469 -60.695312 C 68.605469 -72.835938 68.789062 -100.054688 68.972656 -109.4375 C 59.410156 -107.964844 50.765625 -107.230469 41.933594 -107.230469 C 32.738281 -107.230469 23.542969 -107.964844 13.609375 -109.4375 C 14.164062 -90.859375 14.347656 -75.960938 14.347656 -61.429688 C 14.347656 -54.257812 13.976562 -31.636719 13.976562 -22.4375 L 13.976562 -19.496094 C 13.976562 -19.496094 10.667969 -19.496094 4.964844 -19.496094 L 1.839844 -19.496094 L 0.917969 20.414062 C 6.070312 20.785156 15.449219 21.335938 23.359375 21.335938 Z M 23.359375 21.335938 "
        />
      </g>
    </g>
  </g>
  <g fill="#ff66c4" fill-opacity="1">
    <g transform="translate(285.245306, 202.023149)">
      <g>
        <path
          d="M 35.128906 -112.929688 C 59.59375 -112.929688 68.054688 -118.632812 68.054688 -131.691406 C 68.054688 -144.75 59.59375 -150.820312 35.128906 -150.820312 C 10.667969 -150.820312 2.390625 -144.75 2.390625 -131.691406 C 2.390625 -118.632812 10.667969 -112.929688 35.128906 -112.929688 Z M 7.355469 0 L 62.71875 0 C 62.535156 -9.933594 62.351562 -33.289062 62.351562 -50.210938 C 62.351562 -75.410156 62.535156 -99.136719 62.71875 -109.4375 C 56.097656 -108.515625 47.820312 -107.230469 35.128906 -107.230469 C 22.992188 -107.230469 13.792969 -108.515625 7.355469 -109.4375 C 7.910156 -91.042969 8.09375 -74.304688 8.09375 -50.210938 C 8.09375 -35.128906 7.910156 -18.207031 7.355469 0 Z M 7.355469 0 "
        />
      </g>
    </g>
  </g>
  <g fill="#ff66c4" fill-opacity="1">
    <g transform="translate(355.305336, 202.023149)"><g /></g>
  </g>
  <g clip-path="url(#id2)">
    <g mask="url(#id3)">
      <g transform="matrix(1, 0, 0, 1, 69, 0.000000000000023775)">
        <g clip-path="url(#id7)">
          <path
            fill="#ffde59"
            d="M 121.566406 90.144531 C 145.570312 90.144531 165.027344 109.585938 165.027344 133.566406 C 165.027344 157.546875 145.570312 176.988281 121.566406 176.988281 C 97.566406 176.988281 78.113281 157.546875 78.113281 133.566406 C 78.113281 109.585938 97.566406 90.144531 121.566406 90.144531 "
            fill-opacity="1"
            fill-rule="nonzero"
          />
          <g clip-path="url(#id4)">
            <path
              fill="#ffde59"
              d="M 31.113281 196.441406 C 47.648438 196.441406 61.046875 209.832031 61.046875 226.351562 C 61.046875 242.867188 47.648438 256.261719 31.113281 256.261719 C 14.578125 256.261719 1.179688 242.867188 1.179688 226.351562 C 1.179688 209.832031 14.578125 196.441406 31.113281 196.441406 "
              fill-opacity="1"
              fill-rule="nonzero"
            />
          </g>
          <g clip-path="url(#id5)">
            <path
              fill="#ffde59"
              d="M 231.261719 133.566406 C 247.792969 133.566406 261.191406 146.957031 261.191406 163.476562 C 261.191406 179.996094 247.792969 193.382812 231.261719 193.382812 C 214.722656 193.382812 201.324219 179.996094 201.324219 163.476562 C 201.324219 146.957031 214.722656 133.566406 231.261719 133.566406 "
              fill-opacity="1"
              fill-rule="nonzero"
            />
          </g>
          <path
            fill="#ffde59"
            d="M 39.972656 52.851562 C 52.109375 52.851562 61.945312 62.679688 61.945312 74.800781 C 61.945312 86.921875 52.109375 96.753906 39.972656 96.753906 C 27.839844 96.753906 18.003906 86.921875 18.003906 74.800781 C 18.003906 62.679688 27.839844 52.851562 39.972656 52.851562 "
            fill-opacity="1"
            fill-rule="nonzero"
          />
          <path
            fill="#ffde59"
            d="M 198.046875 0.00390625 C 206.527344 0.00390625 213.398438 6.875 213.398438 15.347656 C 213.398438 23.820312 206.527344 30.6875 198.046875 30.6875 C 189.5625 30.6875 182.691406 23.820312 182.691406 15.347656 C 182.691406 6.875 189.5625 0.00390625 198.046875 0.00390625 "
            fill-opacity="1"
            fill-rule="nonzero"
          />
          <g clip-path="url(#id6)">
            <path
              fill="#ffde59"
              d="M 198.046875 231.816406 C 206.527344 231.816406 213.398438 238.6875 213.398438 247.15625 C 213.398438 255.636719 206.527344 262.503906 198.046875 262.503906 C 189.5625 262.503906 182.691406 255.636719 182.691406 247.15625 C 182.691406 238.6875 189.5625 231.816406 198.046875 231.816406 "
              fill-opacity="1"
              fill-rule="nonzero"
            />
          </g>
          <path
            fill="#ffffff"
            d="M 134.121094 100.253906 C 141.378906 100.253906 147.269531 106.136719 147.269531 113.390625 C 147.269531 120.652344 141.378906 126.527344 134.121094 126.527344 C 126.855469 126.527344 120.96875 120.652344 120.96875 113.390625 C 120.96875 106.136719 126.855469 100.253906 134.121094 100.253906 "
            fill-opacity="1"
            fill-rule="nonzero"
          />
          <path
            fill="#ffffff"
            d="M 38.375 205.863281 C 43.128906 205.863281 46.980469 209.714844 46.980469 214.460938 C 46.980469 219.214844 43.128906 223.0625 38.375 223.0625 C 33.621094 223.0625 29.765625 219.214844 29.765625 214.460938 C 29.765625 209.714844 33.621094 205.863281 38.375 205.863281 "
            fill-opacity="1"
            fill-rule="nonzero"
          />
          <path
            fill="#ffffff"
            d="M 239.863281 139.199219 C 244.621094 139.199219 248.472656 143.046875 248.472656 147.800781 C 248.472656 152.554688 244.621094 156.402344 239.863281 156.402344 C 235.113281 156.402344 231.261719 152.554688 231.261719 147.800781 C 231.261719 143.046875 235.113281 139.199219 239.863281 139.199219 "
            fill-opacity="1"
            fill-rule="nonzero"
          />
        </g>
      </g>
    </g>
  </g>
  <g fill="#ff66c4" fill-opacity="1">
    <g transform="translate(291.874662, 214.662061)">
      <g>
        <path
          d="M 0.582031 0 L 2.648438 0 C 3.496094 0 4.1875 -0.691406 4.1875 -1.570312 C 4.1875 -1.976562 3.992188 -2.378906 3.648438 -2.613281 C 3.976562 -2.839844 4.117188 -3.246094 4.128906 -3.640625 C 4.152344 -4.5625 3.574219 -5.226562 2.648438 -5.226562 L 0.582031 -5.226562 Z M 1.632812 -4.179688 L 2.5625 -4.179688 C 2.859375 -4.179688 3.042969 -3.949219 3.042969 -3.65625 C 3.042969 -3.371094 2.859375 -3.128906 2.5625 -3.128906 L 1.632812 -3.128906 Z M 1.632812 -2.085938 L 2.5625 -2.085938 C 2.859375 -2.085938 3.085938 -1.859375 3.085938 -1.570312 C 3.085938 -1.277344 2.859375 -1.042969 2.5625 -1.042969 L 1.632812 -1.042969 Z M 1.632812 -2.085938 "
        />
      </g>
    </g>
  </g>
  <g fill="#ff66c4" fill-opacity="1">
    <g transform="translate(296.406518, 214.662061)">
      <g>
        <path
          d="M 1.859375 0 L 2.898438 0 L 2.898438 -2.351562 L 4.722656 -5.21875 L 3.445312 -5.21875 L 2.378906 -3.421875 L 1.3125 -5.21875 L 0.0429688 -5.21875 L 1.859375 -2.351562 Z M 1.859375 0 "
        />
      </g>
    </g>
  </g>
  <g fill="#ff66c4" fill-opacity="1">
    <g transform="translate(301.142707, 214.662061)"><g /></g>
  </g>
  <g fill="#ff66c4" fill-opacity="1">
    <g transform="translate(303.215243, 214.662061)">
      <g>
        <path
          d="M 3.902344 -4.007812 L 4.027344 -5.078125 C 3.714844 -5.21875 3.363281 -5.285156 3 -5.285156 C -0.53125 -5.285156 -0.539062 0.015625 3 0.015625 C 3.363281 0.015625 3.824219 -0.0742188 4.144531 -0.203125 L 4.007812 -1.285156 C 3.808594 -1.183594 3.453125 -1.050781 3 -1.050781 C 0.933594 -1.050781 0.933594 -4.234375 3 -4.234375 C 3.453125 -4.234375 3.707031 -4.109375 3.902344 -4.007812 Z M 3.902344 -4.007812 "
        />
      </g>
    </g>
  </g>
  <g fill="#ff66c4" fill-opacity="1">
    <g transform="translate(307.608437, 214.662061)">
      <g>
        <path
          d="M 0.582031 -5.21875 L 0.582031 0 L 3.285156 0 L 3.285156 -1.042969 L 1.628906 -1.042969 L 1.628906 -5.21875 Z M 0.582031 -5.21875 "
        />
      </g>
    </g>
  </g>
  <g fill="#ff66c4" fill-opacity="1">
    <g transform="translate(311.206191, 214.662061)">
      <g>
        <path
          d="M 3.285156 0 L 3.285156 -1.042969 L 1.628906 -1.042969 L 1.628906 -2.085938 L 3 -2.085938 L 3 -3.128906 L 1.628906 -3.128906 L 1.628906 -4.175781 L 3.195312 -4.175781 L 3.195312 -5.21875 L 0.582031 -5.21875 L 0.582031 0 Z M 3.285156 0 "
        />
      </g>
    </g>
  </g>
  <g fill="#ff66c4" fill-opacity="1">
    <g transform="translate(314.884222, 214.662061)">
      <g>
        <path
          d="M 0.117188 0 L 1.300781 0 L 1.503906 -0.5625 L 3.234375 -0.5625 L 3.445312 0 L 4.621094 0 L 2.421875 -5.40625 L 2.3125 -5.40625 Z M 1.882812 -1.539062 L 2.371094 -2.898438 L 2.847656 -1.539062 Z M 1.882812 -1.539062 "
        />
      </g>
    </g>
  </g>
  <g fill="#ff66c4" fill-opacity="1">
    <g transform="translate(319.649603, 214.662061)">
      <g>
        <path
          d="M 1.628906 -2.839844 L 4.269531 0.109375 L 4.546875 0.109375 L 4.546875 -5.210938 L 3.496094 -5.210938 L 3.496094 -2.261719 L 0.859375 -5.328125 L 0.582031 -5.328125 L 0.582031 0 L 1.628906 0 Z M 1.628906 -2.839844 "
        />
      </g>
    </g>
  </g>
  <g fill="#ff66c4" fill-opacity="1">
    <g transform="translate(324.787163, 214.662061)"><g /></g>
  </g>
  <g fill="#ff66c4" fill-opacity="1">
    <g transform="translate(326.8597, 214.662061)">
      <g>
        <path
          d="M 3.015625 -6.414062 L 1.730469 -6.414062 L 1.371094 -5.574219 L 2.3125 -5.574219 Z M 3.285156 0 L 3.285156 -1.042969 L 1.628906 -1.042969 L 1.628906 -2.085938 L 3 -2.085938 L 3 -3.128906 L 1.628906 -3.128906 L 1.628906 -4.175781 L 3.195312 -4.175781 L 3.195312 -5.21875 L 0.582031 -5.21875 L 0.582031 0 Z M 3.285156 0 "
        />
      </g>
    </g>
  </g>
  <g fill="#ff66c4" fill-opacity="1">
    <g transform="translate(330.53773, 214.662061)">
      <g>
        <path
          d="M 0.582031 -5.21875 L 0.582031 0 L 3.285156 0 L 3.285156 -1.042969 L 1.628906 -1.042969 L 1.628906 -5.21875 Z M 0.582031 -5.21875 "
        />
      </g>
    </g>
  </g>
  <g fill="#ff66c4" fill-opacity="1">
    <g transform="translate(334.135485, 214.662061)">
      <g>
        <path
          d="M 1.628906 0 L 1.628906 -5.21875 L 0.582031 -5.21875 L 0.582031 0 Z M 1.628906 0 "
        />
      </g>
    </g>
  </g>
  <g fill="#ff66c4" fill-opacity="1">
    <g transform="translate(336.353976, 214.662061)">
      <g>
        <path
          d="M 2.488281 0 L 2.488281 -4.175781 L 3.789062 -4.175781 L 3.789062 -5.210938 L 0.144531 -5.210938 L 0.144531 -4.175781 L 1.445312 -4.175781 L 1.445312 0 Z M 2.488281 0 "
        />
      </g>
    </g>
  </g>
  <g fill="#ff66c4" fill-opacity="1">
    <g transform="translate(340.345799, 214.662061)">
      <g>
        <path
          d="M 3.285156 0 L 3.285156 -1.042969 L 1.628906 -1.042969 L 1.628906 -2.085938 L 3 -2.085938 L 3 -3.128906 L 1.628906 -3.128906 L 1.628906 -4.175781 L 3.195312 -4.175781 L 3.195312 -5.21875 L 0.582031 -5.21875 L 0.582031 0 Z M 3.285156 0 "
        />
      </g>
    </g>
  </g>
  <g fill="#ff66c4" fill-opacity="1">
    <g transform="translate(344.02383, 214.662061)">
      <g>
        <path
          d="M 3.03125 0.078125 C 2.644531 0.078125 2.285156 0.0078125 1.953125 -0.125 C 1.628906 -0.257812 1.347656 -0.445312 1.109375 -0.6875 C 0.867188 -0.925781 0.679688 -1.207031 0.546875 -1.53125 C 0.421875 -1.851562 0.359375 -2.210938 0.359375 -2.609375 C 0.359375 -2.992188 0.421875 -3.347656 0.546875 -3.671875 C 0.679688 -4.003906 0.867188 -4.289062 1.109375 -4.53125 C 1.347656 -4.769531 1.628906 -4.953125 1.953125 -5.078125 C 2.285156 -5.210938 2.644531 -5.28125 3.03125 -5.28125 C 3.40625 -5.28125 3.753906 -5.210938 4.078125 -5.078125 C 4.398438 -4.953125 4.679688 -4.769531 4.921875 -4.53125 C 5.171875 -4.289062 5.363281 -4.003906 5.5 -3.671875 C 5.644531 -3.347656 5.71875 -2.992188 5.71875 -2.609375 C 5.71875 -2.210938 5.648438 -1.851562 5.515625 -1.53125 C 5.378906 -1.207031 5.191406 -0.925781 4.953125 -0.6875 C 4.710938 -0.445312 4.429688 -0.257812 4.109375 -0.125 C 3.785156 0.0078125 3.425781 0.078125 3.03125 0.078125 Z M 3.03125 -0.3125 C 3.34375 -0.3125 3.632812 -0.367188 3.90625 -0.484375 C 4.175781 -0.597656 4.414062 -0.753906 4.625 -0.953125 C 4.84375 -1.160156 5.007812 -1.398438 5.125 -1.671875 C 5.238281 -1.953125 5.296875 -2.265625 5.296875 -2.609375 C 5.296875 -2.921875 5.238281 -3.210938 5.125 -3.484375 C 5.019531 -3.765625 4.863281 -4.007812 4.65625 -4.21875 C 4.457031 -4.425781 4.21875 -4.585938 3.9375 -4.703125 C 3.664062 -4.828125 3.363281 -4.890625 3.03125 -4.890625 C 2.59375 -4.890625 2.203125 -4.789062 1.859375 -4.59375 C 1.515625 -4.40625 1.242188 -4.132812 1.046875 -3.78125 C 0.859375 -3.4375 0.765625 -3.046875 0.765625 -2.609375 C 0.765625 -2.285156 0.820312 -1.984375 0.9375 -1.703125 C 1.050781 -1.429688 1.207031 -1.191406 1.40625 -0.984375 C 1.601562 -0.773438 1.84375 -0.609375 2.125 -0.484375 C 2.40625 -0.367188 2.707031 -0.3125 3.03125 -0.3125 Z M 2.03125 -1 L 2.03125 -4.203125 L 2.96875 -4.203125 C 3.363281 -4.203125 3.65625 -4.117188 3.84375 -3.953125 C 4.03125 -3.796875 4.125 -3.5625 4.125 -3.25 C 4.125 -3.019531 4.0625 -2.835938 3.9375 -2.703125 C 3.820312 -2.578125 3.691406 -2.484375 3.546875 -2.421875 L 4.40625 -1 L 3.765625 -1 L 3.046875 -2.265625 L 2.59375 -2.265625 L 2.59375 -1 Z M 2.59375 -2.71875 L 2.953125 -2.71875 C 3.140625 -2.71875 3.285156 -2.765625 3.390625 -2.859375 C 3.503906 -2.953125 3.5625 -3.078125 3.5625 -3.234375 C 3.5625 -3.410156 3.507812 -3.535156 3.40625 -3.609375 C 3.3125 -3.691406 3.160156 -3.734375 2.953125 -3.734375 L 2.59375 -3.734375 Z M 2.59375 -2.71875 "
        />
      </g>
    </g>
  </g>
</svg>
