<svg xmlns="http://www.w3.org/2000/svg" xmlns:xlink="http://www.w3.org/1999/xlink" width="793" zoomAndPan="magnify" viewBox="0 0 594.95996 842.24997" height="1122" preserveAspectRatio="xMidYMid meet" version="1.0"><defs><clipPath id="id1"><path d="M 0.246094 117.027344 L 594.675781 117.027344 L 594.675781 711.5 L 0.246094 711.5 Z M 0.246094 117.027344 " clip-rule="nonzero"/></clipPath><clipPath id="id2"><path d="M 77.007812 224 L 457.347656 224 L 457.347656 604 L 77.007812 604 Z M 77.007812 224 " clip-rule="nonzero"/></clipPath></defs><g clip-path="url(#id1)"><path fill="#000000" d="M 297.480469 117.027344 C 133.320312 117.027344 0.246094 250.105469 0.246094 414.265625 C 0.246094 578.421875 133.320312 711.5 297.480469 711.5 C 461.636719 711.5 594.714844 578.421875 594.714844 414.265625 C 594.714844 250.105469 461.636719 117.027344 297.480469 117.027344 " fill-opacity="1" fill-rule="nonzero"/></g><g clip-path="url(#id2)"><path fill="#ffde59" d="M 441.550781 314.09375 C 414.890625 281.441406 370.78125 258.582031 316.367188 258.582031 C 248.328125 258.582031 193.945312 303.230469 177.050781 361.980469 L 419.234375 361.980469 L 402.902344 396.265625 L 169.464844 396.265625 C 168.902344 403.359375 168.367188 408.792969 168.367188 414.226562 C 168.367188 419.65625 168.902344 424.554688 169.464844 430.550781 L 387.109375 430.550781 L 370.78125 464.839844 L 177.066406 464.839844 C 196.65625 529.046875 251.070312 569.332031 321.8125 569.332031 C 370.792969 569.332031 414.34375 548.105469 441.5625 515.453125 L 441.5625 561.730469 C 414.34375 583.492188 368.089844 603.617188 319.109375 603.617188 C 232.042969 603.617188 158.570312 550.835938 138.417969 464.839844 L 76.929688 464.839844 L 93.257812 430.550781 L 131.882812 430.550781 C 131.347656 423.488281 131.347656 418.585938 131.347656 413.691406 C 131.347656 408.257812 131.347656 403.359375 131.882812 396.265625 L 76.929688 396.265625 L 93.257812 361.980469 L 138.410156 361.980469 C 158.566406 276 232.039062 224.289062 321.8125 224.289062 C 373.527344 224.289062 427.941406 246.046875 457.328125 280.898438 L 441.550781 314.085938 Z M 441.550781 314.09375 " fill-opacity="1" fill-rule="nonzero"/></g></svg>