<svg xmlns="http://www.w3.org/2000/svg" xmlns:xlink="http://www.w3.org/1999/xlink" width="793" zoomAndPan="magnify" viewBox="0 0 594.95996 521.249983" height="695" preserveAspectRatio="xMidYMid meet" version="1.0"><defs><g/></defs><g fill="#000000" fill-opacity="1"><g transform="translate(2.976237, 378.513312)"><g><path d="M 152.609375 -265.421875 L 152.609375 -42.03125 C 152.609375 -30.226562 148.703125 -20.269531 140.890625 -12.15625 C 133.078125 -4.050781 123.710938 0 112.796875 0 L 57.5 0 C 46.59375 0 37.226562 -4.125 29.40625 -12.375 C 21.59375 -20.632812 17.6875 -30.519531 17.6875 -42.03125 L 17.6875 -265.421875 C 17.6875 -277.210938 21.59375 -287.160156 29.40625 -295.265625 C 37.226562 -303.378906 46.59375 -307.4375 57.5 -307.4375 L 112.796875 -307.4375 C 123.710938 -307.4375 133.078125 -303.378906 140.890625 -295.265625 C 148.703125 -287.160156 152.609375 -277.210938 152.609375 -265.421875 Z M 103.953125 -46.453125 L 103.953125 -260.984375 L 66.359375 -260.984375 L 66.359375 -46.453125 Z M 103.953125 -46.453125 "/></g></g></g><g fill="#000000" fill-opacity="1"><g transform="translate(173.22404, 378.513312)"><g><path d="M 66.359375 0 L 17.6875 0 L 17.6875 -307.4375 L 66.359375 -307.4375 L 66.359375 -284.875 C 68.128906 -288.707031 70.488281 -292.25 73.4375 -295.5 C 81.394531 -303.457031 90.832031 -307.4375 101.75 -307.4375 L 112.796875 -307.4375 C 123.710938 -307.4375 133.078125 -303.378906 140.890625 -295.265625 C 148.703125 -287.160156 152.609375 -277.210938 152.609375 -265.421875 L 152.609375 0 L 103.953125 0 L 103.953125 -260.984375 L 66.359375 -260.984375 Z M 66.359375 0 "/></g></g></g><g fill="#000000" fill-opacity="1"><g transform="translate(343.471844, 378.513312)"><g><path d="M 17.6875 0 L 17.6875 -307.4375 L 66.359375 -307.4375 L 66.359375 0 Z M 17.6875 0 "/></g></g></g><g fill="#000000" fill-opacity="1"><g transform="translate(427.490171, 378.513312)"><g><path d="M 152.171875 0 L 102.1875 0 L 76.515625 -91.5625 L 50.421875 0 L 0.4375 0 L 44.671875 -157.484375 L 2.65625 -307.4375 L 52.640625 -307.4375 L 76.515625 -223.828125 L 99.96875 -307.4375 L 149.953125 -307.4375 L 107.9375 -157.484375 Z M 152.171875 0 "/></g></g></g><g fill="#000000" fill-opacity="1"><g transform="translate(422.829743, 394.967638)"><g><path d="M 1.71875 0 L 7.800781 0 C 10.296875 0 12.335938 -2.042969 12.335938 -4.621094 C 12.335938 -5.824219 11.757812 -7.007812 10.746094 -7.695312 C 11.714844 -8.359375 12.121094 -9.566406 12.164062 -10.726562 C 12.230469 -13.433594 10.53125 -15.390625 7.800781 -15.390625 L 1.71875 -15.390625 Z M 4.816406 -12.316406 L 7.542969 -12.316406 C 8.425781 -12.316406 8.960938 -11.628906 8.960938 -10.769531 C 8.960938 -9.929688 8.425781 -9.21875 7.542969 -9.21875 L 4.816406 -9.21875 Z M 4.816406 -6.148438 L 7.542969 -6.148438 C 8.425781 -6.148438 9.089844 -5.480469 9.089844 -4.621094 C 9.089844 -3.761719 8.425781 -3.074219 7.542969 -3.074219 L 4.816406 -3.074219 Z M 4.816406 -6.148438 "/></g></g></g><g fill="#000000" fill-opacity="1"><g transform="translate(436.177201, 394.967638)"><g><path d="M 5.480469 0 L 8.53125 0 L 8.53125 -6.921875 L 13.90625 -15.367188 L 10.144531 -15.367188 L 7.007812 -10.082031 L 3.867188 -15.367188 L 0.128906 -15.367188 L 5.480469 -6.921875 Z M 5.480469 0 "/></g></g></g><g fill="#000000" fill-opacity="1"><g transform="translate(450.12647, 394.967638)"><g/></g></g><g fill="#000000" fill-opacity="1"><g transform="translate(456.230611, 394.967638)"><g><path d="M 11.5 -11.800781 L 11.863281 -14.960938 C 10.941406 -15.367188 9.910156 -15.5625 8.832031 -15.5625 C -1.570312 -15.5625 -1.589844 0.0429688 8.832031 0.0429688 C 9.910156 0.0429688 11.261719 -0.214844 12.207031 -0.601562 L 11.800781 -3.78125 C 11.21875 -3.480469 10.167969 -3.09375 8.832031 -3.09375 C 2.75 -3.09375 2.75 -12.464844 8.832031 -12.464844 C 10.167969 -12.464844 10.917969 -12.101562 11.5 -11.800781 Z M 11.5 -11.800781 "/></g></g></g><g fill="#000000" fill-opacity="1"><g transform="translate(469.169675, 394.967638)"><g><path d="M 1.71875 -15.367188 L 1.71875 0 L 9.671875 0 L 9.671875 -3.074219 L 4.792969 -3.074219 L 4.792969 -15.367188 Z M 1.71875 -15.367188 "/></g></g></g><g fill="#000000" fill-opacity="1"><g transform="translate(479.765968, 394.967638)"><g><path d="M 9.671875 0 L 9.671875 -3.074219 L 4.792969 -3.074219 L 4.792969 -6.148438 L 8.832031 -6.148438 L 8.832031 -9.21875 L 4.792969 -9.21875 L 4.792969 -12.292969 L 9.414062 -12.292969 L 9.414062 -15.367188 L 1.71875 -15.367188 L 1.71875 0 Z M 9.671875 0 "/></g></g></g><g fill="#000000" fill-opacity="1"><g transform="translate(490.598694, 394.967638)"><g><path d="M 0.34375 0 L 3.824219 0 L 4.425781 -1.65625 L 9.523438 -1.65625 L 10.144531 0 L 13.605469 0 L 7.136719 -15.925781 L 6.8125 -15.925781 Z M 5.546875 -4.535156 L 6.984375 -8.53125 L 8.382812 -4.535156 Z M 5.546875 -4.535156 "/></g></g></g><g fill="#000000" fill-opacity="1"><g transform="translate(504.633944, 394.967638)"><g><path d="M 4.792969 -8.359375 L 12.574219 0.324219 L 13.390625 0.324219 L 13.390625 -15.347656 L 10.296875 -15.347656 L 10.296875 -6.664062 L 2.535156 -15.691406 L 1.71875 -15.691406 L 1.71875 0 L 4.792969 0 Z M 4.792969 -8.359375 "/></g></g></g><g fill="#000000" fill-opacity="1"><g transform="translate(519.765352, 394.967638)"><g/></g></g><g fill="#000000" fill-opacity="1"><g transform="translate(525.869493, 394.967638)"><g><path d="M 8.875 -18.894531 L 5.09375 -18.894531 L 4.039062 -16.421875 L 6.8125 -16.421875 Z M 9.671875 0 L 9.671875 -3.074219 L 4.792969 -3.074219 L 4.792969 -6.148438 L 8.832031 -6.148438 L 8.832031 -9.21875 L 4.792969 -9.21875 L 4.792969 -12.292969 L 9.414062 -12.292969 L 9.414062 -15.367188 L 1.71875 -15.367188 L 1.71875 0 Z M 9.671875 0 "/></g></g></g><g fill="#000000" fill-opacity="1"><g transform="translate(536.70222, 394.967638)"><g><path d="M 1.71875 -15.367188 L 1.71875 0 L 9.671875 0 L 9.671875 -3.074219 L 4.792969 -3.074219 L 4.792969 -15.367188 Z M 1.71875 -15.367188 "/></g></g></g><g fill="#000000" fill-opacity="1"><g transform="translate(547.298513, 394.967638)"><g><path d="M 4.792969 0 L 4.792969 -15.367188 L 1.71875 -15.367188 L 1.71875 0 Z M 4.792969 0 "/></g></g></g><g fill="#000000" fill-opacity="1"><g transform="translate(553.83253, 394.967638)"><g><path d="M 7.328125 0 L 7.328125 -12.292969 L 11.15625 -12.292969 L 11.15625 -15.347656 L 0.429688 -15.347656 L 0.429688 -12.292969 L 4.253906 -12.292969 L 4.253906 0 Z M 7.328125 0 "/></g></g></g><g fill="#000000" fill-opacity="1"><g transform="translate(565.589454, 394.967638)"><g><path d="M 9.671875 0 L 9.671875 -3.074219 L 4.792969 -3.074219 L 4.792969 -6.148438 L 8.832031 -6.148438 L 8.832031 -9.21875 L 4.792969 -9.21875 L 4.792969 -12.292969 L 9.414062 -12.292969 L 9.414062 -15.367188 L 1.71875 -15.367188 L 1.71875 0 Z M 9.671875 0 "/></g></g></g><g fill="#000000" fill-opacity="1"><g transform="translate(576.422182, 394.967638)"><g><path d="M 8.9375 0.21875 C 7.789062 0.21875 6.738281 0.0234375 5.78125 -0.359375 C 4.820312 -0.753906 3.988281 -1.304688 3.28125 -2.015625 C 2.570312 -2.722656 2.019531 -3.554688 1.625 -4.515625 C 1.238281 -5.472656 1.046875 -6.523438 1.046875 -7.671875 C 1.046875 -8.816406 1.238281 -9.867188 1.625 -10.828125 C 2.019531 -11.796875 2.570312 -12.632812 3.28125 -13.34375 C 3.988281 -14.050781 4.820312 -14.597656 5.78125 -14.984375 C 6.738281 -15.367188 7.789062 -15.5625 8.9375 -15.5625 C 10.03125 -15.5625 11.050781 -15.367188 12 -14.984375 C 12.957031 -14.597656 13.796875 -14.050781 14.515625 -13.34375 C 15.242188 -12.632812 15.8125 -11.796875 16.21875 -10.828125 C 16.625 -9.867188 16.828125 -8.816406 16.828125 -7.671875 C 16.828125 -6.523438 16.632812 -5.472656 16.25 -4.515625 C 15.863281 -3.554688 15.316406 -2.722656 14.609375 -2.015625 C 13.898438 -1.304688 13.0625 -0.753906 12.09375 -0.359375 C 11.132812 0.0234375 10.082031 0.21875 8.9375 0.21875 Z M 8.9375 -0.921875 C 9.851562 -0.921875 10.710938 -1.082031 11.515625 -1.40625 C 12.328125 -1.738281 13.039062 -2.207031 13.65625 -2.8125 C 14.269531 -3.425781 14.75 -4.140625 15.09375 -4.953125 C 15.4375 -5.773438 15.609375 -6.679688 15.609375 -7.671875 C 15.609375 -8.609375 15.441406 -9.484375 15.109375 -10.296875 C 14.785156 -11.117188 14.320312 -11.835938 13.71875 -12.453125 C 13.125 -13.066406 12.421875 -13.546875 11.609375 -13.890625 C 10.804688 -14.242188 9.914062 -14.421875 8.9375 -14.421875 C 7.65625 -14.421875 6.507812 -14.128906 5.5 -13.546875 C 4.488281 -12.972656 3.691406 -12.175781 3.109375 -11.15625 C 2.535156 -10.132812 2.25 -8.972656 2.25 -7.671875 C 2.25 -6.742188 2.414062 -5.867188 2.75 -5.046875 C 3.082031 -4.234375 3.546875 -3.519531 4.140625 -2.90625 C 4.734375 -2.289062 5.4375 -1.804688 6.25 -1.453125 C 7.070312 -1.097656 7.96875 -0.921875 8.9375 -0.921875 Z M 6 -2.96875 L 6 -12.359375 L 8.75 -12.359375 C 9.925781 -12.359375 10.785156 -12.125 11.328125 -11.65625 C 11.867188 -11.195312 12.140625 -10.507812 12.140625 -9.59375 C 12.140625 -8.914062 11.96875 -8.378906 11.625 -7.984375 C 11.28125 -7.585938 10.894531 -7.304688 10.46875 -7.140625 L 12.96875 -2.96875 L 11.109375 -2.96875 L 8.96875 -6.6875 L 7.625 -6.6875 L 7.625 -2.96875 Z M 7.625 -8.015625 L 8.703125 -8.015625 C 9.265625 -8.015625 9.703125 -8.15625 10.015625 -8.4375 C 10.328125 -8.71875 10.484375 -9.085938 10.484375 -9.546875 C 10.484375 -10.046875 10.335938 -10.410156 10.046875 -10.640625 C 9.765625 -10.867188 9.3125 -10.984375 8.6875 -10.984375 L 7.625 -10.984375 Z M 7.625 -8.015625 "/></g></g></g></svg>