<svg xmlns="http://www.w3.org/2000/svg" xmlns:xlink="http://www.w3.org/1999/xlink" width="793" zoomAndPan="magnify" viewBox="0 0 594.95996 842.24997" height="1122" preserveAspectRatio="xMidYMid meet" version="1.0"><defs><clipPath id="id1"><path d="M 0.246094 176.453125 L 594.675781 176.453125 L 594.675781 770.925781 L 0.246094 770.925781 Z M 0.246094 176.453125 " clip-rule="nonzero"/></clipPath><clipPath id="id2"><path d="M 111 658 L 320 658 L 320 840.339844 L 111 840.339844 Z M 111 658 " clip-rule="nonzero"/></clipPath><clipPath id="id3"><path d="M 137 671 L 292 671 L 292 797 L 137 797 Z M 137 671 " clip-rule="nonzero"/></clipPath><clipPath id="id4"><path d="M 167.929688 671.519531 L 291.210938 724.082031 L 260.378906 796.398438 L 137.097656 743.832031 Z M 167.929688 671.519531 " clip-rule="nonzero"/></clipPath><clipPath id="id5"><path d="M 204 729 L 282 729 L 282 806 L 204 806 Z M 204 729 " clip-rule="nonzero"/></clipPath><clipPath id="id6"><path d="M 253.152344 729.589844 L 281.914062 773.398438 L 233.097656 805.449219 L 204.332031 761.640625 Z M 253.152344 729.589844 " clip-rule="nonzero"/></clipPath><clipPath id="id7"><path d="M 219 764 L 272 764 L 272 821 L 219 821 Z M 219 764 " clip-rule="nonzero"/></clipPath><clipPath id="id8"><path d="M 238.53125 764.605469 L 271.292969 805.515625 L 252.011719 820.960938 L 219.246094 780.050781 Z M 238.53125 764.605469 " clip-rule="nonzero"/></clipPath><clipPath id="id9"><path d="M 141 680 L 296 680 L 296 806 L 141 806 Z M 141 680 " clip-rule="nonzero"/></clipPath><clipPath id="id10"><path d="M 172.117188 680.296875 L 295.398438 732.859375 L 264.566406 805.175781 L 141.285156 752.613281 Z M 172.117188 680.296875 " clip-rule="nonzero"/></clipPath><clipPath id="id11"><path d="M 125.902344 745.859375 L 178.3125 745.859375 L 178.3125 770.570312 L 125.902344 770.570312 Z M 125.902344 745.859375 " clip-rule="nonzero"/></clipPath><clipPath id="id12"><path d="M 243.21875 709.152344 L 295.628906 709.152344 L 295.628906 733.863281 L 243.21875 733.863281 Z M 243.21875 709.152344 " clip-rule="nonzero"/></clipPath><clipPath id="id13"><path d="M 346 671 L 463 671 L 463 782 L 346 782 Z M 346 671 " clip-rule="nonzero"/></clipPath><clipPath id="id14"><path d="M 346.3125 709.09375 L 431.234375 671.585938 L 462.996094 743.496094 L 378.070312 781.003906 Z M 346.3125 709.09375 " clip-rule="nonzero"/></clipPath><clipPath id="id15"><path d="M 321 742 L 387 742 L 387 811 L 321 811 Z M 321 742 " clip-rule="nonzero"/></clipPath><clipPath id="id16"><path d="M 321.761719 761.472656 L 364.226562 742.71875 L 386.003906 792.03125 L 343.542969 810.785156 Z M 321.761719 761.472656 " clip-rule="nonzero"/></clipPath><clipPath id="id17"><path d="M 333 711 L 401 711 L 401 782 L 333 782 Z M 333 711 " clip-rule="nonzero"/></clipPath><clipPath id="id18"><path d="M 333.871094 731.949219 L 379.070312 711.984375 L 400.851562 761.296875 L 355.648438 781.261719 Z M 333.871094 731.949219 " clip-rule="nonzero"/></clipPath><clipPath id="id19"><path d="M 326 781 L 366 781 L 366 825 L 326 825 Z M 326 781 " clip-rule="nonzero"/></clipPath><clipPath id="id20"><path d="M 326.527344 792.039062 L 351.179688 781.148438 L 365.699219 814.023438 L 341.046875 824.910156 Z M 326.527344 792.039062 " clip-rule="nonzero"/></clipPath><clipPath id="id21"><path d="M 416 725 L 476 725 L 476 782 L 416 782 Z M 416 725 " clip-rule="nonzero"/></clipPath><clipPath id="id22"><path d="M 416.289062 744.972656 L 459.4375 725.917969 L 475.46875 762.214844 L 432.320312 781.273438 Z M 416.289062 744.972656 " clip-rule="nonzero"/></clipPath><clipPath id="id23"><path d="M 386 718 L 446 718 L 446 775 L 386 775 Z M 386 718 " clip-rule="nonzero"/></clipPath><clipPath id="id24"><path d="M 386.769531 738 L 429.917969 718.941406 L 445.949219 755.242188 L 402.800781 774.296875 Z M 386.769531 738 " clip-rule="nonzero"/></clipPath></defs><g clip-path="url(#id1)"><path fill="#000000" d="M 297.480469 176.453125 C 133.320312 176.453125 0.246094 309.53125 0.246094 473.6875 C 0.246094 637.847656 133.320312 770.925781 297.480469 770.925781 C 461.636719 770.925781 594.714844 637.847656 594.714844 473.6875 C 594.714844 309.53125 461.636719 176.453125 297.480469 176.453125 " fill-opacity="1" fill-rule="nonzero"/></g><path fill="#ffde59" d="M 292.585938 585.484375 C 289.929688 585.484375 287.339844 584.515625 285.328125 582.757812 C 270.125 569.457031 254.921875 555.765625 240.222656 542.511719 C 225.605469 529.347656 210.496094 515.726562 195.441406 502.5625 C 191.046875 498.710938 190.414062 492.113281 194.003906 487.492188 C 196.648438 484.101562 199.476562 481.007812 202.203125 478.019531 C 204.320312 475.695312 206.433594 473.386719 208.4375 470.9375 C 210.34375 468.59375 213.128906 467.132812 216.140625 466.902344 C 219.175781 466.660156 222.132812 467.683594 224.375 469.707031 C 236.3125 480.46875 248.308594 491.226562 260.304688 502 C 268.710938 509.539062 277.105469 517.082031 285.488281 524.625 L 366.671875 398.25 C 369.9375 393.191406 376.65625 391.683594 381.773438 394.847656 C 384.152344 396.328125 386.511719 397.871094 388.867188 399.410156 C 392.570312 401.835938 396.054688 404.125 399.667969 406.167969 C 402.289062 407.652344 404.199219 410.160156 404.933594 413.101562 C 405.660156 416.03125 405.140625 419.136719 403.519531 421.6875 C 390.640625 441.839844 377.714844 461.949219 364.761719 482.066406 C 344.085938 514.230469 322.695312 547.488281 301.914062 580.34375 C 300.1875 583.066406 297.359375 584.894531 294.171875 585.355469 C 293.644531 585.4375 293.113281 585.484375 292.585938 585.484375 Z M 138.363281 477.617188 C 138.855469 486.089844 135.359375 492.847656 132.542969 498.320312 C 131.199219 500.917969 129.933594 503.378906 129.359375 505.515625 C 129.265625 505.863281 129.164062 506.183594 129.035156 506.515625 C 125.5625 515.851562 128.496094 527.945312 136.339844 536.625 C 138.214844 538.730469 141.101562 540.613281 144.160156 542.625 C 150.058594 546.488281 157.40625 551.304688 161.492188 560.203125 C 161.664062 560.59375 161.824219 560.984375 161.949219 561.375 C 163.789062 566.996094 164.296875 572.605469 164.757812 577.550781 C 165.183594 582.308594 165.597656 586.792969 167.089844 590.3125 C 170.945312 600.460938 180.824219 608.199219 191.839844 609.957031 C 192.164062 610.003906 192.472656 610.070312 192.773438 610.152344 C 194.589844 610.601562 196.957031 610.714844 199.453125 610.832031 C 205.113281 611.105469 212.152344 611.441406 218.832031 615.820312 C 225.570312 619.855469 229.585938 626.179688 232.804688 631.246094 C 235.09375 634.855469 237.070312 637.960938 239.535156 639.628906 C 239.84375 639.835938 240.15625 640.066406 240.453125 640.316406 C 250.078125 648.398438 264.464844 649.953125 275.414062 644.078125 C 281.9375 640.410156 293.171875 634.109375 306.074219 637.730469 C 306.410156 637.824219 306.730469 637.9375 307.066406 638.054688 C 310.378906 639.339844 313.414062 640.835938 316.355469 642.285156 C 321.84375 644.972656 326.582031 647.296875 331.25 647.398438 C 331.480469 647.398438 331.710938 647.421875 331.941406 647.433594 C 342.808594 648.296875 354.136719 642.949219 360.589844 633.648438 C 361.496094 632.410156 362.257812 631.257812 363.027344 630.121094 C 366.257812 625.28125 369.914062 619.796875 376.011719 615.808594 C 382.578125 611.082031 390.214844 610.957031 395.78125 610.855469 C 398.171875 610.808594 400.4375 610.773438 401.96875 610.371094 C 402.335938 610.277344 402.714844 610.199219 403.09375 610.152344 C 416.757812 608.105469 428.613281 596.3125 430.097656 583.285156 C 430.15625 582.78125 430.246094 582.273438 430.375 581.792969 C 430.835938 579.988281 430.996094 577.574219 431.179688 575.007812 C 431.628906 568.46875 432.238281 559.546875 438.929688 552.398438 C 442.839844 547.820312 447.453125 544.890625 451.546875 542.292969 C 454.214844 540.589844 456.734375 538.992188 458.457031 537.269531 C 466.417969 529.3125 469.707031 517.300781 466.636719 507.378906 C 465.714844 504.023438 464.164062 500.953125 462.519531 497.710938 C 461.136719 494.988281 459.710938 492.183594 458.492188 489.007812 C 458.238281 488.363281 458.042969 487.6875 457.917969 486.996094 C 455.871094 475.671875 457.574219 465.636719 462.851562 457.992188 C 467.441406 450.566406 468.796875 440.75 466.199219 432.183594 C 463.851562 424.101562 457.148438 417.066406 445.09375 409.917969 C 432.914062 402.066406 431.730469 389.511719 430.855469 380.351562 C 430.605469 377.578125 430.351562 374.957031 429.878906 372.832031 C 429.800781 372.507812 429.742188 372.1875 429.707031 371.867188 C 428.371094 361.828125 420.769531 352.472656 410.789062 348.5625 C 407.085938 346.929688 402.761719 346.496094 398.160156 346.035156 C 390.410156 345.253906 380.773438 344.277344 372.46875 337.699219 C 372.136719 337.445312 371.8125 337.160156 371.515625 336.847656 C 368.121094 333.457031 365.5 329.710938 363.199219 326.386719 C 361.09375 323.363281 359.105469 320.503906 356.898438 318.457031 C 356.746094 318.304688 356.585938 318.15625 356.4375 318.007812 C 349.480469 310.71875 338.839844 307.246094 329.996094 309.351562 C 329.765625 309.410156 329.527344 309.453125 329.285156 309.5 C 326.050781 310.039062 322.453125 311.707031 318.644531 313.453125 C 310.652344 317.15625 300.726562 321.742188 288.664062 318.238281 C 284.421875 316.835938 280.808594 315.214844 277.300781 313.652344 C 269.8125 310.292969 263.339844 307.417969 257.496094 308.890625 C 257.015625 309.015625 256.519531 309.109375 256.023438 309.167969 C 243.28125 310.605469 234.839844 322.144531 230.953125 328.894531 C 227.25 336.160156 218.140625 345.492188 197.292969 345.953125 C 184.675781 346.289062 172.472656 354.183594 167.65625 365.1875 C 165.804688 368.992188 165.421875 373.335938 164.988281 378.359375 C 164.515625 383.84375 163.984375 390.074219 161.511719 396.304688 C 157.71875 404.972656 151.035156 409.191406 145.652344 412.585938 C 143.160156 414.171875 140.800781 415.664062 139.363281 417.207031 C 139.144531 417.433594 138.925781 417.652344 138.683594 417.871094 C 129.082031 426.496094 125.355469 440.945312 129.804688 452.222656 C 130.519531 454.246094 131.542969 456.140625 132.613281 458.164062 C 135.347656 463.269531 138.71875 469.582031 138.363281 477.617188 Z M 260.84375 669.679688 C 248.605469 669.679688 236.441406 665.550781 226.699219 657.5625 C 220.71875 653.367188 217.257812 647.90625 214.1875 643.066406 C 211.804688 639.316406 209.746094 636.066406 207.113281 634.488281 C 205.078125 633.167969 201.984375 633.019531 198.40625 632.855469 C 195.246094 632.695312 191.667969 632.523438 187.917969 631.648438 C 169.253906 628.523438 153.070312 615.542969 146.609375 598.507812 C 143.953125 592.21875 143.332031 585.492188 142.789062 579.574219 C 142.433594 575.6875 142.101562 572.007812 141.191406 568.882812 C 139.605469 565.996094 136.097656 563.699219 132.058594 561.054688 C 128.140625 558.480469 123.6875 555.570312 119.925781 551.351562 C 106.667969 536.695312 102.078125 516.300781 108.195312 499.285156 C 109.394531 495.078125 111.277344 491.433594 112.945312 488.214844 C 114.890625 484.445312 116.558594 481.203125 116.339844 478.6875 C 116.28125 478.066406 116.269531 477.433594 116.328125 476.8125 C 116.488281 474.765625 114.949219 471.878906 113.164062 468.546875 C 111.808594 466.015625 110.277344 463.15625 109.152344 459.945312 C 101.503906 440.609375 107.390625 416.609375 123.597656 401.789062 C 126.886719 398.375 130.589844 396.03125 133.867188 393.949219 C 137.28125 391.800781 140.226562 389.9375 141.15625 387.808594 C 142.285156 384.960938 142.640625 380.832031 143.019531 376.453125 C 143.574219 370.152344 144.183594 362.992188 147.65625 355.921875 C 155.71875 337.492188 175.53125 324.46875 196.75 323.917969 C 202.304688 323.800781 209.34375 322.730469 211.574219 318.375 C 221.996094 300.269531 236.53125 289.441406 252.816406 287.347656 C 265.789062 284.324219 277.140625 289.429688 286.304688 293.519531 C 289.457031 294.933594 292.4375 296.257812 295.230469 297.199219 C 298.761719 298.210938 302.71875 296.53125 309.398438 293.441406 C 314.023438 291.3125 319.253906 288.886719 325.246094 287.832031 C 341.507812 284.09375 359.851562 289.84375 372.148438 302.523438 C 375.976562 306.144531 378.804688 310.214844 381.3125 313.800781 C 383.105469 316.386719 384.808594 318.824219 386.625 320.765625 C 389.878906 323.03125 394.769531 323.523438 400.390625 324.101562 C 406.210938 324.6875 412.824219 325.363281 419.289062 328.226562 C 436.171875 334.8125 448.949219 350.65625 451.5 368.484375 C 452.214844 371.820312 452.523438 375.085938 452.824219 378.269531 C 453.523438 385.796875 454.144531 389.535156 456.699219 391.167969 C 467.152344 397.363281 482.125 407.941406 487.335938 425.90625 C 491.789062 440.542969 489.601562 456.683594 481.296875 470.050781 C 478.847656 473.628906 478.894531 478.328125 479.445312 482.019531 C 480.230469 483.871094 481.183594 485.765625 482.195312 487.753906 C 484.171875 491.652344 486.40625 496.054688 487.808594 501.230469 C 493.203125 518.667969 487.84375 539.074219 474.054688 552.855469 C 470.613281 556.292969 466.761719 558.742188 463.371094 560.894531 C 460.148438 562.9375 457.367188 564.710938 455.617188 566.8125 C 455.433594 567.019531 455.261719 567.226562 455.066406 567.421875 C 453.707031 568.824219 453.445312 572.5625 453.179688 576.515625 C 452.972656 579.574219 452.730469 583.011719 451.925781 586.503906 C 448.992188 609.199219 430.214844 628.144531 406.890625 631.867188 C 403.046875 632.777344 399.414062 632.835938 396.171875 632.890625 C 392.777344 632.960938 389.847656 633.007812 388.476562 633.996094 C 385.75 635.777344 383.625 638.972656 381.359375 642.363281 C 380.449219 643.722656 379.542969 645.078125 378.609375 646.386719 C 367.902344 661.78125 348.972656 670.863281 330.433594 669.4375 C 321.039062 669.148438 313.390625 665.390625 306.628906 662.066406 C 304.210938 660.871094 301.914062 659.746094 299.679688 658.847656 C 295.976562 658.03125 291.46875 660.34375 286.019531 663.402344 C 278.140625 667.621094 269.480469 669.679688 260.84375 669.679688 " fill-opacity="1" fill-rule="nonzero"/><g clip-path="url(#id2)"><path fill="#efb054" d="M 165.25 658.621094 C 162.363281 658.621094 160.777344 662.136719 159.558594 664.585938 C 145.238281 694.820312 130.691406 725.285156 117.074219 756.207031 C 114.992188 761.046875 111.761719 765.4375 111.300781 770.75 C 110.417969 776.726562 115.707031 782.085938 121.445312 782.085938 C 121.6875 782.085938 121.917969 782.074219 122.148438 782.050781 C 134.957031 782.636719 147.722656 782.753906 160.445312 782.753906 C 168.929688 782.753906 177.40625 782.695312 185.871094 782.695312 C 190.105469 782.695312 194.335938 782.707031 198.566406 782.753906 C 212.195312 798.433594 224.894531 814.824219 238.050781 830.976562 C 241.210938 834.597656 243.9375 839.761719 249.25 839.761719 C 249.367188 839.761719 249.480469 839.75 249.597656 839.75 C 250.332031 839.933594 251.058594 840.023438 251.769531 840.023438 C 256.429688 840.023438 260.464844 836.3125 262.0625 831.898438 C 281.925781 788.511719 299.703125 744.207031 319.785156 701.050781 C 313.320312 695.96875 305.234375 693.890625 297.851562 690.199219 C 285.546875 697.464844 271.21875 701.394531 256.980469 701.394531 C 243.167969 701.394531 229.449219 697.695312 217.738281 689.738281 C 206.882812 683.046875 199.5 672.195312 191.875 662.046875 C 183.328125 660.894531 175.027344 659.503906 166.480469 658.816406 C 166.042969 658.675781 165.640625 658.621094 165.25 658.621094 Z M 173.40625 677.828125 C 176.164062 678.183594 178.949219 678.578125 181.824219 678.988281 C 188.667969 688.117188 196.554688 697.933594 207.835938 704.992188 C 222.03125 714.535156 239.015625 719.582031 256.980469 719.582031 C 269.976562 719.582031 282.820312 716.984375 294.78125 712.019531 C 287.078125 729.167969 279.625 746.449219 272.367188 763.3125 C 264.890625 780.648438 257.199219 798.488281 249.308594 816 C 246.296875 812.285156 243.304688 808.550781 240.316406 804.824219 C 231.320312 793.605469 222.019531 782.015625 212.3125 770.832031 L 206.929688 764.644531 L 198.742188 764.566406 C 194.449219 764.53125 190.160156 764.519531 185.871094 764.519531 C 181.617188 764.519531 177.371094 764.53125 173.117188 764.542969 C 168.898438 764.554688 164.675781 764.566406 160.445312 764.566406 C 152.253906 764.566406 142.984375 764.519531 133.394531 764.265625 C 133.496094 764.023438 133.613281 763.773438 133.714844 763.53125 C 145.917969 735.8125 159.097656 708.003906 171.839844 681.117188 L 173.40625 677.828125 " fill-opacity="1" fill-rule="nonzero"/></g><path fill="#efb054" d="M 434.765625 658.585938 C 424.371094 658.585938 414.214844 660.894531 404.050781 661.816406 C 393.894531 678.195312 378.886719 693.199219 359.265625 697.820312 C 353.953125 699.199219 346.339844 699.660156 344.027344 705.890625 C 333.859375 730.8125 322.324219 755.058594 312.160156 779.980469 C 319.09375 797.984375 327.410156 815.054688 334.792969 832.828125 C 336.277344 836.425781 339.117188 839.828125 343.152344 839.828125 C 343.511719 839.828125 343.878906 839.804688 344.257812 839.75 C 344.878906 839.851562 345.488281 839.910156 346.0625 839.910156 C 353.195312 839.910156 357.070312 832.425781 361.335938 827.515625 C 373.8125 812.746094 385.121094 797.28125 397.828125 782.753906 C 422.289062 781.589844 446.773438 782.050781 471.234375 781.820312 C 475.628906 781.589844 481.171875 780.902344 483.714844 776.75 C 487.40625 767.289062 480.46875 758.980469 477.007812 750.898438 C 463.164062 719.972656 449.765625 689.050781 434.765625 658.585938 Z M 423.785156 677.597656 C 433.617188 698.140625 442.957031 719.132812 452.03125 739.527344 C 454.8125 745.792969 457.609375 752.058594 460.296875 758.058594 C 461.160156 760.070312 462.117188 761.96875 463.011719 763.703125 C 458.414062 763.714844 453.800781 763.726562 449.199219 763.726562 C 432.144531 763.75 414.515625 763.761719 396.964844 764.589844 L 389.226562 764.957031 L 384.117188 770.785156 C 376.792969 779.175781 369.9375 787.832031 363.300781 796.203125 C 358.152344 802.699219 352.824219 809.421875 347.617188 815.597656 C 347.523438 815.699219 347.445312 815.804688 347.339844 815.90625 C 345.589844 811.882812 343.820312 807.90625 342.09375 803.996094 C 338.472656 795.835938 335.011719 788.039062 331.78125 780.121094 C 335.976562 770.105469 340.417969 760.046875 344.742188 750.277344 C 349.605469 739.25 354.621094 727.894531 359.359375 716.433594 C 359.65625 716.363281 359.957031 716.304688 360.210938 716.25 C 361.40625 715.996094 362.542969 715.742188 363.636719 715.464844 C 387.246094 709.84375 403.808594 693.726562 414.503906 678.875 C 415.664062 678.726562 416.804688 678.566406 417.941406 678.402344 C 419.929688 678.117188 421.875 677.839844 423.785156 677.597656 " fill-opacity="1" fill-rule="nonzero"/><g clip-path="url(#id3)"><g clip-path="url(#id4)"><path fill="#efb054" d="M 167.929688 671.519531 L 291.210938 724.082031 L 260.378906 796.398438 L 137.097656 743.832031 L 167.929688 671.519531 " fill-opacity="1" fill-rule="nonzero"/></g></g><g clip-path="url(#id5)"><g clip-path="url(#id6)"><path fill="#efb054" d="M 253.152344 729.589844 L 281.914062 773.398438 L 233.097656 805.449219 L 204.335938 761.640625 L 253.152344 729.589844 " fill-opacity="1" fill-rule="nonzero"/></g></g><g clip-path="url(#id7)"><g clip-path="url(#id8)"><path fill="#efb054" d="M 238.535156 764.609375 L 271.292969 805.511719 L 252.007812 820.957031 L 219.25 780.054688 L 238.535156 764.609375 " fill-opacity="1" fill-rule="nonzero"/></g></g><g clip-path="url(#id9)"><g clip-path="url(#id10)"><path fill="#efb054" d="M 172.117188 680.296875 L 295.398438 732.859375 L 264.566406 805.175781 L 141.285156 752.613281 L 172.117188 680.296875 " fill-opacity="1" fill-rule="nonzero"/></g></g><g clip-path="url(#id11)"><path fill="#efb054" d="M 125.90625 745.859375 L 178.308594 745.859375 L 178.308594 770.570312 L 125.90625 770.570312 L 125.90625 745.859375 " fill-opacity="1" fill-rule="nonzero"/></g><g clip-path="url(#id12)"><path fill="#efb054" d="M 243.222656 709.152344 L 295.625 709.152344 L 295.625 733.863281 L 243.222656 733.863281 L 243.222656 709.152344 " fill-opacity="1" fill-rule="nonzero"/></g><g clip-path="url(#id13)"><g clip-path="url(#id14)"><path fill="#efb054" d="M 346.3125 709.089844 L 431.234375 671.585938 L 462.996094 743.496094 L 378.074219 781.003906 L 346.3125 709.089844 " fill-opacity="1" fill-rule="nonzero"/></g></g><g clip-path="url(#id15)"><g clip-path="url(#id16)"><path fill="#efb054" d="M 321.765625 761.476562 L 364.226562 742.722656 L 386.003906 792.027344 L 343.539062 810.78125 L 321.765625 761.476562 " fill-opacity="1" fill-rule="nonzero"/></g></g><g clip-path="url(#id17)"><g clip-path="url(#id18)"><path fill="#efb054" d="M 333.871094 731.953125 L 379.074219 711.988281 L 400.847656 761.292969 L 355.648438 781.257812 L 333.871094 731.953125 " fill-opacity="1" fill-rule="nonzero"/></g></g><g clip-path="url(#id19)"><g clip-path="url(#id20)"><path fill="#efb054" d="M 326.527344 792.039062 L 351.179688 781.148438 L 365.699219 814.023438 L 341.046875 824.910156 L 326.527344 792.039062 " fill-opacity="1" fill-rule="nonzero"/></g></g><g clip-path="url(#id21)"><g clip-path="url(#id22)"><path fill="#efb054" d="M 416.289062 744.976562 L 459.4375 725.917969 L 475.46875 762.214844 L 432.320312 781.273438 L 416.289062 744.976562 " fill-opacity="1" fill-rule="nonzero"/></g></g><g clip-path="url(#id23)"><g clip-path="url(#id24)"><path fill="#efb054" d="M 386.769531 738 L 429.917969 718.941406 L 445.949219 755.238281 L 402.800781 774.296875 L 386.769531 738 " fill-opacity="1" fill-rule="nonzero"/></g></g></svg>