<svg xmlns="http://www.w3.org/2000/svg" xmlns:xlink="http://www.w3.org/1999/xlink" width="869" zoomAndPan="magnify" viewBox="0 0 651.75 84.749999" height="113" preserveAspectRatio="xMidYMid meet" version="1.0"><defs><g/></defs><g fill="#000000" fill-opacity="1"><g transform="translate(76.76675, 43.057642)"><g><path d="M 55.691406 -34.078125 L 51.796875 -9.929688 C 51.40625 -7.496094 49.945312 -5.648438 47.511719 -5.648438 L 17.71875 -5.648438 C 15.285156 -5.648438 13.824219 -7.496094 13.4375 -9.929688 L 9.542969 -34.078125 L 3.894531 -34.078125 L 7.789062 -9.929688 C 8.714844 -4.1875 11.976562 0 17.71875 0 L 47.511719 0 C 53.257812 0 56.519531 -4.1875 57.445312 -9.929688 L 61.339844 -34.078125 Z M 55.691406 -34.078125 "/></g></g></g><g fill="#000000" fill-opacity="1"><g transform="translate(141.991331, 43.057642)"><g><path d="M 3.894531 0 L 49.65625 0 L 49.65625 -5.648438 L 29.597656 -5.648438 L 29.597656 -28.429688 L 49.65625 -28.429688 L 49.65625 -34.078125 L 3.894531 -34.078125 L 3.894531 -28.429688 L 23.949219 -28.429688 L 23.949219 -5.648438 L 3.894531 -5.648438 Z M 3.894531 0 "/></g></g></g><g fill="#000000" fill-opacity="1"><g transform="translate(195.533905, 43.057642)"><g><path d="M 3.894531 0 L 9.542969 0 L 9.542969 -14.214844 L 44.300781 -14.214844 C 50.871094 -14.214844 55.691406 -9.394531 55.691406 -2.824219 L 55.691406 0 L 61.339844 0 L 61.339844 -2.824219 C 61.339844 -7.933594 59.4375 -12.316406 56.226562 -15.335938 C 59.34375 -16.941406 61.339844 -20.203125 61.339844 -24.144531 C 61.339844 -29.890625 57.152344 -34.078125 51.40625 -34.078125 L 3.894531 -34.078125 Z M 9.542969 -19.863281 L 9.542969 -28.429688 L 51.40625 -28.429688 C 53.839844 -28.429688 55.691406 -26.578125 55.691406 -24.144531 C 55.691406 -21.710938 53.839844 -19.863281 51.40625 -19.863281 Z M 9.542969 -19.863281 "/></g></g></g><g fill="#000000" fill-opacity="1"><g transform="translate(260.758486, 43.057642)"><g><path d="M 55.691406 -34.078125 L 55.691406 -9.929688 C 55.691406 -7.496094 53.839844 -5.648438 51.40625 -5.648438 L 13.824219 -5.648438 C 11.390625 -5.648438 9.542969 -7.496094 9.542969 -9.929688 L 9.542969 -34.078125 L 3.894531 -34.078125 L 3.894531 -9.929688 C 3.894531 -4.1875 8.082031 0 13.824219 0 L 51.40625 0 C 57.152344 0 61.339844 -4.1875 61.339844 -9.929688 L 61.339844 -34.078125 Z M 55.691406 -34.078125 "/></g></g></g><g fill="#000000" fill-opacity="1"><g transform="translate(325.983067, 43.057642)"><g><path d="M 9.542969 -9.929688 L 9.542969 -24.144531 C 9.542969 -26.578125 11.390625 -28.429688 13.824219 -28.429688 L 61.339844 -28.429688 L 61.339844 -34.078125 L 13.824219 -34.078125 C 8.082031 -34.078125 3.894531 -29.890625 3.894531 -24.144531 L 3.894531 -9.929688 C 3.894531 -4.1875 8.082031 0 13.824219 0 L 61.339844 0 L 61.339844 -5.648438 L 13.824219 -5.648438 C 11.390625 -5.648438 9.542969 -7.496094 9.542969 -9.929688 Z M 9.542969 -9.929688 "/></g></g></g><g fill="#000000" fill-opacity="1"><g transform="translate(391.207666, 43.057642)"><g><path d="M 3.894531 0 L 49.65625 0 L 49.65625 -5.648438 L 29.597656 -5.648438 L 29.597656 -28.429688 L 49.65625 -28.429688 L 49.65625 -34.078125 L 3.894531 -34.078125 L 3.894531 -28.429688 L 23.949219 -28.429688 L 23.949219 -5.648438 L 3.894531 -5.648438 Z M 3.894531 0 "/></g></g></g><g fill="#000000" fill-opacity="1"><g transform="translate(444.750259, 43.057642)"><g><path d="M 3.894531 0 L 51.40625 0 C 57.152344 0 61.339844 -4.1875 61.339844 -9.929688 L 61.339844 -24.144531 C 61.339844 -29.890625 57.152344 -34.078125 51.40625 -34.078125 L 3.894531 -34.078125 Z M 9.542969 -5.648438 L 9.542969 -28.429688 L 51.40625 -28.429688 C 53.839844 -28.429688 55.691406 -26.578125 55.691406 -24.144531 L 55.691406 -9.929688 C 55.691406 -7.496094 53.839844 -5.648438 51.40625 -5.648438 Z M 9.542969 -5.648438 "/></g></g></g><g fill="#000000" fill-opacity="1"><g transform="translate(509.97484, 43.057642)"><g><path d="M 3.894531 -24.144531 L 3.894531 -9.929688 C 3.894531 -4.1875 8.082031 0 13.824219 0 L 61.339844 0 L 61.339844 -5.648438 L 13.824219 -5.648438 C 11.390625 -5.648438 9.542969 -7.496094 9.542969 -9.929688 L 9.542969 -14.214844 L 61.339844 -14.214844 L 61.339844 -19.863281 L 9.542969 -19.863281 L 9.542969 -24.144531 C 9.542969 -26.578125 11.390625 -28.429688 13.824219 -28.429688 L 61.339844 -28.429688 L 61.339844 -34.078125 L 13.824219 -34.078125 C 8.082031 -34.078125 3.894531 -29.890625 3.894531 -24.144531 Z M 3.894531 -24.144531 "/></g></g></g><path stroke-linecap="butt" transform="matrix(21.365176, 0, 0, 22.187576, 45.385279, 57.363391)" fill="none" stroke-linejoin="miter" d="M 0.0000673673 -0.00000495782 L 26.321558 -0.00000495782 " stroke="#000000" stroke-width="1" stroke-opacity="1" stroke-miterlimit="4"/><g fill="#ffffff" fill-opacity="1"><g transform="translate(161.831786, 65.598995)"><g><path d="M 1.71875 0 L 22.679688 0 C 25.214844 0 27.0625 -1.847656 27.0625 -4.382812 L 27.0625 -10.652344 C 27.0625 -13.1875 25.214844 -15.035156 22.679688 -15.035156 L 1.71875 -15.035156 Z M 4.210938 -2.492188 L 4.210938 -12.542969 L 22.679688 -12.542969 C 23.753906 -12.542969 24.570312 -11.726562 24.570312 -10.652344 L 24.570312 -4.382812 C 24.570312 -3.308594 23.753906 -2.492188 22.679688 -2.492188 Z M 4.210938 -2.492188 "/></g></g></g><g fill="#ffffff" fill-opacity="1"><g transform="translate(190.611297, 65.598995)"><g><path d="M 1.71875 -10.652344 L 1.71875 -4.382812 C 1.71875 -1.847656 3.566406 0 6.097656 0 L 27.0625 0 L 27.0625 -2.492188 L 6.097656 -2.492188 C 5.027344 -2.492188 4.210938 -3.308594 4.210938 -4.382812 L 4.210938 -6.269531 L 27.0625 -6.269531 L 27.0625 -8.761719 L 4.210938 -8.761719 L 4.210938 -10.652344 C 4.210938 -11.726562 5.027344 -12.542969 6.097656 -12.542969 L 27.0625 -12.542969 L 27.0625 -15.035156 L 6.097656 -15.035156 C 3.566406 -15.035156 1.71875 -13.1875 1.71875 -10.652344 Z M 1.71875 -10.652344 "/></g></g></g><g fill="#ffffff" fill-opacity="1"><g transform="translate(219.390807, 65.598995)"><g><path d="M 22.679688 -8.761719 L 6.097656 -8.761719 C 5.027344 -8.761719 4.210938 -9.578125 4.210938 -10.652344 C 4.210938 -11.726562 5.027344 -12.542969 6.097656 -12.542969 L 26.417969 -12.542969 L 26.417969 -15.035156 L 6.097656 -15.035156 C 3.566406 -15.035156 1.71875 -13.1875 1.71875 -10.652344 C 1.71875 -8.117188 3.566406 -6.269531 6.097656 -6.269531 L 22.679688 -6.269531 C 23.753906 -6.269531 24.570312 -5.457031 24.570312 -4.382812 C 24.570312 -3.308594 23.753906 -2.492188 22.679688 -2.492188 L 2.363281 -2.492188 L 2.363281 0 L 22.679688 0 C 25.214844 0 27.0625 -1.847656 27.0625 -4.382812 C 27.0625 -6.914062 25.214844 -8.761719 22.679688 -8.761719 Z M 22.679688 -8.761719 "/></g></g></g><g fill="#ffffff" fill-opacity="1"><g transform="translate(248.170317, 65.598995)"><g><path d="M 1.71875 0 L 21.90625 0 L 21.90625 -2.492188 L 13.058594 -2.492188 L 13.058594 -12.542969 L 21.90625 -12.542969 L 21.90625 -15.035156 L 1.71875 -15.035156 L 1.71875 -12.542969 L 10.566406 -12.542969 L 10.566406 -2.492188 L 1.71875 -2.492188 Z M 1.71875 0 "/></g></g></g><g fill="#ffffff" fill-opacity="1"><g transform="translate(271.795287, 65.598995)"><g><path d="M 24.570312 -10.652344 L 24.570312 0 L 27.0625 0 L 27.0625 -10.652344 C 27.0625 -13.1875 25.214844 -15.035156 22.679688 -15.035156 L 6.097656 -15.035156 C 3.566406 -15.035156 1.71875 -13.1875 1.71875 -10.652344 L 1.71875 0 L 4.210938 0 L 4.210938 -10.652344 C 4.210938 -11.726562 5.027344 -12.542969 6.097656 -12.542969 L 22.679688 -12.542969 C 23.753906 -12.542969 24.570312 -11.726562 24.570312 -10.652344 Z M 24.570312 -10.652344 "/></g></g></g><g fill="#ffffff" fill-opacity="1"><g transform="translate(300.574798, 65.598995)"><g><path d="M 1.71875 -10.652344 L 1.71875 0 L 4.210938 0 L 4.210938 -6.269531 L 27.0625 -6.269531 L 27.0625 -8.761719 L 4.210938 -8.761719 L 4.210938 -10.652344 C 4.210938 -11.726562 5.027344 -12.542969 6.097656 -12.542969 L 27.0625 -12.542969 L 27.0625 -15.035156 L 6.097656 -15.035156 C 3.566406 -15.035156 1.71875 -13.1875 1.71875 -10.652344 Z M 1.71875 -10.652344 "/></g></g></g><g fill="#ffffff" fill-opacity="1"><g transform="translate(329.354308, 65.598995)"><g><path d="M 1.71875 -10.652344 L 1.71875 -4.382812 C 1.71875 -1.847656 3.566406 0 6.097656 0 L 27.0625 0 L 27.0625 -2.492188 L 6.097656 -2.492188 C 5.027344 -2.492188 4.210938 -3.308594 4.210938 -4.382812 L 4.210938 -6.269531 L 27.0625 -6.269531 L 27.0625 -8.761719 L 4.210938 -8.761719 L 4.210938 -10.652344 C 4.210938 -11.726562 5.027344 -12.542969 6.097656 -12.542969 L 27.0625 -12.542969 L 27.0625 -15.035156 L 6.097656 -15.035156 C 3.566406 -15.035156 1.71875 -13.1875 1.71875 -10.652344 Z M 1.71875 -10.652344 "/></g></g></g><g fill="#ffffff" fill-opacity="1"><g transform="translate(358.133819, 65.598995)"><g><path d="M 4.210938 -4.382812 L 4.210938 -10.652344 C 4.210938 -11.726562 5.027344 -12.542969 6.097656 -12.542969 L 27.0625 -12.542969 L 27.0625 -15.035156 L 6.097656 -15.035156 C 3.566406 -15.035156 1.71875 -13.1875 1.71875 -10.652344 L 1.71875 -4.382812 C 1.71875 -1.847656 3.566406 0 6.097656 0 L 27.0625 0 L 27.0625 -2.492188 L 6.097656 -2.492188 C 5.027344 -2.492188 4.210938 -3.308594 4.210938 -4.382812 Z M 4.210938 -4.382812 "/></g></g></g><g fill="#ffffff" fill-opacity="1"><g transform="translate(386.913329, 65.598995)"><g><path d="M 14.003906 0 L 16.496094 0 L 16.496094 -12.542969 L 28.78125 -12.542969 L 28.78125 -15.035156 L 1.71875 -15.035156 L 1.71875 -12.542969 L 14.003906 -12.542969 Z M 14.003906 0 "/></g></g></g><g fill="#ffffff" fill-opacity="1"><g transform="translate(417.411019, 65.598995)"><g><path d="M 1.71875 0 L 21.90625 0 L 21.90625 -2.492188 L 13.058594 -2.492188 L 13.058594 -12.542969 L 21.90625 -12.542969 L 21.90625 -15.035156 L 1.71875 -15.035156 L 1.71875 -12.542969 L 10.566406 -12.542969 L 10.566406 -2.492188 L 1.71875 -2.492188 Z M 1.71875 0 "/></g></g></g><g fill="#ffffff" fill-opacity="1"><g transform="translate(441.035989, 65.598995)"><g><path d="M 9.019531 -17.523438 L 14.390625 -18.167969 L 19.757812 -17.523438 L 19.757812 -20.015625 L 14.390625 -20.660156 L 9.019531 -20.015625 Z M 1.71875 -4.382812 C 1.71875 -1.847656 3.566406 0 6.097656 0 L 22.679688 0 C 25.214844 0 27.0625 -1.847656 27.0625 -4.382812 L 27.0625 -10.652344 C 27.0625 -13.1875 25.214844 -15.035156 22.679688 -15.035156 L 6.097656 -15.035156 C 3.566406 -15.035156 1.71875 -13.1875 1.71875 -10.652344 Z M 4.210938 -4.382812 L 4.210938 -10.652344 C 4.210938 -11.726562 5.027344 -12.542969 6.097656 -12.542969 L 22.679688 -12.542969 C 23.753906 -12.542969 24.570312 -11.726562 24.570312 -10.652344 L 24.570312 -4.382812 C 24.570312 -3.308594 23.753906 -2.492188 22.679688 -2.492188 L 6.097656 -2.492188 C 5.027344 -2.492188 4.210938 -3.308594 4.210938 -4.382812 Z M 4.210938 -4.382812 "/></g></g></g><g fill="#ffffff" fill-opacity="1"><g transform="translate(469.8155, 65.598995)"><g><path d="M 24.570312 -10.652344 L 24.570312 0 L 27.0625 0 L 27.0625 -10.652344 C 27.0625 -13.1875 25.214844 -15.035156 22.679688 -15.035156 L 6.097656 -15.035156 C 3.566406 -15.035156 1.71875 -13.1875 1.71875 -10.652344 L 1.71875 0 L 4.210938 0 L 4.210938 -10.652344 C 4.210938 -11.726562 5.027344 -12.542969 6.097656 -12.542969 L 22.679688 -12.542969 C 23.753906 -12.542969 24.570312 -11.726562 24.570312 -10.652344 Z M 24.570312 -10.652344 "/></g></g></g><g fill="#000000" fill-opacity="1"><g transform="translate(289.749269, 78.027553)"><g><path d="M 0.726562 0 L 3.296875 0 C 4.351562 0 5.214844 -0.863281 5.214844 -1.953125 C 5.214844 -2.460938 4.96875 -2.960938 4.542969 -3.25 C 4.949219 -3.53125 5.121094 -4.042969 5.140625 -4.53125 C 5.167969 -5.675781 4.449219 -6.503906 3.296875 -6.503906 L 0.726562 -6.503906 Z M 2.035156 -5.203125 L 3.1875 -5.203125 C 3.558594 -5.203125 3.789062 -4.914062 3.789062 -4.550781 C 3.789062 -4.195312 3.558594 -3.894531 3.1875 -3.894531 L 2.035156 -3.894531 Z M 2.035156 -2.597656 L 3.1875 -2.597656 C 3.558594 -2.597656 3.84375 -2.316406 3.84375 -1.953125 C 3.84375 -1.589844 3.558594 -1.296875 3.1875 -1.296875 L 2.035156 -1.296875 Z M 2.035156 -2.597656 "/></g></g></g><g fill="#000000" fill-opacity="1"><g transform="translate(295.389439, 78.027553)"><g><path d="M 2.316406 0 L 3.605469 0 L 3.605469 -2.925781 L 5.875 -6.492188 L 4.285156 -6.492188 L 2.960938 -4.257812 L 1.636719 -6.492188 L 0.0546875 -6.492188 L 2.316406 -2.925781 Z M 2.316406 0 "/></g></g></g><g fill="#000000" fill-opacity="1"><g transform="translate(301.283913, 78.027553)"><g/></g></g><g fill="#000000" fill-opacity="1"><g transform="translate(303.86331, 78.027553)"><g><path d="M 4.859375 -4.984375 L 5.011719 -6.320312 C 4.621094 -6.492188 4.1875 -6.574219 3.734375 -6.574219 C -0.664062 -6.574219 -0.671875 0.0195312 3.734375 0.0195312 C 4.1875 0.0195312 4.757812 -0.0898438 5.160156 -0.253906 L 4.984375 -1.597656 C 4.742188 -1.472656 4.296875 -1.308594 3.734375 -1.308594 C 1.164062 -1.308594 1.164062 -5.269531 3.734375 -5.269531 C 4.296875 -5.269531 4.613281 -5.113281 4.859375 -4.984375 Z M 4.859375 -4.984375 "/></g></g></g><g fill="#000000" fill-opacity="1"><g transform="translate(309.330906, 78.027553)"><g><path d="M 0.726562 -6.492188 L 0.726562 0 L 4.085938 0 L 4.085938 -1.296875 L 2.023438 -1.296875 L 2.023438 -6.492188 Z M 0.726562 -6.492188 "/></g></g></g><g fill="#000000" fill-opacity="1"><g transform="translate(313.808529, 78.027553)"><g><path d="M 4.085938 0 L 4.085938 -1.296875 L 2.023438 -1.296875 L 2.023438 -2.597656 L 3.734375 -2.597656 L 3.734375 -3.894531 L 2.023438 -3.894531 L 2.023438 -5.195312 L 3.976562 -5.195312 L 3.976562 -6.492188 L 0.726562 -6.492188 L 0.726562 0 Z M 4.085938 0 "/></g></g></g><g fill="#000000" fill-opacity="1"><g transform="translate(318.386061, 78.027553)"><g><path d="M 0.144531 0 L 1.617188 0 L 1.871094 -0.699219 L 4.023438 -0.699219 L 4.285156 0 L 5.75 0 L 3.015625 -6.730469 L 2.878906 -6.730469 Z M 2.34375 -1.917969 L 2.953125 -3.605469 L 3.542969 -1.917969 Z M 2.34375 -1.917969 "/></g></g></g><g fill="#000000" fill-opacity="1"><g transform="translate(324.316868, 78.027553)"><g><path d="M 2.023438 -3.53125 L 5.3125 0.136719 L 5.660156 0.136719 L 5.660156 -6.484375 L 4.351562 -6.484375 L 4.351562 -2.816406 L 1.070312 -6.628906 L 0.726562 -6.628906 L 0.726562 0 L 2.023438 0 Z M 2.023438 -3.53125 "/></g></g></g><g fill="#000000" fill-opacity="1"><g transform="translate(330.710873, 78.027553)"><g/></g></g><g fill="#000000" fill-opacity="1"><g transform="translate(333.29027, 78.027553)"><g><path d="M 3.75 -7.984375 L 2.152344 -7.984375 L 1.707031 -6.9375 L 2.878906 -6.9375 Z M 4.085938 0 L 4.085938 -1.296875 L 2.023438 -1.296875 L 2.023438 -2.597656 L 3.734375 -2.597656 L 3.734375 -3.894531 L 2.023438 -3.894531 L 2.023438 -5.195312 L 3.976562 -5.195312 L 3.976562 -6.492188 L 0.726562 -6.492188 L 0.726562 0 Z M 4.085938 0 "/></g></g></g><g fill="#000000" fill-opacity="1"><g transform="translate(337.867802, 78.027553)"><g><path d="M 0.726562 -6.492188 L 0.726562 0 L 4.085938 0 L 4.085938 -1.296875 L 2.023438 -1.296875 L 2.023438 -6.492188 Z M 0.726562 -6.492188 "/></g></g></g><g fill="#000000" fill-opacity="1"><g transform="translate(342.345425, 78.027553)"><g><path d="M 2.023438 0 L 2.023438 -6.492188 L 0.726562 -6.492188 L 0.726562 0 Z M 2.023438 0 "/></g></g></g><g fill="#000000" fill-opacity="1"><g transform="translate(345.106473, 78.027553)"><g><path d="M 3.097656 0 L 3.097656 -5.195312 L 4.714844 -5.195312 L 4.714844 -6.484375 L 0.183594 -6.484375 L 0.183594 -5.195312 L 1.796875 -5.195312 L 1.796875 0 Z M 3.097656 0 "/></g></g></g><g fill="#000000" fill-opacity="1"><g transform="translate(350.074538, 78.027553)"><g><path d="M 4.085938 0 L 4.085938 -1.296875 L 2.023438 -1.296875 L 2.023438 -2.597656 L 3.734375 -2.597656 L 3.734375 -3.894531 L 2.023438 -3.894531 L 2.023438 -5.195312 L 3.976562 -5.195312 L 3.976562 -6.492188 L 0.726562 -6.492188 L 0.726562 0 Z M 4.085938 0 "/></g></g></g><g fill="#000000" fill-opacity="1"><g transform="translate(354.652071, 78.027553)"><g><path d="M 3.78125 0.09375 C 3.289062 0.09375 2.84375 0.0078125 2.4375 -0.15625 C 2.03125 -0.320312 1.675781 -0.550781 1.375 -0.84375 C 1.082031 -1.144531 0.851562 -1.5 0.6875 -1.90625 C 0.519531 -2.3125 0.4375 -2.753906 0.4375 -3.234375 C 0.4375 -3.722656 0.519531 -4.171875 0.6875 -4.578125 C 0.851562 -4.984375 1.082031 -5.332031 1.375 -5.625 C 1.675781 -5.925781 2.03125 -6.160156 2.4375 -6.328125 C 2.84375 -6.492188 3.289062 -6.578125 3.78125 -6.578125 C 4.238281 -6.578125 4.664062 -6.492188 5.0625 -6.328125 C 5.46875 -6.160156 5.820312 -5.925781 6.125 -5.625 C 6.4375 -5.332031 6.675781 -4.984375 6.84375 -4.578125 C 7.019531 -4.171875 7.109375 -3.722656 7.109375 -3.234375 C 7.109375 -2.753906 7.023438 -2.3125 6.859375 -1.90625 C 6.703125 -1.5 6.472656 -1.144531 6.171875 -0.84375 C 5.867188 -0.550781 5.515625 -0.320312 5.109375 -0.15625 C 4.703125 0.0078125 4.257812 0.09375 3.78125 0.09375 Z M 3.78125 -0.390625 C 4.164062 -0.390625 4.523438 -0.457031 4.859375 -0.59375 C 5.203125 -0.738281 5.503906 -0.9375 5.765625 -1.1875 C 6.023438 -1.445312 6.226562 -1.75 6.375 -2.09375 C 6.519531 -2.4375 6.59375 -2.816406 6.59375 -3.234375 C 6.59375 -3.628906 6.519531 -4 6.375 -4.34375 C 6.238281 -4.6875 6.046875 -4.988281 5.796875 -5.25 C 5.546875 -5.507812 5.25 -5.710938 4.90625 -5.859375 C 4.5625 -6.015625 4.1875 -6.09375 3.78125 -6.09375 C 3.226562 -6.09375 2.738281 -5.96875 2.3125 -5.71875 C 1.882812 -5.476562 1.550781 -5.140625 1.3125 -4.703125 C 1.070312 -4.273438 0.953125 -3.785156 0.953125 -3.234375 C 0.953125 -2.847656 1.019531 -2.476562 1.15625 -2.125 C 1.300781 -1.78125 1.5 -1.476562 1.75 -1.21875 C 2 -0.957031 2.296875 -0.753906 2.640625 -0.609375 C 2.984375 -0.460938 3.363281 -0.390625 3.78125 -0.390625 Z M 2.53125 -1.25 L 2.53125 -5.21875 L 3.6875 -5.21875 C 4.1875 -5.21875 4.550781 -5.117188 4.78125 -4.921875 C 5.007812 -4.722656 5.125 -4.429688 5.125 -4.046875 C 5.125 -3.765625 5.050781 -3.539062 4.90625 -3.375 C 4.757812 -3.207031 4.597656 -3.085938 4.421875 -3.015625 L 5.46875 -1.25 L 4.6875 -1.25 L 3.78125 -2.828125 L 3.21875 -2.828125 L 3.21875 -1.25 Z M 3.21875 -3.390625 L 3.671875 -3.390625 C 3.910156 -3.390625 4.097656 -3.445312 4.234375 -3.5625 C 4.367188 -3.675781 4.4375 -3.832031 4.4375 -4.03125 C 4.4375 -4.238281 4.375 -4.390625 4.25 -4.484375 C 4.125 -4.585938 3.929688 -4.640625 3.671875 -4.640625 L 3.21875 -4.640625 Z M 3.21875 -3.390625 "/></g></g></g></svg>